%
M48
METRIC,000.000
T01C1.00
T02C1.27
T03C2.20
T04C0.99
T05C1.70
T06C3.43
%
T01
X002339Y073999
X004879Y073999
X007419Y073999
X009959Y073999
X012499Y073999
X019339Y073999
X021879Y073999
X024419Y073999
X026959Y073999
X029499Y073999
X036339Y073999
X038879Y073999
X041419Y073999
X043959Y073999
X046499Y073999
X053339Y073999
X055879Y073999
X058419Y073999
X060959Y073999
X063499Y073999
X070339Y073999
X072879Y073999
X075419Y073999
X077959Y073999
X080499Y073999
T02
X002499Y060700
X002499Y041701
X007500Y058599
X007500Y039600
X007500Y032399
X007500Y013400
X012499Y030298
X012499Y011299
X019499Y060700
X019499Y041701
X024500Y058599
X024500Y039600
X024500Y032399
X024500Y013400
X029499Y030298
X029499Y011299
X036499Y060700
X036499Y041701
X041500Y058599
X041500Y039600
X041500Y032399
X041500Y013400
X046499Y030298
X046499Y011299
X053499Y060700
X053499Y041701
X058500Y058599
X058500Y039600
X058500Y032399
X058500Y013400
X063499Y030298
X063499Y011299
X070499Y060700
X070499Y041701
X075500Y058599
X075500Y039600
X075500Y032399
X075500Y013400
X080499Y030298
X080499Y011299
T03
X007500Y055000
X007500Y035998
X007500Y016999
X024500Y055000
X024500Y035998
X024500Y016999
X041500Y055000
X041500Y035998
X041500Y016999
X058500Y055000
X058500Y035998
X058500Y016999
X075500Y055000
X075500Y035998
X075500Y016999
T04
X002280Y022300
X002280Y003298
X012720Y068701
X012720Y049699
X019280Y022300
X019280Y003298
X029720Y068701
X029720Y049699
X036280Y022300
X036280Y003298
X046720Y068701
X046720Y049699
X053280Y022300
X053280Y003298
X063720Y068701
X063720Y049699
X070280Y022300
X070280Y003298
X080720Y068701
X080720Y049699
T05
X002001Y064500
X002001Y045500
X002001Y026499
X002001Y007499
X012999Y064500
X012999Y045500
X012999Y026499
X012999Y007499
X019001Y064500
X019001Y045500
X019001Y026499
X019001Y007499
X029999Y064500
X029999Y045500
X029999Y026499
X029999Y007499
X036001Y064500
X036001Y045500
X036001Y026499
X036001Y007499
X046999Y064500
X046999Y045500
X046999Y026499
X046999Y007499
X053001Y064500
X053001Y045500
X053001Y026499
X053001Y007499
X063999Y064500
X063999Y045500
X063999Y026499
X063999Y007499
X070001Y064500
X070001Y045500
X070001Y026499
X070001Y007499
X080999Y064500
X080999Y045500
X080999Y026499
X080999Y007499
T06
X007500Y064500
X007500Y045500
X007500Y026499
X007500Y007499
X024500Y064500
X024500Y045500
X024500Y026499
X024500Y007499
X041500Y064500
X041500Y045500
X041500Y026499
X041500Y007499
X058500Y064500
X058500Y045500
X058500Y026499
X058500Y007499
X075500Y064500
X075500Y045500
X075500Y026499
X075500Y007499
M30