%MOIN*%
%OFA0B0*%
%FSLAX46Y46*%
%IPPOS*%
%LPD*%
%AMRoundRect*
4,1,4,
0.07874015748031496,0.11811023622047245,
0.15748031496062992,0.19685039370078741,
0.23622047244094491,0.27559055118110237,
0.31496062992125984,0.35433070866141736,
0.07874015748031496,0.11811023622047245,
0*
1,1,$1,$2,$3*
1,1,$1,$2,$3*
1,1,$1,$2,$3*
1,1,$1,$2,$3*
20,1,$1,$2,$3,$4,$5,0*
20,1,$1,$2,$3,$4,$5,0*
20,1,$1,$2,$3,$4,$5,0*
20,1,$1,$2,$3,$4,$5,0*%
%AMCOMP3*
4,1,3,
-0.012795275590551183,-0.017716535433070866,
0.012795275590551183,-0.017716535433070866,
0.012795275590551183,0.017716535433070866,
-0.012795275590551183,0.017716535433070866,
0*
4,1,19,
-0.012795275590551183,-0.0078740157480314977,
-0.0097537697404040617,-0.0083557429498508518,
-0.0070099876742866826,-0.0097537697404040617,
-0.0048325098978843758,-0.011931247516806368,
-0.0034344831073311669,-0.014675029582923747,
-0.0029527559055118114,-0.017716535433070866,
-0.0034344831073311656,-0.020758041283217985,
-0.0048325098978843758,-0.023501823349335368,
-0.0070099876742866817,-0.025679301125737672,
-0.0097537697404040617,-0.027077327916290882,
-0.012795275590551181,-0.027559055118110236,
-0.015836781440698305,-0.027077327916290882,
-0.018580563506815681,-0.025679301125737675,
-0.020758041283217985,-0.023501823349335368,
-0.0221560680737712,-0.020758041283217992,
-0.022637795275590549,-0.017716535433070869,
-0.0221560680737712,-0.014675029582923748,
-0.020758041283217992,-0.011931247516806369,
-0.018580563506815684,-0.0097537697404040634,
-0.015836781440698305,-0.0083557429498508518,
0*
4,1,19,
0.012795275590551183,-0.0078740157480314977,
0.015836781440698302,-0.0083557429498508518,
0.018580563506815681,-0.0097537697404040617,
0.020758041283217985,-0.011931247516806368,
0.0221560680737712,-0.014675029582923747,
0.022637795275590549,-0.017716535433070866,
0.0221560680737712,-0.020758041283217985,
0.020758041283217985,-0.023501823349335368,
0.018580563506815681,-0.025679301125737672,
0.015836781440698302,-0.027077327916290882,
0.012795275590551184,-0.027559055118110236,
0.00975376974040406,-0.027077327916290882,
0.0070099876742866834,-0.025679301125737675,
0.0048325098978843775,-0.023501823349335368,
0.0034344831073311669,-0.020758041283217992,
0.0029527559055118114,-0.017716535433070869,
0.0034344831073311656,-0.014675029582923748,
0.0048325098978843749,-0.011931247516806369,
0.00700998767428668,-0.0097537697404040634,
0.00975376974040406,-0.0083557429498508518,
0*
4,1,19,
0.012795275590551183,0.027559055118110236,
0.015836781440698302,0.027077327916290882,
0.018580563506815681,0.025679301125737672,
0.020758041283217985,0.023501823349335368,
0.0221560680737712,0.020758041283217985,
0.022637795275590549,0.017716535433070866,
0.0221560680737712,0.014675029582923748,
0.020758041283217985,0.011931247516806368,
0.018580563506815681,0.0097537697404040634,
0.015836781440698302,0.0083557429498508518,
0.012795275590551184,0.0078740157480314977,
0.00975376974040406,0.0083557429498508518,
0.0070099876742866834,0.00975376974040406,
0.0048325098978843775,0.011931247516806368,
0.0034344831073311669,0.014675029582923745,
0.0029527559055118114,0.017716535433070866,
0.0034344831073311656,0.020758041283217985,
0.0048325098978843749,0.023501823349335368,
0.00700998767428668,0.025679301125737672,
0.00975376974040406,0.027077327916290882,
0*
4,1,19,
-0.012795275590551183,0.027559055118110236,
-0.0097537697404040617,0.027077327916290882,
-0.0070099876742866826,0.025679301125737672,
-0.0048325098978843758,0.023501823349335368,
-0.0034344831073311669,0.020758041283217985,
-0.0029527559055118114,0.017716535433070866,
-0.0034344831073311656,0.014675029582923748,
-0.0048325098978843758,0.011931247516806368,
-0.0070099876742866817,0.0097537697404040634,
-0.0097537697404040617,0.0083557429498508518,
-0.012795275590551181,0.0078740157480314977,
-0.015836781440698305,0.0083557429498508518,
-0.018580563506815681,0.00975376974040406,
-0.020758041283217985,0.011931247516806368,
-0.0221560680737712,0.014675029582923745,
-0.022637795275590549,0.017716535433070866,
-0.0221560680737712,0.020758041283217985,
-0.020758041283217992,0.023501823349335368,
-0.018580563506815684,0.025679301125737672,
-0.015836781440698305,0.027077327916290882,
0*
4,1,3,
-0.012795275590551183,-0.027559055118110236,
-0.012795275590551183,-0.0078740157480314977,
0.012795275590551183,-0.0078740157480314977,
0.012795275590551183,-0.027559055118110236,
0*
4,1,3,
0.022637795275590549,-0.017716535433070866,
0.0029527559055118114,-0.017716535433070866,
0.0029527559055118114,0.017716535433070866,
0.022637795275590549,0.017716535433070866,
0*
4,1,3,
0.012795275590551183,0.027559055118110236,
0.012795275590551183,0.0078740157480314977,
-0.012795275590551183,0.0078740157480314977,
-0.012795275590551183,0.027559055118110236,
0*
4,1,3,
-0.022637795275590549,0.017716535433070866,
-0.0029527559055118114,0.017716535433070866,
-0.0029527559055118114,-0.017716535433070866,
-0.022637795275590549,-0.017716535433070866,
0*%
%AMCOMP4*
4,1,3,
0.012795275590551183,0.017716535433070866,
-0.012795275590551183,0.017716535433070866,
-0.012795275590551183,-0.017716535433070866,
0.012795275590551183,-0.017716535433070866,
0*
4,1,19,
0.012795275590551183,0.027559055118110236,
0.015836781440698302,0.027077327916290882,
0.018580563506815681,0.025679301125737672,
0.020758041283217985,0.023501823349335368,
0.0221560680737712,0.020758041283217985,
0.022637795275590549,0.017716535433070866,
0.0221560680737712,0.014675029582923748,
0.020758041283217985,0.011931247516806368,
0.018580563506815681,0.0097537697404040634,
0.015836781440698302,0.0083557429498508518,
0.012795275590551184,0.0078740157480314977,
0.00975376974040406,0.0083557429498508518,
0.0070099876742866834,0.00975376974040406,
0.0048325098978843775,0.011931247516806368,
0.0034344831073311669,0.014675029582923745,
0.0029527559055118114,0.017716535433070866,
0.0034344831073311656,0.020758041283217985,
0.0048325098978843749,0.023501823349335368,
0.00700998767428668,0.025679301125737672,
0.00975376974040406,0.027077327916290882,
0*
4,1,19,
-0.012795275590551183,0.027559055118110236,
-0.0097537697404040617,0.027077327916290882,
-0.0070099876742866826,0.025679301125737672,
-0.0048325098978843758,0.023501823349335368,
-0.0034344831073311669,0.020758041283217985,
-0.0029527559055118114,0.017716535433070866,
-0.0034344831073311656,0.014675029582923748,
-0.0048325098978843758,0.011931247516806368,
-0.0070099876742866817,0.0097537697404040634,
-0.0097537697404040617,0.0083557429498508518,
-0.012795275590551181,0.0078740157480314977,
-0.015836781440698305,0.0083557429498508518,
-0.018580563506815681,0.00975376974040406,
-0.020758041283217985,0.011931247516806368,
-0.0221560680737712,0.014675029582923745,
-0.022637795275590549,0.017716535433070866,
-0.0221560680737712,0.020758041283217985,
-0.020758041283217992,0.023501823349335368,
-0.018580563506815684,0.025679301125737672,
-0.015836781440698305,0.027077327916290882,
0*
4,1,19,
-0.012795275590551183,-0.0078740157480314977,
-0.0097537697404040617,-0.0083557429498508518,
-0.0070099876742866826,-0.0097537697404040617,
-0.0048325098978843758,-0.011931247516806368,
-0.0034344831073311669,-0.014675029582923747,
-0.0029527559055118114,-0.017716535433070866,
-0.0034344831073311656,-0.020758041283217985,
-0.0048325098978843758,-0.023501823349335368,
-0.0070099876742866817,-0.025679301125737672,
-0.0097537697404040617,-0.027077327916290882,
-0.012795275590551181,-0.027559055118110236,
-0.015836781440698305,-0.027077327916290882,
-0.018580563506815681,-0.025679301125737675,
-0.020758041283217985,-0.023501823349335368,
-0.0221560680737712,-0.020758041283217992,
-0.022637795275590549,-0.017716535433070869,
-0.0221560680737712,-0.014675029582923748,
-0.020758041283217992,-0.011931247516806369,
-0.018580563506815684,-0.0097537697404040634,
-0.015836781440698305,-0.0083557429498508518,
0*
4,1,19,
0.012795275590551183,-0.0078740157480314977,
0.015836781440698302,-0.0083557429498508518,
0.018580563506815681,-0.0097537697404040617,
0.020758041283217985,-0.011931247516806368,
0.0221560680737712,-0.014675029582923747,
0.022637795275590549,-0.017716535433070866,
0.0221560680737712,-0.020758041283217985,
0.020758041283217985,-0.023501823349335368,
0.018580563506815681,-0.025679301125737672,
0.015836781440698302,-0.027077327916290882,
0.012795275590551184,-0.027559055118110236,
0.00975376974040406,-0.027077327916290882,
0.0070099876742866834,-0.025679301125737675,
0.0048325098978843775,-0.023501823349335368,
0.0034344831073311669,-0.020758041283217992,
0.0029527559055118114,-0.017716535433070869,
0.0034344831073311656,-0.014675029582923748,
0.0048325098978843749,-0.011931247516806369,
0.00700998767428668,-0.0097537697404040634,
0.00975376974040406,-0.0083557429498508518,
0*
4,1,3,
0.012795275590551183,0.027559055118110236,
0.012795275590551183,0.0078740157480314977,
-0.012795275590551183,0.0078740157480314977,
-0.012795275590551183,0.027559055118110236,
0*
4,1,3,
-0.022637795275590549,0.017716535433070866,
-0.0029527559055118114,0.017716535433070866,
-0.0029527559055118114,-0.017716535433070866,
-0.022637795275590549,-0.017716535433070866,
0*
4,1,3,
-0.012795275590551183,-0.027559055118110236,
-0.012795275590551183,-0.0078740157480314977,
0.012795275590551183,-0.0078740157480314977,
0.012795275590551183,-0.027559055118110236,
0*
4,1,3,
0.022637795275590549,-0.017716535433070866,
0.0029527559055118114,-0.017716535433070866,
0.0029527559055118114,0.017716535433070866,
0.022637795275590549,0.017716535433070866,
0*%
%AMRoundRect0*
4,1,4,
0.07874015748031496,0.11811023622047245,
0.15748031496062992,0.19685039370078741,
0.23622047244094491,0.27559055118110237,
0.31496062992125984,0.35433070866141736,
0.07874015748031496,0.11811023622047245,
0*
1,1,$1,$2,$3*
1,1,$1,$2,$3*
1,1,$1,$2,$3*
1,1,$1,$2,$3*
20,1,$1,$2,$3,$4,$5,0*
20,1,$1,$2,$3,$4,$5,0*
20,1,$1,$2,$3,$4,$5,0*
20,1,$1,$2,$3,$4,$5,0*%
%AMCOMP70*
4,1,3,
-0.012795275590551183,-0.017716535433070866,
0.012795275590551183,-0.017716535433070866,
0.012795275590551183,0.017716535433070866,
-0.012795275590551183,0.017716535433070866,
0*
4,1,19,
-0.012795275590551183,-0.0078740157480314977,
-0.0097537697404040617,-0.0083557429498508518,
-0.0070099876742866826,-0.0097537697404040617,
-0.0048325098978843758,-0.011931247516806368,
-0.0034344831073311669,-0.014675029582923747,
-0.0029527559055118114,-0.017716535433070866,
-0.0034344831073311656,-0.020758041283217985,
-0.0048325098978843758,-0.023501823349335368,
-0.0070099876742866817,-0.025679301125737672,
-0.0097537697404040617,-0.027077327916290882,
-0.012795275590551181,-0.027559055118110236,
-0.015836781440698305,-0.027077327916290882,
-0.018580563506815681,-0.025679301125737675,
-0.020758041283217985,-0.023501823349335368,
-0.0221560680737712,-0.020758041283217992,
-0.022637795275590549,-0.017716535433070869,
-0.0221560680737712,-0.014675029582923748,
-0.020758041283217992,-0.011931247516806369,
-0.018580563506815684,-0.0097537697404040634,
-0.015836781440698305,-0.0083557429498508518,
0*
4,1,19,
0.012795275590551183,-0.0078740157480314977,
0.015836781440698302,-0.0083557429498508518,
0.018580563506815681,-0.0097537697404040617,
0.020758041283217985,-0.011931247516806368,
0.0221560680737712,-0.014675029582923747,
0.022637795275590549,-0.017716535433070866,
0.0221560680737712,-0.020758041283217985,
0.020758041283217985,-0.023501823349335368,
0.018580563506815681,-0.025679301125737672,
0.015836781440698302,-0.027077327916290882,
0.012795275590551184,-0.027559055118110236,
0.00975376974040406,-0.027077327916290882,
0.0070099876742866834,-0.025679301125737675,
0.0048325098978843775,-0.023501823349335368,
0.0034344831073311669,-0.020758041283217992,
0.0029527559055118114,-0.017716535433070869,
0.0034344831073311656,-0.014675029582923748,
0.0048325098978843749,-0.011931247516806369,
0.00700998767428668,-0.0097537697404040634,
0.00975376974040406,-0.0083557429498508518,
0*
4,1,19,
0.012795275590551183,0.027559055118110236,
0.015836781440698302,0.027077327916290882,
0.018580563506815681,0.025679301125737672,
0.020758041283217985,0.023501823349335368,
0.0221560680737712,0.020758041283217985,
0.022637795275590549,0.017716535433070866,
0.0221560680737712,0.014675029582923748,
0.020758041283217985,0.011931247516806368,
0.018580563506815681,0.0097537697404040634,
0.015836781440698302,0.0083557429498508518,
0.012795275590551184,0.0078740157480314977,
0.00975376974040406,0.0083557429498508518,
0.0070099876742866834,0.00975376974040406,
0.0048325098978843775,0.011931247516806368,
0.0034344831073311669,0.014675029582923745,
0.0029527559055118114,0.017716535433070866,
0.0034344831073311656,0.020758041283217985,
0.0048325098978843749,0.023501823349335368,
0.00700998767428668,0.025679301125737672,
0.00975376974040406,0.027077327916290882,
0*
4,1,19,
-0.012795275590551183,0.027559055118110236,
-0.0097537697404040617,0.027077327916290882,
-0.0070099876742866826,0.025679301125737672,
-0.0048325098978843758,0.023501823349335368,
-0.0034344831073311669,0.020758041283217985,
-0.0029527559055118114,0.017716535433070866,
-0.0034344831073311656,0.014675029582923748,
-0.0048325098978843758,0.011931247516806368,
-0.0070099876742866817,0.0097537697404040634,
-0.0097537697404040617,0.0083557429498508518,
-0.012795275590551181,0.0078740157480314977,
-0.015836781440698305,0.0083557429498508518,
-0.018580563506815681,0.00975376974040406,
-0.020758041283217985,0.011931247516806368,
-0.0221560680737712,0.014675029582923745,
-0.022637795275590549,0.017716535433070866,
-0.0221560680737712,0.020758041283217985,
-0.020758041283217992,0.023501823349335368,
-0.018580563506815684,0.025679301125737672,
-0.015836781440698305,0.027077327916290882,
0*
4,1,3,
-0.012795275590551183,-0.027559055118110236,
-0.012795275590551183,-0.0078740157480314977,
0.012795275590551183,-0.0078740157480314977,
0.012795275590551183,-0.027559055118110236,
0*
4,1,3,
0.022637795275590549,-0.017716535433070866,
0.0029527559055118114,-0.017716535433070866,
0.0029527559055118114,0.017716535433070866,
0.022637795275590549,0.017716535433070866,
0*
4,1,3,
0.012795275590551183,0.027559055118110236,
0.012795275590551183,0.0078740157480314977,
-0.012795275590551183,0.0078740157480314977,
-0.012795275590551183,0.027559055118110236,
0*
4,1,3,
-0.022637795275590549,0.017716535433070866,
-0.0029527559055118114,0.017716535433070866,
-0.0029527559055118114,-0.017716535433070866,
-0.022637795275590549,-0.017716535433070866,
0*%
%AMCOMP80*
4,1,3,
0.012795275590551183,0.017716535433070866,
-0.012795275590551183,0.017716535433070866,
-0.012795275590551183,-0.017716535433070866,
0.012795275590551183,-0.017716535433070866,
0*
4,1,19,
0.012795275590551183,0.027559055118110236,
0.015836781440698302,0.027077327916290882,
0.018580563506815681,0.025679301125737672,
0.020758041283217985,0.023501823349335368,
0.0221560680737712,0.020758041283217985,
0.022637795275590549,0.017716535433070866,
0.0221560680737712,0.014675029582923748,
0.020758041283217985,0.011931247516806368,
0.018580563506815681,0.0097537697404040634,
0.015836781440698302,0.0083557429498508518,
0.012795275590551184,0.0078740157480314977,
0.00975376974040406,0.0083557429498508518,
0.0070099876742866834,0.00975376974040406,
0.0048325098978843775,0.011931247516806368,
0.0034344831073311669,0.014675029582923745,
0.0029527559055118114,0.017716535433070866,
0.0034344831073311656,0.020758041283217985,
0.0048325098978843749,0.023501823349335368,
0.00700998767428668,0.025679301125737672,
0.00975376974040406,0.027077327916290882,
0*
4,1,19,
-0.012795275590551183,0.027559055118110236,
-0.0097537697404040617,0.027077327916290882,
-0.0070099876742866826,0.025679301125737672,
-0.0048325098978843758,0.023501823349335368,
-0.0034344831073311669,0.020758041283217985,
-0.0029527559055118114,0.017716535433070866,
-0.0034344831073311656,0.014675029582923748,
-0.0048325098978843758,0.011931247516806368,
-0.0070099876742866817,0.0097537697404040634,
-0.0097537697404040617,0.0083557429498508518,
-0.012795275590551181,0.0078740157480314977,
-0.015836781440698305,0.0083557429498508518,
-0.018580563506815681,0.00975376974040406,
-0.020758041283217985,0.011931247516806368,
-0.0221560680737712,0.014675029582923745,
-0.022637795275590549,0.017716535433070866,
-0.0221560680737712,0.020758041283217985,
-0.020758041283217992,0.023501823349335368,
-0.018580563506815684,0.025679301125737672,
-0.015836781440698305,0.027077327916290882,
0*
4,1,19,
-0.012795275590551183,-0.0078740157480314977,
-0.0097537697404040617,-0.0083557429498508518,
-0.0070099876742866826,-0.0097537697404040617,
-0.0048325098978843758,-0.011931247516806368,
-0.0034344831073311669,-0.014675029582923747,
-0.0029527559055118114,-0.017716535433070866,
-0.0034344831073311656,-0.020758041283217985,
-0.0048325098978843758,-0.023501823349335368,
-0.0070099876742866817,-0.025679301125737672,
-0.0097537697404040617,-0.027077327916290882,
-0.012795275590551181,-0.027559055118110236,
-0.015836781440698305,-0.027077327916290882,
-0.018580563506815681,-0.025679301125737675,
-0.020758041283217985,-0.023501823349335368,
-0.0221560680737712,-0.020758041283217992,
-0.022637795275590549,-0.017716535433070869,
-0.0221560680737712,-0.014675029582923748,
-0.020758041283217992,-0.011931247516806369,
-0.018580563506815684,-0.0097537697404040634,
-0.015836781440698305,-0.0083557429498508518,
0*
4,1,19,
0.012795275590551183,-0.0078740157480314977,
0.015836781440698302,-0.0083557429498508518,
0.018580563506815681,-0.0097537697404040617,
0.020758041283217985,-0.011931247516806368,
0.0221560680737712,-0.014675029582923747,
0.022637795275590549,-0.017716535433070866,
0.0221560680737712,-0.020758041283217985,
0.020758041283217985,-0.023501823349335368,
0.018580563506815681,-0.025679301125737672,
0.015836781440698302,-0.027077327916290882,
0.012795275590551184,-0.027559055118110236,
0.00975376974040406,-0.027077327916290882,
0.0070099876742866834,-0.025679301125737675,
0.0048325098978843775,-0.023501823349335368,
0.0034344831073311669,-0.020758041283217992,
0.0029527559055118114,-0.017716535433070869,
0.0034344831073311656,-0.014675029582923748,
0.0048325098978843749,-0.011931247516806369,
0.00700998767428668,-0.0097537697404040634,
0.00975376974040406,-0.0083557429498508518,
0*
4,1,3,
0.012795275590551183,0.027559055118110236,
0.012795275590551183,0.0078740157480314977,
-0.012795275590551183,0.0078740157480314977,
-0.012795275590551183,0.027559055118110236,
0*
4,1,3,
-0.022637795275590549,0.017716535433070866,
-0.0029527559055118114,0.017716535433070866,
-0.0029527559055118114,-0.017716535433070866,
-0.022637795275590549,-0.017716535433070866,
0*
4,1,3,
-0.012795275590551183,-0.027559055118110236,
-0.012795275590551183,-0.0078740157480314977,
0.012795275590551183,-0.0078740157480314977,
0.012795275590551183,-0.027559055118110236,
0*
4,1,3,
0.022637795275590549,-0.017716535433070866,
0.0029527559055118114,-0.017716535433070866,
0.0029527559055118114,0.017716535433070866,
0.022637795275590549,0.017716535433070866,
0*%
%AMRoundRect1*
4,1,4,
0.07874015748031496,0.11811023622047245,
0.15748031496062992,0.19685039370078741,
0.23622047244094491,0.27559055118110237,
0.31496062992125984,0.35433070866141736,
0.07874015748031496,0.11811023622047245,
0*
1,1,$1,$2,$3*
1,1,$1,$2,$3*
1,1,$1,$2,$3*
1,1,$1,$2,$3*
20,1,$1,$2,$3,$4,$5,0*
20,1,$1,$2,$3,$4,$5,0*
20,1,$1,$2,$3,$4,$5,0*
20,1,$1,$2,$3,$4,$5,0*%
%AMCOMP110*
4,1,3,
-0.012795275590551183,-0.017716535433070866,
0.012795275590551183,-0.017716535433070866,
0.012795275590551183,0.017716535433070866,
-0.012795275590551183,0.017716535433070866,
0*
4,1,19,
-0.012795275590551183,-0.0078740157480314977,
-0.0097537697404040617,-0.0083557429498508518,
-0.0070099876742866826,-0.0097537697404040617,
-0.0048325098978843758,-0.011931247516806368,
-0.0034344831073311669,-0.014675029582923747,
-0.0029527559055118114,-0.017716535433070866,
-0.0034344831073311656,-0.020758041283217985,
-0.0048325098978843758,-0.023501823349335368,
-0.0070099876742866817,-0.025679301125737672,
-0.0097537697404040617,-0.027077327916290882,
-0.012795275590551181,-0.027559055118110236,
-0.015836781440698305,-0.027077327916290882,
-0.018580563506815681,-0.025679301125737675,
-0.020758041283217985,-0.023501823349335368,
-0.0221560680737712,-0.020758041283217992,
-0.022637795275590549,-0.017716535433070869,
-0.0221560680737712,-0.014675029582923748,
-0.020758041283217992,-0.011931247516806369,
-0.018580563506815684,-0.0097537697404040634,
-0.015836781440698305,-0.0083557429498508518,
0*
4,1,19,
0.012795275590551183,-0.0078740157480314977,
0.015836781440698302,-0.0083557429498508518,
0.018580563506815681,-0.0097537697404040617,
0.020758041283217985,-0.011931247516806368,
0.0221560680737712,-0.014675029582923747,
0.022637795275590549,-0.017716535433070866,
0.0221560680737712,-0.020758041283217985,
0.020758041283217985,-0.023501823349335368,
0.018580563506815681,-0.025679301125737672,
0.015836781440698302,-0.027077327916290882,
0.012795275590551184,-0.027559055118110236,
0.00975376974040406,-0.027077327916290882,
0.0070099876742866834,-0.025679301125737675,
0.0048325098978843775,-0.023501823349335368,
0.0034344831073311669,-0.020758041283217992,
0.0029527559055118114,-0.017716535433070869,
0.0034344831073311656,-0.014675029582923748,
0.0048325098978843749,-0.011931247516806369,
0.00700998767428668,-0.0097537697404040634,
0.00975376974040406,-0.0083557429498508518,
0*
4,1,19,
0.012795275590551183,0.027559055118110236,
0.015836781440698302,0.027077327916290882,
0.018580563506815681,0.025679301125737672,
0.020758041283217985,0.023501823349335368,
0.0221560680737712,0.020758041283217985,
0.022637795275590549,0.017716535433070866,
0.0221560680737712,0.014675029582923748,
0.020758041283217985,0.011931247516806368,
0.018580563506815681,0.0097537697404040634,
0.015836781440698302,0.0083557429498508518,
0.012795275590551184,0.0078740157480314977,
0.00975376974040406,0.0083557429498508518,
0.0070099876742866834,0.00975376974040406,
0.0048325098978843775,0.011931247516806368,
0.0034344831073311669,0.014675029582923745,
0.0029527559055118114,0.017716535433070866,
0.0034344831073311656,0.020758041283217985,
0.0048325098978843749,0.023501823349335368,
0.00700998767428668,0.025679301125737672,
0.00975376974040406,0.027077327916290882,
0*
4,1,19,
-0.012795275590551183,0.027559055118110236,
-0.0097537697404040617,0.027077327916290882,
-0.0070099876742866826,0.025679301125737672,
-0.0048325098978843758,0.023501823349335368,
-0.0034344831073311669,0.020758041283217985,
-0.0029527559055118114,0.017716535433070866,
-0.0034344831073311656,0.014675029582923748,
-0.0048325098978843758,0.011931247516806368,
-0.0070099876742866817,0.0097537697404040634,
-0.0097537697404040617,0.0083557429498508518,
-0.012795275590551181,0.0078740157480314977,
-0.015836781440698305,0.0083557429498508518,
-0.018580563506815681,0.00975376974040406,
-0.020758041283217985,0.011931247516806368,
-0.0221560680737712,0.014675029582923745,
-0.022637795275590549,0.017716535433070866,
-0.0221560680737712,0.020758041283217985,
-0.020758041283217992,0.023501823349335368,
-0.018580563506815684,0.025679301125737672,
-0.015836781440698305,0.027077327916290882,
0*
4,1,3,
-0.012795275590551183,-0.027559055118110236,
-0.012795275590551183,-0.0078740157480314977,
0.012795275590551183,-0.0078740157480314977,
0.012795275590551183,-0.027559055118110236,
0*
4,1,3,
0.022637795275590549,-0.017716535433070866,
0.0029527559055118114,-0.017716535433070866,
0.0029527559055118114,0.017716535433070866,
0.022637795275590549,0.017716535433070866,
0*
4,1,3,
0.012795275590551183,0.027559055118110236,
0.012795275590551183,0.0078740157480314977,
-0.012795275590551183,0.0078740157480314977,
-0.012795275590551183,0.027559055118110236,
0*
4,1,3,
-0.022637795275590549,0.017716535433070866,
-0.0029527559055118114,0.017716535433070866,
-0.0029527559055118114,-0.017716535433070866,
-0.022637795275590549,-0.017716535433070866,
0*%
%AMCOMP120*
4,1,3,
0.012795275590551183,0.017716535433070866,
-0.012795275590551183,0.017716535433070866,
-0.012795275590551183,-0.017716535433070866,
0.012795275590551183,-0.017716535433070866,
0*
4,1,19,
0.012795275590551183,0.027559055118110236,
0.015836781440698302,0.027077327916290882,
0.018580563506815681,0.025679301125737672,
0.020758041283217985,0.023501823349335368,
0.0221560680737712,0.020758041283217985,
0.022637795275590549,0.017716535433070866,
0.0221560680737712,0.014675029582923748,
0.020758041283217985,0.011931247516806368,
0.018580563506815681,0.0097537697404040634,
0.015836781440698302,0.0083557429498508518,
0.012795275590551184,0.0078740157480314977,
0.00975376974040406,0.0083557429498508518,
0.0070099876742866834,0.00975376974040406,
0.0048325098978843775,0.011931247516806368,
0.0034344831073311669,0.014675029582923745,
0.0029527559055118114,0.017716535433070866,
0.0034344831073311656,0.020758041283217985,
0.0048325098978843749,0.023501823349335368,
0.00700998767428668,0.025679301125737672,
0.00975376974040406,0.027077327916290882,
0*
4,1,19,
-0.012795275590551183,0.027559055118110236,
-0.0097537697404040617,0.027077327916290882,
-0.0070099876742866826,0.025679301125737672,
-0.0048325098978843758,0.023501823349335368,
-0.0034344831073311669,0.020758041283217985,
-0.0029527559055118114,0.017716535433070866,
-0.0034344831073311656,0.014675029582923748,
-0.0048325098978843758,0.011931247516806368,
-0.0070099876742866817,0.0097537697404040634,
-0.0097537697404040617,0.0083557429498508518,
-0.012795275590551181,0.0078740157480314977,
-0.015836781440698305,0.0083557429498508518,
-0.018580563506815681,0.00975376974040406,
-0.020758041283217985,0.011931247516806368,
-0.0221560680737712,0.014675029582923745,
-0.022637795275590549,0.017716535433070866,
-0.0221560680737712,0.020758041283217985,
-0.020758041283217992,0.023501823349335368,
-0.018580563506815684,0.025679301125737672,
-0.015836781440698305,0.027077327916290882,
0*
4,1,19,
-0.012795275590551183,-0.0078740157480314977,
-0.0097537697404040617,-0.0083557429498508518,
-0.0070099876742866826,-0.0097537697404040617,
-0.0048325098978843758,-0.011931247516806368,
-0.0034344831073311669,-0.014675029582923747,
-0.0029527559055118114,-0.017716535433070866,
-0.0034344831073311656,-0.020758041283217985,
-0.0048325098978843758,-0.023501823349335368,
-0.0070099876742866817,-0.025679301125737672,
-0.0097537697404040617,-0.027077327916290882,
-0.012795275590551181,-0.027559055118110236,
-0.015836781440698305,-0.027077327916290882,
-0.018580563506815681,-0.025679301125737675,
-0.020758041283217985,-0.023501823349335368,
-0.0221560680737712,-0.020758041283217992,
-0.022637795275590549,-0.017716535433070869,
-0.0221560680737712,-0.014675029582923748,
-0.020758041283217992,-0.011931247516806369,
-0.018580563506815684,-0.0097537697404040634,
-0.015836781440698305,-0.0083557429498508518,
0*
4,1,19,
0.012795275590551183,-0.0078740157480314977,
0.015836781440698302,-0.0083557429498508518,
0.018580563506815681,-0.0097537697404040617,
0.020758041283217985,-0.011931247516806368,
0.0221560680737712,-0.014675029582923747,
0.022637795275590549,-0.017716535433070866,
0.0221560680737712,-0.020758041283217985,
0.020758041283217985,-0.023501823349335368,
0.018580563506815681,-0.025679301125737672,
0.015836781440698302,-0.027077327916290882,
0.012795275590551184,-0.027559055118110236,
0.00975376974040406,-0.027077327916290882,
0.0070099876742866834,-0.025679301125737675,
0.0048325098978843775,-0.023501823349335368,
0.0034344831073311669,-0.020758041283217992,
0.0029527559055118114,-0.017716535433070869,
0.0034344831073311656,-0.014675029582923748,
0.0048325098978843749,-0.011931247516806369,
0.00700998767428668,-0.0097537697404040634,
0.00975376974040406,-0.0083557429498508518,
0*
4,1,3,
0.012795275590551183,0.027559055118110236,
0.012795275590551183,0.0078740157480314977,
-0.012795275590551183,0.0078740157480314977,
-0.012795275590551183,0.027559055118110236,
0*
4,1,3,
-0.022637795275590549,0.017716535433070866,
-0.0029527559055118114,0.017716535433070866,
-0.0029527559055118114,-0.017716535433070866,
-0.022637795275590549,-0.017716535433070866,
0*
4,1,3,
-0.012795275590551183,-0.027559055118110236,
-0.012795275590551183,-0.0078740157480314977,
0.012795275590551183,-0.0078740157480314977,
0.012795275590551183,-0.027559055118110236,
0*
4,1,3,
0.022637795275590549,-0.017716535433070866,
0.0029527559055118114,-0.017716535433070866,
0.0029527559055118114,0.017716535433070866,
0.022637795275590549,0.017716535433070866,
0*%
%AMRoundRect0*
4,1,4,
0.07874015748031496,0.11811023622047245,
0.15748031496062992,0.19685039370078741,
0.23622047244094491,0.27559055118110237,
0.31496062992125984,0.35433070866141736,
0.07874015748031496,0.11811023622047245,
0*
1,1,$1,$2,$3*
1,1,$1,$2,$3*
1,1,$1,$2,$3*
1,1,$1,$2,$3*
20,1,$1,$2,$3,$4,$5,0*
20,1,$1,$2,$3,$4,$5,0*
20,1,$1,$2,$3,$4,$5,0*
20,1,$1,$2,$3,$4,$5,0*%
%AMCOMP150*
4,1,3,
-0.012795275590551183,-0.017716535433070866,
0.012795275590551183,-0.017716535433070866,
0.012795275590551183,0.017716535433070866,
-0.012795275590551183,0.017716535433070866,
0*
4,1,19,
-0.012795275590551183,-0.0078740157480314977,
-0.0097537697404040617,-0.0083557429498508518,
-0.0070099876742866826,-0.0097537697404040617,
-0.0048325098978843758,-0.011931247516806368,
-0.0034344831073311669,-0.014675029582923747,
-0.0029527559055118114,-0.017716535433070866,
-0.0034344831073311656,-0.020758041283217985,
-0.0048325098978843758,-0.023501823349335368,
-0.0070099876742866817,-0.025679301125737672,
-0.0097537697404040617,-0.027077327916290882,
-0.012795275590551181,-0.027559055118110236,
-0.015836781440698305,-0.027077327916290882,
-0.018580563506815681,-0.025679301125737675,
-0.020758041283217985,-0.023501823349335368,
-0.0221560680737712,-0.020758041283217992,
-0.022637795275590549,-0.017716535433070869,
-0.0221560680737712,-0.014675029582923748,
-0.020758041283217992,-0.011931247516806369,
-0.018580563506815684,-0.0097537697404040634,
-0.015836781440698305,-0.0083557429498508518,
0*
4,1,19,
0.012795275590551183,-0.0078740157480314977,
0.015836781440698302,-0.0083557429498508518,
0.018580563506815681,-0.0097537697404040617,
0.020758041283217985,-0.011931247516806368,
0.0221560680737712,-0.014675029582923747,
0.022637795275590549,-0.017716535433070866,
0.0221560680737712,-0.020758041283217985,
0.020758041283217985,-0.023501823349335368,
0.018580563506815681,-0.025679301125737672,
0.015836781440698302,-0.027077327916290882,
0.012795275590551184,-0.027559055118110236,
0.00975376974040406,-0.027077327916290882,
0.0070099876742866834,-0.025679301125737675,
0.0048325098978843775,-0.023501823349335368,
0.0034344831073311669,-0.020758041283217992,
0.0029527559055118114,-0.017716535433070869,
0.0034344831073311656,-0.014675029582923748,
0.0048325098978843749,-0.011931247516806369,
0.00700998767428668,-0.0097537697404040634,
0.00975376974040406,-0.0083557429498508518,
0*
4,1,19,
0.012795275590551183,0.027559055118110236,
0.015836781440698302,0.027077327916290882,
0.018580563506815681,0.025679301125737672,
0.020758041283217985,0.023501823349335368,
0.0221560680737712,0.020758041283217985,
0.022637795275590549,0.017716535433070866,
0.0221560680737712,0.014675029582923748,
0.020758041283217985,0.011931247516806368,
0.018580563506815681,0.0097537697404040634,
0.015836781440698302,0.0083557429498508518,
0.012795275590551184,0.0078740157480314977,
0.00975376974040406,0.0083557429498508518,
0.0070099876742866834,0.00975376974040406,
0.0048325098978843775,0.011931247516806368,
0.0034344831073311669,0.014675029582923745,
0.0029527559055118114,0.017716535433070866,
0.0034344831073311656,0.020758041283217985,
0.0048325098978843749,0.023501823349335368,
0.00700998767428668,0.025679301125737672,
0.00975376974040406,0.027077327916290882,
0*
4,1,19,
-0.012795275590551183,0.027559055118110236,
-0.0097537697404040617,0.027077327916290882,
-0.0070099876742866826,0.025679301125737672,
-0.0048325098978843758,0.023501823349335368,
-0.0034344831073311669,0.020758041283217985,
-0.0029527559055118114,0.017716535433070866,
-0.0034344831073311656,0.014675029582923748,
-0.0048325098978843758,0.011931247516806368,
-0.0070099876742866817,0.0097537697404040634,
-0.0097537697404040617,0.0083557429498508518,
-0.012795275590551181,0.0078740157480314977,
-0.015836781440698305,0.0083557429498508518,
-0.018580563506815681,0.00975376974040406,
-0.020758041283217985,0.011931247516806368,
-0.0221560680737712,0.014675029582923745,
-0.022637795275590549,0.017716535433070866,
-0.0221560680737712,0.020758041283217985,
-0.020758041283217992,0.023501823349335368,
-0.018580563506815684,0.025679301125737672,
-0.015836781440698305,0.027077327916290882,
0*
4,1,3,
-0.012795275590551183,-0.027559055118110236,
-0.012795275590551183,-0.0078740157480314977,
0.012795275590551183,-0.0078740157480314977,
0.012795275590551183,-0.027559055118110236,
0*
4,1,3,
0.022637795275590549,-0.017716535433070866,
0.0029527559055118114,-0.017716535433070866,
0.0029527559055118114,0.017716535433070866,
0.022637795275590549,0.017716535433070866,
0*
4,1,3,
0.012795275590551183,0.027559055118110236,
0.012795275590551183,0.0078740157480314977,
-0.012795275590551183,0.0078740157480314977,
-0.012795275590551183,0.027559055118110236,
0*
4,1,3,
-0.022637795275590549,0.017716535433070866,
-0.0029527559055118114,0.017716535433070866,
-0.0029527559055118114,-0.017716535433070866,
-0.022637795275590549,-0.017716535433070866,
0*%
%AMCOMP160*
4,1,3,
0.012795275590551183,0.017716535433070866,
-0.012795275590551183,0.017716535433070866,
-0.012795275590551183,-0.017716535433070866,
0.012795275590551183,-0.017716535433070866,
0*
4,1,19,
0.012795275590551183,0.027559055118110236,
0.015836781440698302,0.027077327916290882,
0.018580563506815681,0.025679301125737672,
0.020758041283217985,0.023501823349335368,
0.0221560680737712,0.020758041283217985,
0.022637795275590549,0.017716535433070866,
0.0221560680737712,0.014675029582923748,
0.020758041283217985,0.011931247516806368,
0.018580563506815681,0.0097537697404040634,
0.015836781440698302,0.0083557429498508518,
0.012795275590551184,0.0078740157480314977,
0.00975376974040406,0.0083557429498508518,
0.0070099876742866834,0.00975376974040406,
0.0048325098978843775,0.011931247516806368,
0.0034344831073311669,0.014675029582923745,
0.0029527559055118114,0.017716535433070866,
0.0034344831073311656,0.020758041283217985,
0.0048325098978843749,0.023501823349335368,
0.00700998767428668,0.025679301125737672,
0.00975376974040406,0.027077327916290882,
0*
4,1,19,
-0.012795275590551183,0.027559055118110236,
-0.0097537697404040617,0.027077327916290882,
-0.0070099876742866826,0.025679301125737672,
-0.0048325098978843758,0.023501823349335368,
-0.0034344831073311669,0.020758041283217985,
-0.0029527559055118114,0.017716535433070866,
-0.0034344831073311656,0.014675029582923748,
-0.0048325098978843758,0.011931247516806368,
-0.0070099876742866817,0.0097537697404040634,
-0.0097537697404040617,0.0083557429498508518,
-0.012795275590551181,0.0078740157480314977,
-0.015836781440698305,0.0083557429498508518,
-0.018580563506815681,0.00975376974040406,
-0.020758041283217985,0.011931247516806368,
-0.0221560680737712,0.014675029582923745,
-0.022637795275590549,0.017716535433070866,
-0.0221560680737712,0.020758041283217985,
-0.020758041283217992,0.023501823349335368,
-0.018580563506815684,0.025679301125737672,
-0.015836781440698305,0.027077327916290882,
0*
4,1,19,
-0.012795275590551183,-0.0078740157480314977,
-0.0097537697404040617,-0.0083557429498508518,
-0.0070099876742866826,-0.0097537697404040617,
-0.0048325098978843758,-0.011931247516806368,
-0.0034344831073311669,-0.014675029582923747,
-0.0029527559055118114,-0.017716535433070866,
-0.0034344831073311656,-0.020758041283217985,
-0.0048325098978843758,-0.023501823349335368,
-0.0070099876742866817,-0.025679301125737672,
-0.0097537697404040617,-0.027077327916290882,
-0.012795275590551181,-0.027559055118110236,
-0.015836781440698305,-0.027077327916290882,
-0.018580563506815681,-0.025679301125737675,
-0.020758041283217985,-0.023501823349335368,
-0.0221560680737712,-0.020758041283217992,
-0.022637795275590549,-0.017716535433070869,
-0.0221560680737712,-0.014675029582923748,
-0.020758041283217992,-0.011931247516806369,
-0.018580563506815684,-0.0097537697404040634,
-0.015836781440698305,-0.0083557429498508518,
0*
4,1,19,
0.012795275590551183,-0.0078740157480314977,
0.015836781440698302,-0.0083557429498508518,
0.018580563506815681,-0.0097537697404040617,
0.020758041283217985,-0.011931247516806368,
0.0221560680737712,-0.014675029582923747,
0.022637795275590549,-0.017716535433070866,
0.0221560680737712,-0.020758041283217985,
0.020758041283217985,-0.023501823349335368,
0.018580563506815681,-0.025679301125737672,
0.015836781440698302,-0.027077327916290882,
0.012795275590551184,-0.027559055118110236,
0.00975376974040406,-0.027077327916290882,
0.0070099876742866834,-0.025679301125737675,
0.0048325098978843775,-0.023501823349335368,
0.0034344831073311669,-0.020758041283217992,
0.0029527559055118114,-0.017716535433070869,
0.0034344831073311656,-0.014675029582923748,
0.0048325098978843749,-0.011931247516806369,
0.00700998767428668,-0.0097537697404040634,
0.00975376974040406,-0.0083557429498508518,
0*
4,1,3,
0.012795275590551183,0.027559055118110236,
0.012795275590551183,0.0078740157480314977,
-0.012795275590551183,0.0078740157480314977,
-0.012795275590551183,0.027559055118110236,
0*
4,1,3,
-0.022637795275590549,0.017716535433070866,
-0.0029527559055118114,0.017716535433070866,
-0.0029527559055118114,-0.017716535433070866,
-0.022637795275590549,-0.017716535433070866,
0*
4,1,3,
-0.012795275590551183,-0.027559055118110236,
-0.012795275590551183,-0.0078740157480314977,
0.012795275590551183,-0.0078740157480314977,
0.012795275590551183,-0.027559055118110236,
0*
4,1,3,
0.022637795275590549,-0.017716535433070866,
0.0029527559055118114,-0.017716535433070866,
0.0029527559055118114,0.017716535433070866,
0.022637795275590549,0.017716535433070866,
0*%
%AMRoundRect1*
4,1,4,
0.07874015748031496,0.11811023622047245,
0.15748031496062992,0.19685039370078741,
0.23622047244094491,0.27559055118110237,
0.31496062992125984,0.35433070866141736,
0.07874015748031496,0.11811023622047245,
0*
1,1,$1,$2,$3*
1,1,$1,$2,$3*
1,1,$1,$2,$3*
1,1,$1,$2,$3*
20,1,$1,$2,$3,$4,$5,0*
20,1,$1,$2,$3,$4,$5,0*
20,1,$1,$2,$3,$4,$5,0*
20,1,$1,$2,$3,$4,$5,0*%
%AMCOMP190*
4,1,3,
-0.012795275590551183,-0.017716535433070866,
0.012795275590551183,-0.017716535433070866,
0.012795275590551183,0.017716535433070866,
-0.012795275590551183,0.017716535433070866,
0*
4,1,19,
-0.012795275590551183,-0.0078740157480314977,
-0.0097537697404040617,-0.0083557429498508518,
-0.0070099876742866826,-0.0097537697404040617,
-0.0048325098978843758,-0.011931247516806368,
-0.0034344831073311669,-0.014675029582923747,
-0.0029527559055118114,-0.017716535433070866,
-0.0034344831073311656,-0.020758041283217985,
-0.0048325098978843758,-0.023501823349335368,
-0.0070099876742866817,-0.025679301125737672,
-0.0097537697404040617,-0.027077327916290882,
-0.012795275590551181,-0.027559055118110236,
-0.015836781440698305,-0.027077327916290882,
-0.018580563506815681,-0.025679301125737675,
-0.020758041283217985,-0.023501823349335368,
-0.0221560680737712,-0.020758041283217992,
-0.022637795275590549,-0.017716535433070869,
-0.0221560680737712,-0.014675029582923748,
-0.020758041283217992,-0.011931247516806369,
-0.018580563506815684,-0.0097537697404040634,
-0.015836781440698305,-0.0083557429498508518,
0*
4,1,19,
0.012795275590551183,-0.0078740157480314977,
0.015836781440698302,-0.0083557429498508518,
0.018580563506815681,-0.0097537697404040617,
0.020758041283217985,-0.011931247516806368,
0.0221560680737712,-0.014675029582923747,
0.022637795275590549,-0.017716535433070866,
0.0221560680737712,-0.020758041283217985,
0.020758041283217985,-0.023501823349335368,
0.018580563506815681,-0.025679301125737672,
0.015836781440698302,-0.027077327916290882,
0.012795275590551184,-0.027559055118110236,
0.00975376974040406,-0.027077327916290882,
0.0070099876742866834,-0.025679301125737675,
0.0048325098978843775,-0.023501823349335368,
0.0034344831073311669,-0.020758041283217992,
0.0029527559055118114,-0.017716535433070869,
0.0034344831073311656,-0.014675029582923748,
0.0048325098978843749,-0.011931247516806369,
0.00700998767428668,-0.0097537697404040634,
0.00975376974040406,-0.0083557429498508518,
0*
4,1,19,
0.012795275590551183,0.027559055118110236,
0.015836781440698302,0.027077327916290882,
0.018580563506815681,0.025679301125737672,
0.020758041283217985,0.023501823349335368,
0.0221560680737712,0.020758041283217985,
0.022637795275590549,0.017716535433070866,
0.0221560680737712,0.014675029582923748,
0.020758041283217985,0.011931247516806368,
0.018580563506815681,0.0097537697404040634,
0.015836781440698302,0.0083557429498508518,
0.012795275590551184,0.0078740157480314977,
0.00975376974040406,0.0083557429498508518,
0.0070099876742866834,0.00975376974040406,
0.0048325098978843775,0.011931247516806368,
0.0034344831073311669,0.014675029582923745,
0.0029527559055118114,0.017716535433070866,
0.0034344831073311656,0.020758041283217985,
0.0048325098978843749,0.023501823349335368,
0.00700998767428668,0.025679301125737672,
0.00975376974040406,0.027077327916290882,
0*
4,1,19,
-0.012795275590551183,0.027559055118110236,
-0.0097537697404040617,0.027077327916290882,
-0.0070099876742866826,0.025679301125737672,
-0.0048325098978843758,0.023501823349335368,
-0.0034344831073311669,0.020758041283217985,
-0.0029527559055118114,0.017716535433070866,
-0.0034344831073311656,0.014675029582923748,
-0.0048325098978843758,0.011931247516806368,
-0.0070099876742866817,0.0097537697404040634,
-0.0097537697404040617,0.0083557429498508518,
-0.012795275590551181,0.0078740157480314977,
-0.015836781440698305,0.0083557429498508518,
-0.018580563506815681,0.00975376974040406,
-0.020758041283217985,0.011931247516806368,
-0.0221560680737712,0.014675029582923745,
-0.022637795275590549,0.017716535433070866,
-0.0221560680737712,0.020758041283217985,
-0.020758041283217992,0.023501823349335368,
-0.018580563506815684,0.025679301125737672,
-0.015836781440698305,0.027077327916290882,
0*
4,1,3,
-0.012795275590551183,-0.027559055118110236,
-0.012795275590551183,-0.0078740157480314977,
0.012795275590551183,-0.0078740157480314977,
0.012795275590551183,-0.027559055118110236,
0*
4,1,3,
0.022637795275590549,-0.017716535433070866,
0.0029527559055118114,-0.017716535433070866,
0.0029527559055118114,0.017716535433070866,
0.022637795275590549,0.017716535433070866,
0*
4,1,3,
0.012795275590551183,0.027559055118110236,
0.012795275590551183,0.0078740157480314977,
-0.012795275590551183,0.0078740157480314977,
-0.012795275590551183,0.027559055118110236,
0*
4,1,3,
-0.022637795275590549,0.017716535433070866,
-0.0029527559055118114,0.017716535433070866,
-0.0029527559055118114,-0.017716535433070866,
-0.022637795275590549,-0.017716535433070866,
0*%
%AMCOMP200*
4,1,3,
0.012795275590551183,0.017716535433070866,
-0.012795275590551183,0.017716535433070866,
-0.012795275590551183,-0.017716535433070866,
0.012795275590551183,-0.017716535433070866,
0*
4,1,19,
0.012795275590551183,0.027559055118110236,
0.015836781440698302,0.027077327916290882,
0.018580563506815681,0.025679301125737672,
0.020758041283217985,0.023501823349335368,
0.0221560680737712,0.020758041283217985,
0.022637795275590549,0.017716535433070866,
0.0221560680737712,0.014675029582923748,
0.020758041283217985,0.011931247516806368,
0.018580563506815681,0.0097537697404040634,
0.015836781440698302,0.0083557429498508518,
0.012795275590551184,0.0078740157480314977,
0.00975376974040406,0.0083557429498508518,
0.0070099876742866834,0.00975376974040406,
0.0048325098978843775,0.011931247516806368,
0.0034344831073311669,0.014675029582923745,
0.0029527559055118114,0.017716535433070866,
0.0034344831073311656,0.020758041283217985,
0.0048325098978843749,0.023501823349335368,
0.00700998767428668,0.025679301125737672,
0.00975376974040406,0.027077327916290882,
0*
4,1,19,
-0.012795275590551183,0.027559055118110236,
-0.0097537697404040617,0.027077327916290882,
-0.0070099876742866826,0.025679301125737672,
-0.0048325098978843758,0.023501823349335368,
-0.0034344831073311669,0.020758041283217985,
-0.0029527559055118114,0.017716535433070866,
-0.0034344831073311656,0.014675029582923748,
-0.0048325098978843758,0.011931247516806368,
-0.0070099876742866817,0.0097537697404040634,
-0.0097537697404040617,0.0083557429498508518,
-0.012795275590551181,0.0078740157480314977,
-0.015836781440698305,0.0083557429498508518,
-0.018580563506815681,0.00975376974040406,
-0.020758041283217985,0.011931247516806368,
-0.0221560680737712,0.014675029582923745,
-0.022637795275590549,0.017716535433070866,
-0.0221560680737712,0.020758041283217985,
-0.020758041283217992,0.023501823349335368,
-0.018580563506815684,0.025679301125737672,
-0.015836781440698305,0.027077327916290882,
0*
4,1,19,
-0.012795275590551183,-0.0078740157480314977,
-0.0097537697404040617,-0.0083557429498508518,
-0.0070099876742866826,-0.0097537697404040617,
-0.0048325098978843758,-0.011931247516806368,
-0.0034344831073311669,-0.014675029582923747,
-0.0029527559055118114,-0.017716535433070866,
-0.0034344831073311656,-0.020758041283217985,
-0.0048325098978843758,-0.023501823349335368,
-0.0070099876742866817,-0.025679301125737672,
-0.0097537697404040617,-0.027077327916290882,
-0.012795275590551181,-0.027559055118110236,
-0.015836781440698305,-0.027077327916290882,
-0.018580563506815681,-0.025679301125737675,
-0.020758041283217985,-0.023501823349335368,
-0.0221560680737712,-0.020758041283217992,
-0.022637795275590549,-0.017716535433070869,
-0.0221560680737712,-0.014675029582923748,
-0.020758041283217992,-0.011931247516806369,
-0.018580563506815684,-0.0097537697404040634,
-0.015836781440698305,-0.0083557429498508518,
0*
4,1,19,
0.012795275590551183,-0.0078740157480314977,
0.015836781440698302,-0.0083557429498508518,
0.018580563506815681,-0.0097537697404040617,
0.020758041283217985,-0.011931247516806368,
0.0221560680737712,-0.014675029582923747,
0.022637795275590549,-0.017716535433070866,
0.0221560680737712,-0.020758041283217985,
0.020758041283217985,-0.023501823349335368,
0.018580563506815681,-0.025679301125737672,
0.015836781440698302,-0.027077327916290882,
0.012795275590551184,-0.027559055118110236,
0.00975376974040406,-0.027077327916290882,
0.0070099876742866834,-0.025679301125737675,
0.0048325098978843775,-0.023501823349335368,
0.0034344831073311669,-0.020758041283217992,
0.0029527559055118114,-0.017716535433070869,
0.0034344831073311656,-0.014675029582923748,
0.0048325098978843749,-0.011931247516806369,
0.00700998767428668,-0.0097537697404040634,
0.00975376974040406,-0.0083557429498508518,
0*
4,1,3,
0.012795275590551183,0.027559055118110236,
0.012795275590551183,0.0078740157480314977,
-0.012795275590551183,0.0078740157480314977,
-0.012795275590551183,0.027559055118110236,
0*
4,1,3,
-0.022637795275590549,0.017716535433070866,
-0.0029527559055118114,0.017716535433070866,
-0.0029527559055118114,-0.017716535433070866,
-0.022637795275590549,-0.017716535433070866,
0*
4,1,3,
-0.012795275590551183,-0.027559055118110236,
-0.012795275590551183,-0.0078740157480314977,
0.012795275590551183,-0.0078740157480314977,
0.012795275590551183,-0.027559055118110236,
0*
4,1,3,
0.022637795275590549,-0.017716535433070866,
0.0029527559055118114,-0.017716535433070866,
0.0029527559055118114,0.017716535433070866,
0.022637795275590549,0.017716535433070866,
0*%
%ADD10R,0.066929133858267723X0.066929133858267723*%
%ADD11O,0.066929133858267723X0.066929133858267723*%
%ADD12C,0.135*%
%ADD13C,0.08*%
%ADD14C,0.039000000000000007*%
%ADD15C,0.067*%
%AMCOMP21*
4,1,3,
-0.012795275590551183,-0.017716535433070866,
0.012795275590551183,-0.017716535433070866,
0.012795275590551183,0.017716535433070866,
-0.012795275590551183,0.017716535433070866,
0*
4,1,19,
-0.012795275590551183,-0.0078740157480314977,
-0.0097537697404040617,-0.0083557429498508518,
-0.0070099876742866826,-0.0097537697404040617,
-0.0048325098978843758,-0.011931247516806368,
-0.0034344831073311669,-0.014675029582923747,
-0.0029527559055118114,-0.017716535433070866,
-0.0034344831073311656,-0.020758041283217985,
-0.0048325098978843758,-0.023501823349335368,
-0.0070099876742866817,-0.025679301125737672,
-0.0097537697404040617,-0.027077327916290882,
-0.012795275590551181,-0.027559055118110236,
-0.015836781440698305,-0.027077327916290882,
-0.018580563506815681,-0.025679301125737675,
-0.020758041283217985,-0.023501823349335368,
-0.0221560680737712,-0.020758041283217992,
-0.022637795275590549,-0.017716535433070869,
-0.0221560680737712,-0.014675029582923748,
-0.020758041283217992,-0.011931247516806369,
-0.018580563506815684,-0.0097537697404040634,
-0.015836781440698305,-0.0083557429498508518,
0*
4,1,19,
0.012795275590551183,-0.0078740157480314977,
0.015836781440698302,-0.0083557429498508518,
0.018580563506815681,-0.0097537697404040617,
0.020758041283217985,-0.011931247516806368,
0.0221560680737712,-0.014675029582923747,
0.022637795275590549,-0.017716535433070866,
0.0221560680737712,-0.020758041283217985,
0.020758041283217985,-0.023501823349335368,
0.018580563506815681,-0.025679301125737672,
0.015836781440698302,-0.027077327916290882,
0.012795275590551184,-0.027559055118110236,
0.00975376974040406,-0.027077327916290882,
0.0070099876742866834,-0.025679301125737675,
0.0048325098978843775,-0.023501823349335368,
0.0034344831073311669,-0.020758041283217992,
0.0029527559055118114,-0.017716535433070869,
0.0034344831073311656,-0.014675029582923748,
0.0048325098978843749,-0.011931247516806369,
0.00700998767428668,-0.0097537697404040634,
0.00975376974040406,-0.0083557429498508518,
0*
4,1,19,
0.012795275590551183,0.027559055118110236,
0.015836781440698302,0.027077327916290882,
0.018580563506815681,0.025679301125737672,
0.020758041283217985,0.023501823349335368,
0.0221560680737712,0.020758041283217985,
0.022637795275590549,0.017716535433070866,
0.0221560680737712,0.014675029582923748,
0.020758041283217985,0.011931247516806368,
0.018580563506815681,0.0097537697404040634,
0.015836781440698302,0.0083557429498508518,
0.012795275590551184,0.0078740157480314977,
0.00975376974040406,0.0083557429498508518,
0.0070099876742866834,0.00975376974040406,
0.0048325098978843775,0.011931247516806368,
0.0034344831073311669,0.014675029582923745,
0.0029527559055118114,0.017716535433070866,
0.0034344831073311656,0.020758041283217985,
0.0048325098978843749,0.023501823349335368,
0.00700998767428668,0.025679301125737672,
0.00975376974040406,0.027077327916290882,
0*
4,1,19,
-0.012795275590551183,0.027559055118110236,
-0.0097537697404040617,0.027077327916290882,
-0.0070099876742866826,0.025679301125737672,
-0.0048325098978843758,0.023501823349335368,
-0.0034344831073311669,0.020758041283217985,
-0.0029527559055118114,0.017716535433070866,
-0.0034344831073311656,0.014675029582923748,
-0.0048325098978843758,0.011931247516806368,
-0.0070099876742866817,0.0097537697404040634,
-0.0097537697404040617,0.0083557429498508518,
-0.012795275590551181,0.0078740157480314977,
-0.015836781440698305,0.0083557429498508518,
-0.018580563506815681,0.00975376974040406,
-0.020758041283217985,0.011931247516806368,
-0.0221560680737712,0.014675029582923745,
-0.022637795275590549,0.017716535433070866,
-0.0221560680737712,0.020758041283217985,
-0.020758041283217992,0.023501823349335368,
-0.018580563506815684,0.025679301125737672,
-0.015836781440698305,0.027077327916290882,
0*
4,1,3,
-0.012795275590551183,-0.027559055118110236,
-0.012795275590551183,-0.0078740157480314977,
0.012795275590551183,-0.0078740157480314977,
0.012795275590551183,-0.027559055118110236,
0*
4,1,3,
0.022637795275590549,-0.017716535433070866,
0.0029527559055118114,-0.017716535433070866,
0.0029527559055118114,0.017716535433070866,
0.022637795275590549,0.017716535433070866,
0*
4,1,3,
0.012795275590551183,0.027559055118110236,
0.012795275590551183,0.0078740157480314977,
-0.012795275590551183,0.0078740157480314977,
-0.012795275590551183,0.027559055118110236,
0*
4,1,3,
-0.022637795275590549,0.017716535433070866,
-0.0029527559055118114,0.017716535433070866,
-0.0029527559055118114,-0.017716535433070866,
-0.022637795275590549,-0.017716535433070866,
0*%
%ADD16COMP21,0.25X-0.325X-0.45X0.325X-0.45X0.325X0.45X-0.325X0.45X0*%
%AMCOMP22*
4,1,3,
0.012795275590551183,0.017716535433070866,
-0.012795275590551183,0.017716535433070866,
-0.012795275590551183,-0.017716535433070866,
0.012795275590551183,-0.017716535433070866,
0*
4,1,19,
0.012795275590551183,0.027559055118110236,
0.015836781440698302,0.027077327916290882,
0.018580563506815681,0.025679301125737672,
0.020758041283217985,0.023501823349335368,
0.0221560680737712,0.020758041283217985,
0.022637795275590549,0.017716535433070866,
0.0221560680737712,0.014675029582923748,
0.020758041283217985,0.011931247516806368,
0.018580563506815681,0.0097537697404040634,
0.015836781440698302,0.0083557429498508518,
0.012795275590551184,0.0078740157480314977,
0.00975376974040406,0.0083557429498508518,
0.0070099876742866834,0.00975376974040406,
0.0048325098978843775,0.011931247516806368,
0.0034344831073311669,0.014675029582923745,
0.0029527559055118114,0.017716535433070866,
0.0034344831073311656,0.020758041283217985,
0.0048325098978843749,0.023501823349335368,
0.00700998767428668,0.025679301125737672,
0.00975376974040406,0.027077327916290882,
0*
4,1,19,
-0.012795275590551183,0.027559055118110236,
-0.0097537697404040617,0.027077327916290882,
-0.0070099876742866826,0.025679301125737672,
-0.0048325098978843758,0.023501823349335368,
-0.0034344831073311669,0.020758041283217985,
-0.0029527559055118114,0.017716535433070866,
-0.0034344831073311656,0.014675029582923748,
-0.0048325098978843758,0.011931247516806368,
-0.0070099876742866817,0.0097537697404040634,
-0.0097537697404040617,0.0083557429498508518,
-0.012795275590551181,0.0078740157480314977,
-0.015836781440698305,0.0083557429498508518,
-0.018580563506815681,0.00975376974040406,
-0.020758041283217985,0.011931247516806368,
-0.0221560680737712,0.014675029582923745,
-0.022637795275590549,0.017716535433070866,
-0.0221560680737712,0.020758041283217985,
-0.020758041283217992,0.023501823349335368,
-0.018580563506815684,0.025679301125737672,
-0.015836781440698305,0.027077327916290882,
0*
4,1,19,
-0.012795275590551183,-0.0078740157480314977,
-0.0097537697404040617,-0.0083557429498508518,
-0.0070099876742866826,-0.0097537697404040617,
-0.0048325098978843758,-0.011931247516806368,
-0.0034344831073311669,-0.014675029582923747,
-0.0029527559055118114,-0.017716535433070866,
-0.0034344831073311656,-0.020758041283217985,
-0.0048325098978843758,-0.023501823349335368,
-0.0070099876742866817,-0.025679301125737672,
-0.0097537697404040617,-0.027077327916290882,
-0.012795275590551181,-0.027559055118110236,
-0.015836781440698305,-0.027077327916290882,
-0.018580563506815681,-0.025679301125737675,
-0.020758041283217985,-0.023501823349335368,
-0.0221560680737712,-0.020758041283217992,
-0.022637795275590549,-0.017716535433070869,
-0.0221560680737712,-0.014675029582923748,
-0.020758041283217992,-0.011931247516806369,
-0.018580563506815684,-0.0097537697404040634,
-0.015836781440698305,-0.0083557429498508518,
0*
4,1,19,
0.012795275590551183,-0.0078740157480314977,
0.015836781440698302,-0.0083557429498508518,
0.018580563506815681,-0.0097537697404040617,
0.020758041283217985,-0.011931247516806368,
0.0221560680737712,-0.014675029582923747,
0.022637795275590549,-0.017716535433070866,
0.0221560680737712,-0.020758041283217985,
0.020758041283217985,-0.023501823349335368,
0.018580563506815681,-0.025679301125737672,
0.015836781440698302,-0.027077327916290882,
0.012795275590551184,-0.027559055118110236,
0.00975376974040406,-0.027077327916290882,
0.0070099876742866834,-0.025679301125737675,
0.0048325098978843775,-0.023501823349335368,
0.0034344831073311669,-0.020758041283217992,
0.0029527559055118114,-0.017716535433070869,
0.0034344831073311656,-0.014675029582923748,
0.0048325098978843749,-0.011931247516806369,
0.00700998767428668,-0.0097537697404040634,
0.00975376974040406,-0.0083557429498508518,
0*
4,1,3,
0.012795275590551183,0.027559055118110236,
0.012795275590551183,0.0078740157480314977,
-0.012795275590551183,0.0078740157480314977,
-0.012795275590551183,0.027559055118110236,
0*
4,1,3,
-0.022637795275590549,0.017716535433070866,
-0.0029527559055118114,0.017716535433070866,
-0.0029527559055118114,-0.017716535433070866,
-0.022637795275590549,-0.017716535433070866,
0*
4,1,3,
-0.012795275590551183,-0.027559055118110236,
-0.012795275590551183,-0.0078740157480314977,
0.012795275590551183,-0.0078740157480314977,
0.012795275590551183,-0.027559055118110236,
0*
4,1,3,
0.022637795275590549,-0.017716535433070866,
0.0029527559055118114,-0.017716535433070866,
0.0029527559055118114,0.017716535433070866,
0.022637795275590549,0.017716535433070866,
0*%
%ADD17COMP22,0.25X0.325X0.45X-0.325X0.45X-0.325X-0.45X0.325X-0.45X0*%
%ADD18C,0.17322834645669294*%
%ADD29R,0.066929133858267723X0.066929133858267723*%
%ADD30O,0.066929133858267723X0.066929133858267723*%
%ADD31C,0.135*%
%ADD32C,0.08*%
%ADD33C,0.039000000000000007*%
%ADD34C,0.067*%
%AMCOMP23*
4,1,3,
-0.012795275590551183,-0.017716535433070866,
0.012795275590551183,-0.017716535433070866,
0.012795275590551183,0.017716535433070866,
-0.012795275590551183,0.017716535433070866,
0*
4,1,19,
-0.012795275590551183,-0.0078740157480314977,
-0.0097537697404040617,-0.0083557429498508518,
-0.0070099876742866826,-0.0097537697404040617,
-0.0048325098978843758,-0.011931247516806368,
-0.0034344831073311669,-0.014675029582923747,
-0.0029527559055118114,-0.017716535433070866,
-0.0034344831073311656,-0.020758041283217985,
-0.0048325098978843758,-0.023501823349335368,
-0.0070099876742866817,-0.025679301125737672,
-0.0097537697404040617,-0.027077327916290882,
-0.012795275590551181,-0.027559055118110236,
-0.015836781440698305,-0.027077327916290882,
-0.018580563506815681,-0.025679301125737675,
-0.020758041283217985,-0.023501823349335368,
-0.0221560680737712,-0.020758041283217992,
-0.022637795275590549,-0.017716535433070869,
-0.0221560680737712,-0.014675029582923748,
-0.020758041283217992,-0.011931247516806369,
-0.018580563506815684,-0.0097537697404040634,
-0.015836781440698305,-0.0083557429498508518,
0*
4,1,19,
0.012795275590551183,-0.0078740157480314977,
0.015836781440698302,-0.0083557429498508518,
0.018580563506815681,-0.0097537697404040617,
0.020758041283217985,-0.011931247516806368,
0.0221560680737712,-0.014675029582923747,
0.022637795275590549,-0.017716535433070866,
0.0221560680737712,-0.020758041283217985,
0.020758041283217985,-0.023501823349335368,
0.018580563506815681,-0.025679301125737672,
0.015836781440698302,-0.027077327916290882,
0.012795275590551184,-0.027559055118110236,
0.00975376974040406,-0.027077327916290882,
0.0070099876742866834,-0.025679301125737675,
0.0048325098978843775,-0.023501823349335368,
0.0034344831073311669,-0.020758041283217992,
0.0029527559055118114,-0.017716535433070869,
0.0034344831073311656,-0.014675029582923748,
0.0048325098978843749,-0.011931247516806369,
0.00700998767428668,-0.0097537697404040634,
0.00975376974040406,-0.0083557429498508518,
0*
4,1,19,
0.012795275590551183,0.027559055118110236,
0.015836781440698302,0.027077327916290882,
0.018580563506815681,0.025679301125737672,
0.020758041283217985,0.023501823349335368,
0.0221560680737712,0.020758041283217985,
0.022637795275590549,0.017716535433070866,
0.0221560680737712,0.014675029582923748,
0.020758041283217985,0.011931247516806368,
0.018580563506815681,0.0097537697404040634,
0.015836781440698302,0.0083557429498508518,
0.012795275590551184,0.0078740157480314977,
0.00975376974040406,0.0083557429498508518,
0.0070099876742866834,0.00975376974040406,
0.0048325098978843775,0.011931247516806368,
0.0034344831073311669,0.014675029582923745,
0.0029527559055118114,0.017716535433070866,
0.0034344831073311656,0.020758041283217985,
0.0048325098978843749,0.023501823349335368,
0.00700998767428668,0.025679301125737672,
0.00975376974040406,0.027077327916290882,
0*
4,1,19,
-0.012795275590551183,0.027559055118110236,
-0.0097537697404040617,0.027077327916290882,
-0.0070099876742866826,0.025679301125737672,
-0.0048325098978843758,0.023501823349335368,
-0.0034344831073311669,0.020758041283217985,
-0.0029527559055118114,0.017716535433070866,
-0.0034344831073311656,0.014675029582923748,
-0.0048325098978843758,0.011931247516806368,
-0.0070099876742866817,0.0097537697404040634,
-0.0097537697404040617,0.0083557429498508518,
-0.012795275590551181,0.0078740157480314977,
-0.015836781440698305,0.0083557429498508518,
-0.018580563506815681,0.00975376974040406,
-0.020758041283217985,0.011931247516806368,
-0.0221560680737712,0.014675029582923745,
-0.022637795275590549,0.017716535433070866,
-0.0221560680737712,0.020758041283217985,
-0.020758041283217992,0.023501823349335368,
-0.018580563506815684,0.025679301125737672,
-0.015836781440698305,0.027077327916290882,
0*
4,1,3,
-0.012795275590551183,-0.027559055118110236,
-0.012795275590551183,-0.0078740157480314977,
0.012795275590551183,-0.0078740157480314977,
0.012795275590551183,-0.027559055118110236,
0*
4,1,3,
0.022637795275590549,-0.017716535433070866,
0.0029527559055118114,-0.017716535433070866,
0.0029527559055118114,0.017716535433070866,
0.022637795275590549,0.017716535433070866,
0*
4,1,3,
0.012795275590551183,0.027559055118110236,
0.012795275590551183,0.0078740157480314977,
-0.012795275590551183,0.0078740157480314977,
-0.012795275590551183,0.027559055118110236,
0*
4,1,3,
-0.022637795275590549,0.017716535433070866,
-0.0029527559055118114,0.017716535433070866,
-0.0029527559055118114,-0.017716535433070866,
-0.022637795275590549,-0.017716535433070866,
0*%
%ADD35COMP23,0.25X-0.325X-0.45X0.325X-0.45X0.325X0.45X-0.325X0.45X0*%
%AMCOMP24*
4,1,3,
0.012795275590551183,0.017716535433070866,
-0.012795275590551183,0.017716535433070866,
-0.012795275590551183,-0.017716535433070866,
0.012795275590551183,-0.017716535433070866,
0*
4,1,19,
0.012795275590551183,0.027559055118110236,
0.015836781440698302,0.027077327916290882,
0.018580563506815681,0.025679301125737672,
0.020758041283217985,0.023501823349335368,
0.0221560680737712,0.020758041283217985,
0.022637795275590549,0.017716535433070866,
0.0221560680737712,0.014675029582923748,
0.020758041283217985,0.011931247516806368,
0.018580563506815681,0.0097537697404040634,
0.015836781440698302,0.0083557429498508518,
0.012795275590551184,0.0078740157480314977,
0.00975376974040406,0.0083557429498508518,
0.0070099876742866834,0.00975376974040406,
0.0048325098978843775,0.011931247516806368,
0.0034344831073311669,0.014675029582923745,
0.0029527559055118114,0.017716535433070866,
0.0034344831073311656,0.020758041283217985,
0.0048325098978843749,0.023501823349335368,
0.00700998767428668,0.025679301125737672,
0.00975376974040406,0.027077327916290882,
0*
4,1,19,
-0.012795275590551183,0.027559055118110236,
-0.0097537697404040617,0.027077327916290882,
-0.0070099876742866826,0.025679301125737672,
-0.0048325098978843758,0.023501823349335368,
-0.0034344831073311669,0.020758041283217985,
-0.0029527559055118114,0.017716535433070866,
-0.0034344831073311656,0.014675029582923748,
-0.0048325098978843758,0.011931247516806368,
-0.0070099876742866817,0.0097537697404040634,
-0.0097537697404040617,0.0083557429498508518,
-0.012795275590551181,0.0078740157480314977,
-0.015836781440698305,0.0083557429498508518,
-0.018580563506815681,0.00975376974040406,
-0.020758041283217985,0.011931247516806368,
-0.0221560680737712,0.014675029582923745,
-0.022637795275590549,0.017716535433070866,
-0.0221560680737712,0.020758041283217985,
-0.020758041283217992,0.023501823349335368,
-0.018580563506815684,0.025679301125737672,
-0.015836781440698305,0.027077327916290882,
0*
4,1,19,
-0.012795275590551183,-0.0078740157480314977,
-0.0097537697404040617,-0.0083557429498508518,
-0.0070099876742866826,-0.0097537697404040617,
-0.0048325098978843758,-0.011931247516806368,
-0.0034344831073311669,-0.014675029582923747,
-0.0029527559055118114,-0.017716535433070866,
-0.0034344831073311656,-0.020758041283217985,
-0.0048325098978843758,-0.023501823349335368,
-0.0070099876742866817,-0.025679301125737672,
-0.0097537697404040617,-0.027077327916290882,
-0.012795275590551181,-0.027559055118110236,
-0.015836781440698305,-0.027077327916290882,
-0.018580563506815681,-0.025679301125737675,
-0.020758041283217985,-0.023501823349335368,
-0.0221560680737712,-0.020758041283217992,
-0.022637795275590549,-0.017716535433070869,
-0.0221560680737712,-0.014675029582923748,
-0.020758041283217992,-0.011931247516806369,
-0.018580563506815684,-0.0097537697404040634,
-0.015836781440698305,-0.0083557429498508518,
0*
4,1,19,
0.012795275590551183,-0.0078740157480314977,
0.015836781440698302,-0.0083557429498508518,
0.018580563506815681,-0.0097537697404040617,
0.020758041283217985,-0.011931247516806368,
0.0221560680737712,-0.014675029582923747,
0.022637795275590549,-0.017716535433070866,
0.0221560680737712,-0.020758041283217985,
0.020758041283217985,-0.023501823349335368,
0.018580563506815681,-0.025679301125737672,
0.015836781440698302,-0.027077327916290882,
0.012795275590551184,-0.027559055118110236,
0.00975376974040406,-0.027077327916290882,
0.0070099876742866834,-0.025679301125737675,
0.0048325098978843775,-0.023501823349335368,
0.0034344831073311669,-0.020758041283217992,
0.0029527559055118114,-0.017716535433070869,
0.0034344831073311656,-0.014675029582923748,
0.0048325098978843749,-0.011931247516806369,
0.00700998767428668,-0.0097537697404040634,
0.00975376974040406,-0.0083557429498508518,
0*
4,1,3,
0.012795275590551183,0.027559055118110236,
0.012795275590551183,0.0078740157480314977,
-0.012795275590551183,0.0078740157480314977,
-0.012795275590551183,0.027559055118110236,
0*
4,1,3,
-0.022637795275590549,0.017716535433070866,
-0.0029527559055118114,0.017716535433070866,
-0.0029527559055118114,-0.017716535433070866,
-0.022637795275590549,-0.017716535433070866,
0*
4,1,3,
-0.012795275590551183,-0.027559055118110236,
-0.012795275590551183,-0.0078740157480314977,
0.012795275590551183,-0.0078740157480314977,
0.012795275590551183,-0.027559055118110236,
0*
4,1,3,
0.022637795275590549,-0.017716535433070866,
0.0029527559055118114,-0.017716535433070866,
0.0029527559055118114,0.017716535433070866,
0.022637795275590549,0.017716535433070866,
0*%
%ADD36COMP24,0.25X0.325X0.45X-0.325X0.45X-0.325X-0.45X0.325X-0.45X0*%
%ADD37C,0.17322834645669294*%
%ADD38R,0.066929133858267723X0.066929133858267723*%
%ADD39O,0.066929133858267723X0.066929133858267723*%
%ADD40C,0.135*%
%ADD41C,0.08*%
%ADD42C,0.039000000000000007*%
%ADD43C,0.067*%
%AMCOMP25*
4,1,3,
-0.012795275590551183,-0.017716535433070866,
0.012795275590551183,-0.017716535433070866,
0.012795275590551183,0.017716535433070866,
-0.012795275590551183,0.017716535433070866,
0*
4,1,19,
-0.012795275590551183,-0.0078740157480314977,
-0.0097537697404040617,-0.0083557429498508518,
-0.0070099876742866826,-0.0097537697404040617,
-0.0048325098978843758,-0.011931247516806368,
-0.0034344831073311669,-0.014675029582923747,
-0.0029527559055118114,-0.017716535433070866,
-0.0034344831073311656,-0.020758041283217985,
-0.0048325098978843758,-0.023501823349335368,
-0.0070099876742866817,-0.025679301125737672,
-0.0097537697404040617,-0.027077327916290882,
-0.012795275590551181,-0.027559055118110236,
-0.015836781440698305,-0.027077327916290882,
-0.018580563506815681,-0.025679301125737675,
-0.020758041283217985,-0.023501823349335368,
-0.0221560680737712,-0.020758041283217992,
-0.022637795275590549,-0.017716535433070869,
-0.0221560680737712,-0.014675029582923748,
-0.020758041283217992,-0.011931247516806369,
-0.018580563506815684,-0.0097537697404040634,
-0.015836781440698305,-0.0083557429498508518,
0*
4,1,19,
0.012795275590551183,-0.0078740157480314977,
0.015836781440698302,-0.0083557429498508518,
0.018580563506815681,-0.0097537697404040617,
0.020758041283217985,-0.011931247516806368,
0.0221560680737712,-0.014675029582923747,
0.022637795275590549,-0.017716535433070866,
0.0221560680737712,-0.020758041283217985,
0.020758041283217985,-0.023501823349335368,
0.018580563506815681,-0.025679301125737672,
0.015836781440698302,-0.027077327916290882,
0.012795275590551184,-0.027559055118110236,
0.00975376974040406,-0.027077327916290882,
0.0070099876742866834,-0.025679301125737675,
0.0048325098978843775,-0.023501823349335368,
0.0034344831073311669,-0.020758041283217992,
0.0029527559055118114,-0.017716535433070869,
0.0034344831073311656,-0.014675029582923748,
0.0048325098978843749,-0.011931247516806369,
0.00700998767428668,-0.0097537697404040634,
0.00975376974040406,-0.0083557429498508518,
0*
4,1,19,
0.012795275590551183,0.027559055118110236,
0.015836781440698302,0.027077327916290882,
0.018580563506815681,0.025679301125737672,
0.020758041283217985,0.023501823349335368,
0.0221560680737712,0.020758041283217985,
0.022637795275590549,0.017716535433070866,
0.0221560680737712,0.014675029582923748,
0.020758041283217985,0.011931247516806368,
0.018580563506815681,0.0097537697404040634,
0.015836781440698302,0.0083557429498508518,
0.012795275590551184,0.0078740157480314977,
0.00975376974040406,0.0083557429498508518,
0.0070099876742866834,0.00975376974040406,
0.0048325098978843775,0.011931247516806368,
0.0034344831073311669,0.014675029582923745,
0.0029527559055118114,0.017716535433070866,
0.0034344831073311656,0.020758041283217985,
0.0048325098978843749,0.023501823349335368,
0.00700998767428668,0.025679301125737672,
0.00975376974040406,0.027077327916290882,
0*
4,1,19,
-0.012795275590551183,0.027559055118110236,
-0.0097537697404040617,0.027077327916290882,
-0.0070099876742866826,0.025679301125737672,
-0.0048325098978843758,0.023501823349335368,
-0.0034344831073311669,0.020758041283217985,
-0.0029527559055118114,0.017716535433070866,
-0.0034344831073311656,0.014675029582923748,
-0.0048325098978843758,0.011931247516806368,
-0.0070099876742866817,0.0097537697404040634,
-0.0097537697404040617,0.0083557429498508518,
-0.012795275590551181,0.0078740157480314977,
-0.015836781440698305,0.0083557429498508518,
-0.018580563506815681,0.00975376974040406,
-0.020758041283217985,0.011931247516806368,
-0.0221560680737712,0.014675029582923745,
-0.022637795275590549,0.017716535433070866,
-0.0221560680737712,0.020758041283217985,
-0.020758041283217992,0.023501823349335368,
-0.018580563506815684,0.025679301125737672,
-0.015836781440698305,0.027077327916290882,
0*
4,1,3,
-0.012795275590551183,-0.027559055118110236,
-0.012795275590551183,-0.0078740157480314977,
0.012795275590551183,-0.0078740157480314977,
0.012795275590551183,-0.027559055118110236,
0*
4,1,3,
0.022637795275590549,-0.017716535433070866,
0.0029527559055118114,-0.017716535433070866,
0.0029527559055118114,0.017716535433070866,
0.022637795275590549,0.017716535433070866,
0*
4,1,3,
0.012795275590551183,0.027559055118110236,
0.012795275590551183,0.0078740157480314977,
-0.012795275590551183,0.0078740157480314977,
-0.012795275590551183,0.027559055118110236,
0*
4,1,3,
-0.022637795275590549,0.017716535433070866,
-0.0029527559055118114,0.017716535433070866,
-0.0029527559055118114,-0.017716535433070866,
-0.022637795275590549,-0.017716535433070866,
0*%
%ADD44COMP25,0.25X-0.325X-0.45X0.325X-0.45X0.325X0.45X-0.325X0.45X0*%
%AMCOMP26*
4,1,3,
0.012795275590551183,0.017716535433070866,
-0.012795275590551183,0.017716535433070866,
-0.012795275590551183,-0.017716535433070866,
0.012795275590551183,-0.017716535433070866,
0*
4,1,19,
0.012795275590551183,0.027559055118110236,
0.015836781440698302,0.027077327916290882,
0.018580563506815681,0.025679301125737672,
0.020758041283217985,0.023501823349335368,
0.0221560680737712,0.020758041283217985,
0.022637795275590549,0.017716535433070866,
0.0221560680737712,0.014675029582923748,
0.020758041283217985,0.011931247516806368,
0.018580563506815681,0.0097537697404040634,
0.015836781440698302,0.0083557429498508518,
0.012795275590551184,0.0078740157480314977,
0.00975376974040406,0.0083557429498508518,
0.0070099876742866834,0.00975376974040406,
0.0048325098978843775,0.011931247516806368,
0.0034344831073311669,0.014675029582923745,
0.0029527559055118114,0.017716535433070866,
0.0034344831073311656,0.020758041283217985,
0.0048325098978843749,0.023501823349335368,
0.00700998767428668,0.025679301125737672,
0.00975376974040406,0.027077327916290882,
0*
4,1,19,
-0.012795275590551183,0.027559055118110236,
-0.0097537697404040617,0.027077327916290882,
-0.0070099876742866826,0.025679301125737672,
-0.0048325098978843758,0.023501823349335368,
-0.0034344831073311669,0.020758041283217985,
-0.0029527559055118114,0.017716535433070866,
-0.0034344831073311656,0.014675029582923748,
-0.0048325098978843758,0.011931247516806368,
-0.0070099876742866817,0.0097537697404040634,
-0.0097537697404040617,0.0083557429498508518,
-0.012795275590551181,0.0078740157480314977,
-0.015836781440698305,0.0083557429498508518,
-0.018580563506815681,0.00975376974040406,
-0.020758041283217985,0.011931247516806368,
-0.0221560680737712,0.014675029582923745,
-0.022637795275590549,0.017716535433070866,
-0.0221560680737712,0.020758041283217985,
-0.020758041283217992,0.023501823349335368,
-0.018580563506815684,0.025679301125737672,
-0.015836781440698305,0.027077327916290882,
0*
4,1,19,
-0.012795275590551183,-0.0078740157480314977,
-0.0097537697404040617,-0.0083557429498508518,
-0.0070099876742866826,-0.0097537697404040617,
-0.0048325098978843758,-0.011931247516806368,
-0.0034344831073311669,-0.014675029582923747,
-0.0029527559055118114,-0.017716535433070866,
-0.0034344831073311656,-0.020758041283217985,
-0.0048325098978843758,-0.023501823349335368,
-0.0070099876742866817,-0.025679301125737672,
-0.0097537697404040617,-0.027077327916290882,
-0.012795275590551181,-0.027559055118110236,
-0.015836781440698305,-0.027077327916290882,
-0.018580563506815681,-0.025679301125737675,
-0.020758041283217985,-0.023501823349335368,
-0.0221560680737712,-0.020758041283217992,
-0.022637795275590549,-0.017716535433070869,
-0.0221560680737712,-0.014675029582923748,
-0.020758041283217992,-0.011931247516806369,
-0.018580563506815684,-0.0097537697404040634,
-0.015836781440698305,-0.0083557429498508518,
0*
4,1,19,
0.012795275590551183,-0.0078740157480314977,
0.015836781440698302,-0.0083557429498508518,
0.018580563506815681,-0.0097537697404040617,
0.020758041283217985,-0.011931247516806368,
0.0221560680737712,-0.014675029582923747,
0.022637795275590549,-0.017716535433070866,
0.0221560680737712,-0.020758041283217985,
0.020758041283217985,-0.023501823349335368,
0.018580563506815681,-0.025679301125737672,
0.015836781440698302,-0.027077327916290882,
0.012795275590551184,-0.027559055118110236,
0.00975376974040406,-0.027077327916290882,
0.0070099876742866834,-0.025679301125737675,
0.0048325098978843775,-0.023501823349335368,
0.0034344831073311669,-0.020758041283217992,
0.0029527559055118114,-0.017716535433070869,
0.0034344831073311656,-0.014675029582923748,
0.0048325098978843749,-0.011931247516806369,
0.00700998767428668,-0.0097537697404040634,
0.00975376974040406,-0.0083557429498508518,
0*
4,1,3,
0.012795275590551183,0.027559055118110236,
0.012795275590551183,0.0078740157480314977,
-0.012795275590551183,0.0078740157480314977,
-0.012795275590551183,0.027559055118110236,
0*
4,1,3,
-0.022637795275590549,0.017716535433070866,
-0.0029527559055118114,0.017716535433070866,
-0.0029527559055118114,-0.017716535433070866,
-0.022637795275590549,-0.017716535433070866,
0*
4,1,3,
-0.012795275590551183,-0.027559055118110236,
-0.012795275590551183,-0.0078740157480314977,
0.012795275590551183,-0.0078740157480314977,
0.012795275590551183,-0.027559055118110236,
0*
4,1,3,
0.022637795275590549,-0.017716535433070866,
0.0029527559055118114,-0.017716535433070866,
0.0029527559055118114,0.017716535433070866,
0.022637795275590549,0.017716535433070866,
0*%
%ADD45COMP26,0.25X0.325X0.45X-0.325X0.45X-0.325X-0.45X0.325X-0.45X0*%
%ADD46C,0.17322834645669294*%
%ADD47R,0.066929133858267723X0.066929133858267723*%
%ADD48O,0.066929133858267723X0.066929133858267723*%
%ADD49C,0.135*%
%ADD50C,0.08*%
%ADD51C,0.039000000000000007*%
%ADD52C,0.067*%
%AMCOMP28*
4,1,3,
-0.012795275590551183,-0.017716535433070866,
0.012795275590551183,-0.017716535433070866,
0.012795275590551183,0.017716535433070866,
-0.012795275590551183,0.017716535433070866,
0*
4,1,19,
-0.012795275590551183,-0.0078740157480314977,
-0.0097537697404040617,-0.0083557429498508518,
-0.0070099876742866826,-0.0097537697404040617,
-0.0048325098978843758,-0.011931247516806368,
-0.0034344831073311669,-0.014675029582923747,
-0.0029527559055118114,-0.017716535433070866,
-0.0034344831073311656,-0.020758041283217985,
-0.0048325098978843758,-0.023501823349335368,
-0.0070099876742866817,-0.025679301125737672,
-0.0097537697404040617,-0.027077327916290882,
-0.012795275590551181,-0.027559055118110236,
-0.015836781440698305,-0.027077327916290882,
-0.018580563506815681,-0.025679301125737675,
-0.020758041283217985,-0.023501823349335368,
-0.0221560680737712,-0.020758041283217992,
-0.022637795275590549,-0.017716535433070869,
-0.0221560680737712,-0.014675029582923748,
-0.020758041283217992,-0.011931247516806369,
-0.018580563506815684,-0.0097537697404040634,
-0.015836781440698305,-0.0083557429498508518,
0*
4,1,19,
0.012795275590551183,-0.0078740157480314977,
0.015836781440698302,-0.0083557429498508518,
0.018580563506815681,-0.0097537697404040617,
0.020758041283217985,-0.011931247516806368,
0.0221560680737712,-0.014675029582923747,
0.022637795275590549,-0.017716535433070866,
0.0221560680737712,-0.020758041283217985,
0.020758041283217985,-0.023501823349335368,
0.018580563506815681,-0.025679301125737672,
0.015836781440698302,-0.027077327916290882,
0.012795275590551184,-0.027559055118110236,
0.00975376974040406,-0.027077327916290882,
0.0070099876742866834,-0.025679301125737675,
0.0048325098978843775,-0.023501823349335368,
0.0034344831073311669,-0.020758041283217992,
0.0029527559055118114,-0.017716535433070869,
0.0034344831073311656,-0.014675029582923748,
0.0048325098978843749,-0.011931247516806369,
0.00700998767428668,-0.0097537697404040634,
0.00975376974040406,-0.0083557429498508518,
0*
4,1,19,
0.012795275590551183,0.027559055118110236,
0.015836781440698302,0.027077327916290882,
0.018580563506815681,0.025679301125737672,
0.020758041283217985,0.023501823349335368,
0.0221560680737712,0.020758041283217985,
0.022637795275590549,0.017716535433070866,
0.0221560680737712,0.014675029582923748,
0.020758041283217985,0.011931247516806368,
0.018580563506815681,0.0097537697404040634,
0.015836781440698302,0.0083557429498508518,
0.012795275590551184,0.0078740157480314977,
0.00975376974040406,0.0083557429498508518,
0.0070099876742866834,0.00975376974040406,
0.0048325098978843775,0.011931247516806368,
0.0034344831073311669,0.014675029582923745,
0.0029527559055118114,0.017716535433070866,
0.0034344831073311656,0.020758041283217985,
0.0048325098978843749,0.023501823349335368,
0.00700998767428668,0.025679301125737672,
0.00975376974040406,0.027077327916290882,
0*
4,1,19,
-0.012795275590551183,0.027559055118110236,
-0.0097537697404040617,0.027077327916290882,
-0.0070099876742866826,0.025679301125737672,
-0.0048325098978843758,0.023501823349335368,
-0.0034344831073311669,0.020758041283217985,
-0.0029527559055118114,0.017716535433070866,
-0.0034344831073311656,0.014675029582923748,
-0.0048325098978843758,0.011931247516806368,
-0.0070099876742866817,0.0097537697404040634,
-0.0097537697404040617,0.0083557429498508518,
-0.012795275590551181,0.0078740157480314977,
-0.015836781440698305,0.0083557429498508518,
-0.018580563506815681,0.00975376974040406,
-0.020758041283217985,0.011931247516806368,
-0.0221560680737712,0.014675029582923745,
-0.022637795275590549,0.017716535433070866,
-0.0221560680737712,0.020758041283217985,
-0.020758041283217992,0.023501823349335368,
-0.018580563506815684,0.025679301125737672,
-0.015836781440698305,0.027077327916290882,
0*
4,1,3,
-0.012795275590551183,-0.027559055118110236,
-0.012795275590551183,-0.0078740157480314977,
0.012795275590551183,-0.0078740157480314977,
0.012795275590551183,-0.027559055118110236,
0*
4,1,3,
0.022637795275590549,-0.017716535433070866,
0.0029527559055118114,-0.017716535433070866,
0.0029527559055118114,0.017716535433070866,
0.022637795275590549,0.017716535433070866,
0*
4,1,3,
0.012795275590551183,0.027559055118110236,
0.012795275590551183,0.0078740157480314977,
-0.012795275590551183,0.0078740157480314977,
-0.012795275590551183,0.027559055118110236,
0*
4,1,3,
-0.022637795275590549,0.017716535433070866,
-0.0029527559055118114,0.017716535433070866,
-0.0029527559055118114,-0.017716535433070866,
-0.022637795275590549,-0.017716535433070866,
0*%
%ADD53COMP28,0.25X-0.325X-0.45X0.325X-0.45X0.325X0.45X-0.325X0.45X0*%
%AMCOMP30*
4,1,3,
0.012795275590551183,0.017716535433070866,
-0.012795275590551183,0.017716535433070866,
-0.012795275590551183,-0.017716535433070866,
0.012795275590551183,-0.017716535433070866,
0*
4,1,19,
0.012795275590551183,0.027559055118110236,
0.015836781440698302,0.027077327916290882,
0.018580563506815681,0.025679301125737672,
0.020758041283217985,0.023501823349335368,
0.0221560680737712,0.020758041283217985,
0.022637795275590549,0.017716535433070866,
0.0221560680737712,0.014675029582923748,
0.020758041283217985,0.011931247516806368,
0.018580563506815681,0.0097537697404040634,
0.015836781440698302,0.0083557429498508518,
0.012795275590551184,0.0078740157480314977,
0.00975376974040406,0.0083557429498508518,
0.0070099876742866834,0.00975376974040406,
0.0048325098978843775,0.011931247516806368,
0.0034344831073311669,0.014675029582923745,
0.0029527559055118114,0.017716535433070866,
0.0034344831073311656,0.020758041283217985,
0.0048325098978843749,0.023501823349335368,
0.00700998767428668,0.025679301125737672,
0.00975376974040406,0.027077327916290882,
0*
4,1,19,
-0.012795275590551183,0.027559055118110236,
-0.0097537697404040617,0.027077327916290882,
-0.0070099876742866826,0.025679301125737672,
-0.0048325098978843758,0.023501823349335368,
-0.0034344831073311669,0.020758041283217985,
-0.0029527559055118114,0.017716535433070866,
-0.0034344831073311656,0.014675029582923748,
-0.0048325098978843758,0.011931247516806368,
-0.0070099876742866817,0.0097537697404040634,
-0.0097537697404040617,0.0083557429498508518,
-0.012795275590551181,0.0078740157480314977,
-0.015836781440698305,0.0083557429498508518,
-0.018580563506815681,0.00975376974040406,
-0.020758041283217985,0.011931247516806368,
-0.0221560680737712,0.014675029582923745,
-0.022637795275590549,0.017716535433070866,
-0.0221560680737712,0.020758041283217985,
-0.020758041283217992,0.023501823349335368,
-0.018580563506815684,0.025679301125737672,
-0.015836781440698305,0.027077327916290882,
0*
4,1,19,
-0.012795275590551183,-0.0078740157480314977,
-0.0097537697404040617,-0.0083557429498508518,
-0.0070099876742866826,-0.0097537697404040617,
-0.0048325098978843758,-0.011931247516806368,
-0.0034344831073311669,-0.014675029582923747,
-0.0029527559055118114,-0.017716535433070866,
-0.0034344831073311656,-0.020758041283217985,
-0.0048325098978843758,-0.023501823349335368,
-0.0070099876742866817,-0.025679301125737672,
-0.0097537697404040617,-0.027077327916290882,
-0.012795275590551181,-0.027559055118110236,
-0.015836781440698305,-0.027077327916290882,
-0.018580563506815681,-0.025679301125737675,
-0.020758041283217985,-0.023501823349335368,
-0.0221560680737712,-0.020758041283217992,
-0.022637795275590549,-0.017716535433070869,
-0.0221560680737712,-0.014675029582923748,
-0.020758041283217992,-0.011931247516806369,
-0.018580563506815684,-0.0097537697404040634,
-0.015836781440698305,-0.0083557429498508518,
0*
4,1,19,
0.012795275590551183,-0.0078740157480314977,
0.015836781440698302,-0.0083557429498508518,
0.018580563506815681,-0.0097537697404040617,
0.020758041283217985,-0.011931247516806368,
0.0221560680737712,-0.014675029582923747,
0.022637795275590549,-0.017716535433070866,
0.0221560680737712,-0.020758041283217985,
0.020758041283217985,-0.023501823349335368,
0.018580563506815681,-0.025679301125737672,
0.015836781440698302,-0.027077327916290882,
0.012795275590551184,-0.027559055118110236,
0.00975376974040406,-0.027077327916290882,
0.0070099876742866834,-0.025679301125737675,
0.0048325098978843775,-0.023501823349335368,
0.0034344831073311669,-0.020758041283217992,
0.0029527559055118114,-0.017716535433070869,
0.0034344831073311656,-0.014675029582923748,
0.0048325098978843749,-0.011931247516806369,
0.00700998767428668,-0.0097537697404040634,
0.00975376974040406,-0.0083557429498508518,
0*
4,1,3,
0.012795275590551183,0.027559055118110236,
0.012795275590551183,0.0078740157480314977,
-0.012795275590551183,0.0078740157480314977,
-0.012795275590551183,0.027559055118110236,
0*
4,1,3,
-0.022637795275590549,0.017716535433070866,
-0.0029527559055118114,0.017716535433070866,
-0.0029527559055118114,-0.017716535433070866,
-0.022637795275590549,-0.017716535433070866,
0*
4,1,3,
-0.012795275590551183,-0.027559055118110236,
-0.012795275590551183,-0.0078740157480314977,
0.012795275590551183,-0.0078740157480314977,
0.012795275590551183,-0.027559055118110236,
0*
4,1,3,
0.022637795275590549,-0.017716535433070866,
0.0029527559055118114,-0.017716535433070866,
0.0029527559055118114,0.017716535433070866,
0.022637795275590549,0.017716535433070866,
0*%
%ADD54COMP30,0.25X0.325X0.45X-0.325X0.45X-0.325X-0.45X0.325X-0.45X0*%
%ADD55C,0.17322834645669294*%
%ADD56R,0.066929133858267723X0.066929133858267723*%
%ADD57O,0.066929133858267723X0.066929133858267723*%
%ADD58C,0.135*%
%ADD59C,0.08*%
%ADD60C,0.039000000000000007*%
%ADD61C,0.067*%
%AMCOMP32*
4,1,3,
-0.012795275590551183,-0.017716535433070866,
0.012795275590551183,-0.017716535433070866,
0.012795275590551183,0.017716535433070866,
-0.012795275590551183,0.017716535433070866,
0*
4,1,19,
-0.012795275590551183,-0.0078740157480314977,
-0.0097537697404040617,-0.0083557429498508518,
-0.0070099876742866826,-0.0097537697404040617,
-0.0048325098978843758,-0.011931247516806368,
-0.0034344831073311669,-0.014675029582923747,
-0.0029527559055118114,-0.017716535433070866,
-0.0034344831073311656,-0.020758041283217985,
-0.0048325098978843758,-0.023501823349335368,
-0.0070099876742866817,-0.025679301125737672,
-0.0097537697404040617,-0.027077327916290882,
-0.012795275590551181,-0.027559055118110236,
-0.015836781440698305,-0.027077327916290882,
-0.018580563506815681,-0.025679301125737675,
-0.020758041283217985,-0.023501823349335368,
-0.0221560680737712,-0.020758041283217992,
-0.022637795275590549,-0.017716535433070869,
-0.0221560680737712,-0.014675029582923748,
-0.020758041283217992,-0.011931247516806369,
-0.018580563506815684,-0.0097537697404040634,
-0.015836781440698305,-0.0083557429498508518,
0*
4,1,19,
0.012795275590551183,-0.0078740157480314977,
0.015836781440698302,-0.0083557429498508518,
0.018580563506815681,-0.0097537697404040617,
0.020758041283217985,-0.011931247516806368,
0.0221560680737712,-0.014675029582923747,
0.022637795275590549,-0.017716535433070866,
0.0221560680737712,-0.020758041283217985,
0.020758041283217985,-0.023501823349335368,
0.018580563506815681,-0.025679301125737672,
0.015836781440698302,-0.027077327916290882,
0.012795275590551184,-0.027559055118110236,
0.00975376974040406,-0.027077327916290882,
0.0070099876742866834,-0.025679301125737675,
0.0048325098978843775,-0.023501823349335368,
0.0034344831073311669,-0.020758041283217992,
0.0029527559055118114,-0.017716535433070869,
0.0034344831073311656,-0.014675029582923748,
0.0048325098978843749,-0.011931247516806369,
0.00700998767428668,-0.0097537697404040634,
0.00975376974040406,-0.0083557429498508518,
0*
4,1,19,
0.012795275590551183,0.027559055118110236,
0.015836781440698302,0.027077327916290882,
0.018580563506815681,0.025679301125737672,
0.020758041283217985,0.023501823349335368,
0.0221560680737712,0.020758041283217985,
0.022637795275590549,0.017716535433070866,
0.0221560680737712,0.014675029582923748,
0.020758041283217985,0.011931247516806368,
0.018580563506815681,0.0097537697404040634,
0.015836781440698302,0.0083557429498508518,
0.012795275590551184,0.0078740157480314977,
0.00975376974040406,0.0083557429498508518,
0.0070099876742866834,0.00975376974040406,
0.0048325098978843775,0.011931247516806368,
0.0034344831073311669,0.014675029582923745,
0.0029527559055118114,0.017716535433070866,
0.0034344831073311656,0.020758041283217985,
0.0048325098978843749,0.023501823349335368,
0.00700998767428668,0.025679301125737672,
0.00975376974040406,0.027077327916290882,
0*
4,1,19,
-0.012795275590551183,0.027559055118110236,
-0.0097537697404040617,0.027077327916290882,
-0.0070099876742866826,0.025679301125737672,
-0.0048325098978843758,0.023501823349335368,
-0.0034344831073311669,0.020758041283217985,
-0.0029527559055118114,0.017716535433070866,
-0.0034344831073311656,0.014675029582923748,
-0.0048325098978843758,0.011931247516806368,
-0.0070099876742866817,0.0097537697404040634,
-0.0097537697404040617,0.0083557429498508518,
-0.012795275590551181,0.0078740157480314977,
-0.015836781440698305,0.0083557429498508518,
-0.018580563506815681,0.00975376974040406,
-0.020758041283217985,0.011931247516806368,
-0.0221560680737712,0.014675029582923745,
-0.022637795275590549,0.017716535433070866,
-0.0221560680737712,0.020758041283217985,
-0.020758041283217992,0.023501823349335368,
-0.018580563506815684,0.025679301125737672,
-0.015836781440698305,0.027077327916290882,
0*
4,1,3,
-0.012795275590551183,-0.027559055118110236,
-0.012795275590551183,-0.0078740157480314977,
0.012795275590551183,-0.0078740157480314977,
0.012795275590551183,-0.027559055118110236,
0*
4,1,3,
0.022637795275590549,-0.017716535433070866,
0.0029527559055118114,-0.017716535433070866,
0.0029527559055118114,0.017716535433070866,
0.022637795275590549,0.017716535433070866,
0*
4,1,3,
0.012795275590551183,0.027559055118110236,
0.012795275590551183,0.0078740157480314977,
-0.012795275590551183,0.0078740157480314977,
-0.012795275590551183,0.027559055118110236,
0*
4,1,3,
-0.022637795275590549,0.017716535433070866,
-0.0029527559055118114,0.017716535433070866,
-0.0029527559055118114,-0.017716535433070866,
-0.022637795275590549,-0.017716535433070866,
0*%
%ADD62COMP32,0.25X-0.325X-0.45X0.325X-0.45X0.325X0.45X-0.325X0.45X0*%
%AMCOMP34*
4,1,3,
0.012795275590551183,0.017716535433070866,
-0.012795275590551183,0.017716535433070866,
-0.012795275590551183,-0.017716535433070866,
0.012795275590551183,-0.017716535433070866,
0*
4,1,19,
0.012795275590551183,0.027559055118110236,
0.015836781440698302,0.027077327916290882,
0.018580563506815681,0.025679301125737672,
0.020758041283217985,0.023501823349335368,
0.0221560680737712,0.020758041283217985,
0.022637795275590549,0.017716535433070866,
0.0221560680737712,0.014675029582923748,
0.020758041283217985,0.011931247516806368,
0.018580563506815681,0.0097537697404040634,
0.015836781440698302,0.0083557429498508518,
0.012795275590551184,0.0078740157480314977,
0.00975376974040406,0.0083557429498508518,
0.0070099876742866834,0.00975376974040406,
0.0048325098978843775,0.011931247516806368,
0.0034344831073311669,0.014675029582923745,
0.0029527559055118114,0.017716535433070866,
0.0034344831073311656,0.020758041283217985,
0.0048325098978843749,0.023501823349335368,
0.00700998767428668,0.025679301125737672,
0.00975376974040406,0.027077327916290882,
0*
4,1,19,
-0.012795275590551183,0.027559055118110236,
-0.0097537697404040617,0.027077327916290882,
-0.0070099876742866826,0.025679301125737672,
-0.0048325098978843758,0.023501823349335368,
-0.0034344831073311669,0.020758041283217985,
-0.0029527559055118114,0.017716535433070866,
-0.0034344831073311656,0.014675029582923748,
-0.0048325098978843758,0.011931247516806368,
-0.0070099876742866817,0.0097537697404040634,
-0.0097537697404040617,0.0083557429498508518,
-0.012795275590551181,0.0078740157480314977,
-0.015836781440698305,0.0083557429498508518,
-0.018580563506815681,0.00975376974040406,
-0.020758041283217985,0.011931247516806368,
-0.0221560680737712,0.014675029582923745,
-0.022637795275590549,0.017716535433070866,
-0.0221560680737712,0.020758041283217985,
-0.020758041283217992,0.023501823349335368,
-0.018580563506815684,0.025679301125737672,
-0.015836781440698305,0.027077327916290882,
0*
4,1,19,
-0.012795275590551183,-0.0078740157480314977,
-0.0097537697404040617,-0.0083557429498508518,
-0.0070099876742866826,-0.0097537697404040617,
-0.0048325098978843758,-0.011931247516806368,
-0.0034344831073311669,-0.014675029582923747,
-0.0029527559055118114,-0.017716535433070866,
-0.0034344831073311656,-0.020758041283217985,
-0.0048325098978843758,-0.023501823349335368,
-0.0070099876742866817,-0.025679301125737672,
-0.0097537697404040617,-0.027077327916290882,
-0.012795275590551181,-0.027559055118110236,
-0.015836781440698305,-0.027077327916290882,
-0.018580563506815681,-0.025679301125737675,
-0.020758041283217985,-0.023501823349335368,
-0.0221560680737712,-0.020758041283217992,
-0.022637795275590549,-0.017716535433070869,
-0.0221560680737712,-0.014675029582923748,
-0.020758041283217992,-0.011931247516806369,
-0.018580563506815684,-0.0097537697404040634,
-0.015836781440698305,-0.0083557429498508518,
0*
4,1,19,
0.012795275590551183,-0.0078740157480314977,
0.015836781440698302,-0.0083557429498508518,
0.018580563506815681,-0.0097537697404040617,
0.020758041283217985,-0.011931247516806368,
0.0221560680737712,-0.014675029582923747,
0.022637795275590549,-0.017716535433070866,
0.0221560680737712,-0.020758041283217985,
0.020758041283217985,-0.023501823349335368,
0.018580563506815681,-0.025679301125737672,
0.015836781440698302,-0.027077327916290882,
0.012795275590551184,-0.027559055118110236,
0.00975376974040406,-0.027077327916290882,
0.0070099876742866834,-0.025679301125737675,
0.0048325098978843775,-0.023501823349335368,
0.0034344831073311669,-0.020758041283217992,
0.0029527559055118114,-0.017716535433070869,
0.0034344831073311656,-0.014675029582923748,
0.0048325098978843749,-0.011931247516806369,
0.00700998767428668,-0.0097537697404040634,
0.00975376974040406,-0.0083557429498508518,
0*
4,1,3,
0.012795275590551183,0.027559055118110236,
0.012795275590551183,0.0078740157480314977,
-0.012795275590551183,0.0078740157480314977,
-0.012795275590551183,0.027559055118110236,
0*
4,1,3,
-0.022637795275590549,0.017716535433070866,
-0.0029527559055118114,0.017716535433070866,
-0.0029527559055118114,-0.017716535433070866,
-0.022637795275590549,-0.017716535433070866,
0*
4,1,3,
-0.012795275590551183,-0.027559055118110236,
-0.012795275590551183,-0.0078740157480314977,
0.012795275590551183,-0.0078740157480314977,
0.012795275590551183,-0.027559055118110236,
0*
4,1,3,
0.022637795275590549,-0.017716535433070866,
0.0029527559055118114,-0.017716535433070866,
0.0029527559055118114,0.017716535433070866,
0.022637795275590549,0.017716535433070866,
0*%
%ADD63COMP34,0.25X0.325X0.45X-0.325X0.45X-0.325X-0.45X0.325X-0.45X0*%
%ADD64C,0.17322834645669294*%
G01*
D10*
X-0005905511Y0004114173D02*
X0000492125Y0002913385D03*
D11*
X0000392125Y0002913385D03*
X0000292125Y0002913385D03*
X0000192125Y0002913385D03*
X0000092125Y0002913385D03*
D12*
X0000295275Y0002539370D03*
D13*
X0000098425Y0002389763D03*
X0000295275Y0002307086D03*
D14*
X0000500787Y0002704724D03*
D15*
X0000511811Y0002539370D03*
X0000078740Y0002539370D03*
D16*
X0000333661Y0000433070D03*
X0000414370Y0000433070D03*
X0000332677Y0001181102D03*
X0000413385Y0001181102D03*
D17*
X0000257874Y0001653543D03*
X0000177165Y0001653543D03*
X0000177165Y0002401574D03*
X0000257874Y0002401574D03*
D18*
X0000295275Y0000669291D03*
X0000295275Y0001417322D03*
X0000295275Y0002165354D03*
D12*
X0000295275Y0000295275D03*
D13*
X0000492125Y0000444881D03*
X0000295275Y0000527559D03*
D14*
X0000089763Y0000129921D03*
D15*
X0000078740Y0000295275D03*
X0000511811Y0000295275D03*
D12*
X0000295275Y0001043307D03*
D13*
X0000492125Y0001192913D03*
X0000295275Y0001275590D03*
D14*
X0000089763Y0000877952D03*
D15*
X0000078740Y0001043307D03*
X0000511811Y0001043307D03*
D12*
X0000295275Y0001791338D03*
D13*
X0000098425Y0001641732D03*
X0000295275Y0001559055D03*
D14*
X0000500787Y0001956692D03*
D15*
X0000511811Y0001791338D03*
X0000078740Y0001791338D03*
G04 next file*
G04 #@! TF.GenerationSoftware,KiCad,Pcbnew,7.0.2*
G04 #@! TF.CreationDate,2023-05-08T17:21:18+01:00*
G04 #@! TF.ProjectId,heron,6865726f-6e2e-46b6-9963-61645f706362,rev?*
G04 #@! TF.SameCoordinates,Original*
G04 #@! TF.FileFunction,Soldermask,Bot*
G04 #@! TF.FilePolarity,Negative*
G04 Gerber Fmt 4.6, Leading zero omitted, Abs format (unit mm)*
G04 Created by KiCad (PCBNEW 7.0.2) date 2023-05-08 17:21:18*
G01*
G04 APERTURE LIST*
G04 Aperture macros list*
G04 Aperture macros list end*
G04 APERTURE END LIST*
D29*
G04 #@! TO.C,J1*
X-0005236220Y0004114173D02*
X0001161417Y0002913385D03*
D30*
X0001061417Y0002913385D03*
X0000961417Y0002913385D03*
X0000861417Y0002913385D03*
X0000761417Y0002913385D03*
G04 #@! TD*
D31*
G04 #@! TO.C,SW1*
X0000964566Y0002539370D03*
D32*
X0000767716Y0002389763D03*
X0000964566Y0002307086D03*
D33*
X0001170078Y0002704724D03*
D34*
X0001181102Y0002539370D03*
X0000748031Y0002539370D03*
G04 #@! TD*
D35*
G04 #@! TO.C,D4*
X0001002952Y0000433070D03*
X0001083661Y0000433070D03*
G04 #@! TD*
G04 #@! TO.C,D3*
X0001001968Y0001181102D03*
X0001082677Y0001181102D03*
G04 #@! TD*
D36*
G04 #@! TO.C,D2*
X0000927165Y0001653543D03*
X0000846456Y0001653543D03*
G04 #@! TD*
G04 #@! TO.C,D1*
X0000846456Y0002401574D03*
X0000927165Y0002401574D03*
G04 #@! TD*
D37*
G04 #@! TO.C,H3*
X0000964566Y0000669291D03*
G04 #@! TD*
G04 #@! TO.C,H2*
X0000964566Y0001417322D03*
G04 #@! TD*
G04 #@! TO.C,H1*
X0000964566Y0002165354D03*
G04 #@! TD*
D31*
G04 #@! TO.C,SW4*
X0000964566Y0000295275D03*
D32*
X0001161417Y0000444881D03*
X0000964566Y0000527559D03*
D33*
X0000759055Y0000129921D03*
D34*
X0000748031Y0000295275D03*
X0001181102Y0000295275D03*
G04 #@! TD*
D31*
G04 #@! TO.C,SW3*
X0000964566Y0001043307D03*
D32*
X0001161417Y0001192913D03*
X0000964566Y0001275590D03*
D33*
X0000759055Y0000877952D03*
D34*
X0000748031Y0001043307D03*
X0001181102Y0001043307D03*
G04 #@! TD*
D31*
G04 #@! TO.C,SW2*
X0000964566Y0001791338D03*
D32*
X0000767716Y0001641732D03*
X0000964566Y0001559055D03*
D33*
X0001170078Y0001956692D03*
D34*
X0001181102Y0001791338D03*
X0000748031Y0001791338D03*
G04 #@! TD*
G04 next file*
G04 #@! TF.GenerationSoftware,KiCad,Pcbnew,7.0.2*
G04 #@! TF.CreationDate,2023-05-08T17:21:18+01:00*
G04 #@! TF.ProjectId,heron,6865726f-6e2e-46b6-9963-61645f706362,rev?*
G04 #@! TF.SameCoordinates,Original*
G04 #@! TF.FileFunction,Soldermask,Bot*
G04 #@! TF.FilePolarity,Negative*
G04 Gerber Fmt 4.6, Leading zero omitted, Abs format (unit mm)*
G04 Created by KiCad (PCBNEW 7.0.2) date 2023-05-08 17:21:18*
G01*
G04 APERTURE LIST*
G04 Aperture macros list*
G04 Aperture macros list end*
G04 APERTURE END LIST*
D38*
G04 #@! TO.C,J1*
X-0004566929Y0004114173D02*
X0001830708Y0002913385D03*
D39*
X0001730708Y0002913385D03*
X0001630708Y0002913385D03*
X0001530708Y0002913385D03*
X0001430708Y0002913385D03*
G04 #@! TD*
D40*
G04 #@! TO.C,SW1*
X0001633858Y0002539370D03*
D41*
X0001437007Y0002389763D03*
X0001633858Y0002307086D03*
D42*
X0001839370Y0002704724D03*
D43*
X0001850393Y0002539370D03*
X0001417322Y0002539370D03*
G04 #@! TD*
D44*
G04 #@! TO.C,D4*
X0001672244Y0000433070D03*
X0001752952Y0000433070D03*
G04 #@! TD*
G04 #@! TO.C,D3*
X0001671259Y0001181102D03*
X0001751968Y0001181102D03*
G04 #@! TD*
D45*
G04 #@! TO.C,D2*
X0001596456Y0001653543D03*
X0001515748Y0001653543D03*
G04 #@! TD*
G04 #@! TO.C,D1*
X0001515748Y0002401574D03*
X0001596456Y0002401574D03*
G04 #@! TD*
D46*
G04 #@! TO.C,H3*
X0001633858Y0000669291D03*
G04 #@! TD*
G04 #@! TO.C,H2*
X0001633858Y0001417322D03*
G04 #@! TD*
G04 #@! TO.C,H1*
X0001633858Y0002165354D03*
G04 #@! TD*
D40*
G04 #@! TO.C,SW4*
X0001633858Y0000295275D03*
D41*
X0001830708Y0000444881D03*
X0001633858Y0000527559D03*
D42*
X0001428346Y0000129921D03*
D43*
X0001417322Y0000295275D03*
X0001850393Y0000295275D03*
G04 #@! TD*
D40*
G04 #@! TO.C,SW3*
X0001633858Y0001043307D03*
D41*
X0001830708Y0001192913D03*
X0001633858Y0001275590D03*
D42*
X0001428346Y0000877952D03*
D43*
X0001417322Y0001043307D03*
X0001850393Y0001043307D03*
G04 #@! TD*
D40*
G04 #@! TO.C,SW2*
X0001633858Y0001791338D03*
D41*
X0001437007Y0001641732D03*
X0001633858Y0001559055D03*
D42*
X0001839370Y0001956692D03*
D43*
X0001850393Y0001791338D03*
X0001417322Y0001791338D03*
G04 #@! TD*
G04 next file*
G04 #@! TF.GenerationSoftware,KiCad,Pcbnew,7.0.2*
G04 #@! TF.CreationDate,2023-05-08T17:21:18+01:00*
G04 #@! TF.ProjectId,heron,6865726f-6e2e-46b6-9963-61645f706362,rev?*
G04 #@! TF.SameCoordinates,Original*
G04 #@! TF.FileFunction,Soldermask,Bot*
G04 #@! TF.FilePolarity,Negative*
G04 Gerber Fmt 4.6, Leading zero omitted, Abs format (unit mm)*
G04 Created by KiCad (PCBNEW 7.0.2) date 2023-05-08 17:21:18*
G01*
G04 APERTURE LIST*
G04 Aperture macros list*
G04 Aperture macros list end*
G04 APERTURE END LIST*
D47*
G04 #@! TO.C,J1*
X-0003897637Y0004114173D02*
X0002500000Y0002913385D03*
D48*
X0002400000Y0002913385D03*
X0002299999Y0002913385D03*
X0002199999Y0002913385D03*
X0002100000Y0002913385D03*
G04 #@! TD*
D49*
G04 #@! TO.C,SW1*
X0002303149Y0002539370D03*
D50*
X0002106299Y0002389763D03*
X0002303149Y0002307086D03*
D51*
X0002508661Y0002704724D03*
D52*
X0002519685Y0002539370D03*
X0002086614Y0002539370D03*
G04 #@! TD*
D53*
G04 #@! TO.C,D4*
X0002341535Y0000433070D03*
X0002422244Y0000433070D03*
G04 #@! TD*
G04 #@! TO.C,D3*
X0002340551Y0001181102D03*
X0002421259Y0001181102D03*
G04 #@! TD*
D54*
G04 #@! TO.C,D2*
X0002265748Y0001653543D03*
X0002185039Y0001653543D03*
G04 #@! TD*
G04 #@! TO.C,D1*
X0002185039Y0002401574D03*
X0002265748Y0002401574D03*
G04 #@! TD*
D55*
G04 #@! TO.C,H3*
X0002303149Y0000669291D03*
G04 #@! TD*
G04 #@! TO.C,H2*
X0002303149Y0001417322D03*
G04 #@! TD*
G04 #@! TO.C,H1*
X0002303149Y0002165354D03*
G04 #@! TD*
D49*
G04 #@! TO.C,SW4*
X0002303149Y0000295275D03*
D50*
X0002500000Y0000444881D03*
X0002303149Y0000527559D03*
D51*
X0002097637Y0000129921D03*
D52*
X0002086614Y0000295275D03*
X0002519685Y0000295275D03*
G04 #@! TD*
D49*
G04 #@! TO.C,SW3*
X0002303149Y0001043307D03*
D50*
X0002500000Y0001192913D03*
X0002303149Y0001275590D03*
D51*
X0002097637Y0000877952D03*
D52*
X0002086614Y0001043307D03*
X0002519685Y0001043307D03*
G04 #@! TD*
D49*
G04 #@! TO.C,SW2*
X0002303149Y0001791338D03*
D50*
X0002106299Y0001641732D03*
X0002303149Y0001559055D03*
D51*
X0002508661Y0001956692D03*
D52*
X0002519685Y0001791338D03*
X0002086614Y0001791338D03*
G04 #@! TD*
G04 next file*
G04 #@! TF.GenerationSoftware,KiCad,Pcbnew,7.0.2*
G04 #@! TF.CreationDate,2023-05-08T17:21:18+01:00*
G04 #@! TF.ProjectId,heron,6865726f-6e2e-46b6-9963-61645f706362,rev?*
G04 #@! TF.SameCoordinates,Original*
G04 #@! TF.FileFunction,Soldermask,Bot*
G04 #@! TF.FilePolarity,Negative*
G04 Gerber Fmt 4.6, Leading zero omitted, Abs format (unit mm)*
G04 Created by KiCad (PCBNEW 7.0.2) date 2023-05-08 17:21:18*
G01*
G04 APERTURE LIST*
G04 Aperture macros list*
G04 Aperture macros list end*
G04 APERTURE END LIST*
D56*
G04 #@! TO.C,J1*
X-0003228346Y0004114173D02*
X0003169291Y0002913385D03*
D57*
X0003069291Y0002913385D03*
X0002969291Y0002913385D03*
X0002869291Y0002913385D03*
X0002769291Y0002913385D03*
G04 #@! TD*
D58*
G04 #@! TO.C,SW1*
X0002972440Y0002539370D03*
D59*
X0002775590Y0002389763D03*
X0002972440Y0002307086D03*
D60*
X0003177952Y0002704724D03*
D61*
X0003188976Y0002539370D03*
X0002755905Y0002539370D03*
G04 #@! TD*
D62*
G04 #@! TO.C,D4*
X0003010826Y0000433070D03*
X0003091535Y0000433070D03*
G04 #@! TD*
G04 #@! TO.C,D3*
X0003009842Y0001181102D03*
X0003090551Y0001181102D03*
G04 #@! TD*
D63*
G04 #@! TO.C,D2*
X0002935039Y0001653543D03*
X0002854330Y0001653543D03*
G04 #@! TD*
G04 #@! TO.C,D1*
X0002854330Y0002401574D03*
X0002935039Y0002401574D03*
G04 #@! TD*
D64*
G04 #@! TO.C,H3*
X0002972440Y0000669291D03*
G04 #@! TD*
G04 #@! TO.C,H2*
X0002972440Y0001417322D03*
G04 #@! TD*
G04 #@! TO.C,H1*
X0002972440Y0002165354D03*
G04 #@! TD*
D58*
G04 #@! TO.C,SW4*
X0002972440Y0000295275D03*
D59*
X0003169291Y0000444881D03*
X0002972440Y0000527559D03*
D60*
X0002766929Y0000129921D03*
D61*
X0002755905Y0000295275D03*
X0003188976Y0000295275D03*
G04 #@! TD*
D58*
G04 #@! TO.C,SW3*
X0002972440Y0001043307D03*
D59*
X0003169291Y0001192913D03*
X0002972440Y0001275590D03*
D60*
X0002766929Y0000877952D03*
D61*
X0002755905Y0001043307D03*
X0003188976Y0001043307D03*
G04 #@! TD*
D58*
G04 #@! TO.C,SW2*
X0002972440Y0001791338D03*
D59*
X0002775590Y0001641732D03*
X0002972440Y0001559055D03*
D60*
X0003177952Y0001956692D03*
D61*
X0003188976Y0001791338D03*
X0002755905Y0001791338D03*
G04 #@! TD*
M02*