%
M48
METRIC,000.000
T01C0.50
%
T01
X015250Y070607
X015250Y071607
X015250Y072607
X015250Y073607
X015250Y074607
X015250Y075607
X016750Y075178
X016750Y074178
X016750Y073178
X016750Y072178
X016750Y071178
X016750Y070178
X015250Y000607
X015250Y001607
X015250Y002607
X015250Y003607
X015250Y004607
X015250Y005607
X016750Y005178
X016750Y004178
X016750Y003178
X016750Y002178
X016750Y001178
X016750Y000178
X032250Y070607
X032250Y071607
X032250Y072607
X032250Y073607
X032250Y074607
X032250Y075607
X033750Y075178
X033750Y074178
X033750Y073178
X033750Y072178
X033750Y071178
X033750Y070178
X049250Y070607
X049250Y071607
X049250Y072607
X049250Y073607
X049250Y074607
X049250Y075607
X050750Y075178
X050750Y074178
X050750Y073178
X050750Y072178
X050750Y071178
X050750Y070178
X066250Y070607
X066250Y071607
X066250Y072607
X066250Y073607
X066250Y074607
X066250Y075607
X067750Y075178
X067750Y074178
X067750Y073178
X067750Y072178
X067750Y071178
X067750Y070178
X032250Y000607
X032250Y001607
X032250Y002607
X032250Y003607
X032250Y004607
X032250Y005607
X033750Y005178
X033750Y004178
X033750Y003178
X033750Y002178
X033750Y001178
X033750Y000178
X049250Y000607
X049250Y001607
X049250Y002607
X049250Y003607
X049250Y004607
X049250Y005607
X050750Y005178
X050750Y004178
X050750Y003178
X050750Y002178
X050750Y001178
X050750Y000178
X066250Y000607
X066250Y001607
X066250Y002607
X066250Y003607
X066250Y004607
X066250Y005607
X067750Y005178
X067750Y004178
X067750Y003178
X067750Y002178
X067750Y001178
X067750Y000178
M30