%MOIN*%
%OFA0B0*%
%FSLAX36Y36*%
%IPPOS*%
%LPD*%
%ADD10C,0*%
D10*
X002598425Y002762660D02*
X002598425Y002762660D01*
X002637795Y002762660D01*
X002598909Y002768819D01*
X002600352Y002774826D01*
X002602716Y002780533D01*
X002605944Y002785801D01*
X002609956Y002790499D01*
X002614654Y002794511D01*
X002619921Y002797739D01*
X002625629Y002800103D01*
X002631636Y002801545D01*
X002637795Y002802030D01*
X002643954Y002801545D01*
X002649961Y002800103D01*
X002655668Y002797739D01*
X002660936Y002794511D01*
X002665634Y002790499D01*
X002669646Y002785801D01*
X002672874Y002780533D01*
X002675238Y002774826D01*
X002676680Y002768819D01*
X002677165Y002762660D01*
X002677165Y000229465D01*
X002676680Y000223306D01*
X002675238Y000217299D01*
X002672874Y000211591D01*
X002669646Y000206324D01*
X002665634Y000201626D01*
X002660936Y000197614D01*
X002655668Y000194386D01*
X002649961Y000192022D01*
X002643954Y000190580D01*
X002637795Y000190095D01*
X002631636Y000190580D01*
X002625629Y000192022D01*
X002619921Y000194386D01*
X002614654Y000197614D01*
X002609956Y000201626D01*
X002605944Y000206324D01*
X002602716Y000211591D01*
X002600352Y000217299D01*
X002598909Y000223306D01*
X002598425Y000229465D01*
X002598425Y000229465D01*
X002598425Y002762660D01*
X001929133Y002762660D02*
X001929133Y002762660D01*
X001968503Y002762660D01*
X001929618Y002768819D01*
X001931060Y002774826D01*
X001933424Y002780533D01*
X001936652Y002785801D01*
X001940665Y002790499D01*
X001945362Y002794511D01*
X001950630Y002797739D01*
X001956337Y002800103D01*
X001962345Y002801545D01*
X001968503Y002802030D01*
X001974662Y002801545D01*
X001980669Y002800103D01*
X001986377Y002797739D01*
X001991645Y002794511D01*
X001996342Y002790499D01*
X002000354Y002785801D01*
X002003582Y002780533D01*
X002005947Y002774826D01*
X002007389Y002768819D01*
X002007874Y002762660D01*
X002007874Y000229465D01*
X002007389Y000223306D01*
X002005947Y000217299D01*
X002003582Y000211591D01*
X002000354Y000206324D01*
X001996342Y000201626D01*
X001991645Y000197614D01*
X001986377Y000194386D01*
X001980669Y000192022D01*
X001974662Y000190580D01*
X001968503Y000190095D01*
X001962345Y000190580D01*
X001956337Y000192022D01*
X001950630Y000194386D01*
X001945362Y000197614D01*
X001940665Y000201626D01*
X001936652Y000206324D01*
X001933424Y000211591D01*
X001931060Y000217299D01*
X001929618Y000223306D01*
X001929133Y000229465D01*
X001929133Y000229465D01*
X001929133Y002762660D01*
X001259842Y002762660D02*
X001259842Y002762660D01*
X001299212Y002762660D01*
X001260327Y002768819D01*
X001261769Y002774826D01*
X001264133Y002780533D01*
X001267361Y002785801D01*
X001271373Y002790499D01*
X001276071Y002794511D01*
X001281338Y002797739D01*
X001287046Y002800103D01*
X001293053Y002801545D01*
X001299212Y002802030D01*
X001305371Y002801545D01*
X001311378Y002800103D01*
X001317086Y002797739D01*
X001322353Y002794511D01*
X001327051Y002790499D01*
X001331063Y002785801D01*
X001334291Y002780533D01*
X001336655Y002774826D01*
X001338097Y002768819D01*
X001338582Y002762660D01*
X001338582Y000229465D01*
X001338097Y000223306D01*
X001336655Y000217299D01*
X001334291Y000211591D01*
X001331063Y000206324D01*
X001327051Y000201626D01*
X001322353Y000197614D01*
X001317086Y000194386D01*
X001311378Y000192022D01*
X001305371Y000190580D01*
X001299212Y000190095D01*
X001293053Y000190580D01*
X001287046Y000192022D01*
X001281338Y000194386D01*
X001276071Y000197614D01*
X001271373Y000201626D01*
X001267361Y000206324D01*
X001264133Y000211591D01*
X001261769Y000217299D01*
X001260327Y000223306D01*
X001259842Y000229465D01*
X001259842Y000229465D01*
X001259842Y002762660D01*
X000590551Y002762660D02*
X000590551Y002762660D01*
X000629921Y002762660D01*
X000591035Y002768819D01*
X000592478Y002774826D01*
X000594842Y002780533D01*
X000598070Y002785801D01*
X000602082Y002790499D01*
X000606780Y002794511D01*
X000612047Y002797739D01*
X000617755Y002800103D01*
X000623762Y002801545D01*
X000629921Y002802030D01*
X000636080Y002801545D01*
X000642087Y002800103D01*
X000647794Y002797739D01*
X000653062Y002794511D01*
X000657760Y002790499D01*
X000661772Y002785801D01*
X000665000Y002780533D01*
X000667364Y002774826D01*
X000668806Y002768819D01*
X000669291Y002762660D01*
X000669291Y000229465D01*
X000668806Y000223306D01*
X000667364Y000217299D01*
X000665000Y000211591D01*
X000661772Y000206324D01*
X000657760Y000201626D01*
X000653062Y000197614D01*
X000647794Y000194386D01*
X000642087Y000192022D01*
X000636080Y000190580D01*
X000629921Y000190095D01*
X000623762Y000190580D01*
X000617755Y000192022D01*
X000612047Y000194386D01*
X000606780Y000197614D01*
X000602082Y000201626D01*
X000598070Y000206324D01*
X000594842Y000211591D01*
X000592478Y000217299D01*
X000591035Y000223306D01*
X000590551Y000229465D01*
X000590551Y000229465D01*
X000590551Y002762660D01*
X000669291Y002985371D02*
X000669291Y002985371D01*
X000668806Y002979212D01*
X000667364Y002973205D01*
X000665000Y002967497D01*
X000661772Y002962229D01*
X000657760Y002957532D01*
X000653062Y002953520D01*
X000647794Y002950292D01*
X000642087Y002947927D01*
X000636080Y002946485D01*
X000629921Y002946001D01*
X000623762Y002946485D01*
X000617755Y002947927D01*
X000612047Y002950292D01*
X000606780Y002953520D01*
X000602082Y002957532D01*
X000598070Y002962229D01*
X000594842Y002967497D01*
X000592478Y002973205D01*
X000591035Y002979212D01*
X000629921Y002985371D01*
X000590551Y002985371D01*
X000590551Y002992125D01*
X000000000Y002992125D01*
X000000000Y000000000D01*
X000590551Y000000000D01*
X000590551Y000006754D01*
X000590551Y000006754D01*
X000591035Y000012913D01*
X000592478Y000018920D01*
X000594842Y000024628D01*
X000598070Y000029895D01*
X000602082Y000034593D01*
X000606780Y000038605D01*
X000612047Y000041833D01*
X000617755Y000044198D01*
X000623762Y000045640D01*
X000629921Y000046124D01*
X000636080Y000045640D01*
X000642087Y000044198D01*
X000647794Y000041833D01*
X000653062Y000038605D01*
X000657760Y000034593D01*
X000661772Y000029895D01*
X000665000Y000024628D01*
X000667364Y000018920D01*
X000668806Y000012913D01*
X000669291Y000006754D01*
X000669291Y000006754D01*
X000669291Y000000000D01*
X001259842Y000000000D01*
X001259842Y000006754D01*
X001259842Y000006754D01*
X001260327Y000012913D01*
X001261769Y000018920D01*
X001264133Y000024628D01*
X001267361Y000029895D01*
X001271373Y000034593D01*
X001276071Y000038605D01*
X001281338Y000041833D01*
X001287046Y000044198D01*
X001293053Y000045640D01*
X001299212Y000046124D01*
X001305371Y000045640D01*
X001311378Y000044198D01*
X001317086Y000041833D01*
X001322353Y000038605D01*
X001327051Y000034593D01*
X001331063Y000029895D01*
X001334291Y000024628D01*
X001336655Y000018920D01*
X001338097Y000012913D01*
X001338582Y000006754D01*
X001338582Y000006754D01*
X001338582Y000000000D01*
X001929133Y000000000D01*
X001929133Y000006754D01*
X001929133Y000006754D01*
X001929618Y000012913D01*
X001931060Y000018920D01*
X001933424Y000024628D01*
X001936652Y000029895D01*
X001940665Y000034593D01*
X001945362Y000038605D01*
X001950630Y000041833D01*
X001956337Y000044198D01*
X001962345Y000045640D01*
X001968503Y000046124D01*
X001974662Y000045640D01*
X001980669Y000044198D01*
X001986377Y000041833D01*
X001991645Y000038605D01*
X001996342Y000034593D01*
X002000354Y000029895D01*
X002003582Y000024628D01*
X002005947Y000018920D01*
X002007389Y000012913D01*
X002007874Y000006754D01*
X002007874Y000006754D01*
X002007874Y000000000D01*
X002598425Y000000000D01*
X002598425Y000006754D01*
X002598425Y000006754D01*
X002598909Y000012913D01*
X002600352Y000018920D01*
X002602716Y000024628D01*
X002605944Y000029895D01*
X002609956Y000034593D01*
X002614654Y000038605D01*
X002619921Y000041833D01*
X002625629Y000044198D01*
X002631636Y000045640D01*
X002637795Y000046124D01*
X002643954Y000045640D01*
X002649961Y000044198D01*
X002655668Y000041833D01*
X002660936Y000038605D01*
X002665634Y000034593D01*
X002669646Y000029895D01*
X002672874Y000024628D01*
X002675238Y000018920D01*
X002676680Y000012913D01*
X002677165Y000006754D01*
X002677165Y000006754D01*
X002677165Y000000000D01*
X003267716Y000000000D01*
X003267716Y002992125D01*
X002677165Y002992125D01*
X002677165Y002985371D01*
X002676680Y002979212D01*
X002675238Y002973205D01*
X002672874Y002967497D01*
X002669646Y002962229D01*
X002665634Y002957532D01*
X002660936Y002953520D01*
X002655668Y002950292D01*
X002649961Y002947927D01*
X002643954Y002946485D01*
X002637795Y002946001D01*
X002631636Y002946485D01*
X002625629Y002947927D01*
X002619921Y002950292D01*
X002614654Y002953520D01*
X002609956Y002957532D01*
X002605944Y002962229D01*
X002602716Y002967497D01*
X002600352Y002973205D01*
X002598909Y002979212D01*
X002637795Y002985371D01*
X002598425Y002985371D01*
X002598425Y002992125D01*
X002007874Y002992125D01*
X002007874Y002985371D01*
X002007389Y002979212D01*
X002005947Y002973205D01*
X002003582Y002967497D01*
X002000354Y002962229D01*
X001996342Y002957532D01*
X001991645Y002953520D01*
X001986377Y002950292D01*
X001980669Y002947927D01*
X001974662Y002946485D01*
X001968503Y002946001D01*
X001962345Y002946485D01*
X001956337Y002947927D01*
X001950630Y002950292D01*
X001945362Y002953520D01*
X001940665Y002957532D01*
X001936652Y002962229D01*
X001933424Y002967497D01*
X001931060Y002973205D01*
X001929618Y002979212D01*
X001968503Y002985371D01*
X001929133Y002985371D01*
X001929133Y002992125D01*
X001338582Y002992125D01*
X001338582Y002985371D01*
X001338097Y002979212D01*
X001336655Y002973205D01*
X001334291Y002967497D01*
X001331063Y002962229D01*
X001327051Y002957532D01*
X001322353Y002953520D01*
X001317086Y002950292D01*
X001311378Y002947927D01*
X001305371Y002946485D01*
X001299212Y002946001D01*
X001293053Y002946485D01*
X001287046Y002947927D01*
X001281338Y002950292D01*
X001276071Y002953520D01*
X001271373Y002957532D01*
X001267361Y002962229D01*
X001264133Y002967497D01*
X001261769Y002973205D01*
X001260327Y002979212D01*
X001299212Y002985371D01*
X001259842Y002985371D01*
X001259842Y002992125D01*
X000669291Y002992125D01*
X000669291Y002985371D01*
M02*