%MOIN*%
%OFA0B0*%
%FSLAX46Y46*%
%IPPOS*%
%LPD*%
%ADD10R,0.066929133858267723X0.066929133858267723*%
%ADD11O,0.066929133858267723X0.066929133858267723*%
%ADD12C,0.135*%
%ADD13C,0.08*%
%ADD14C,0.039000000000000007*%
%ADD15C,0.067*%
%ADD16C,0.17322834645669294*%
%ADD27R,0.066929133858267723X0.066929133858267723*%
%ADD28O,0.066929133858267723X0.066929133858267723*%
%ADD29C,0.135*%
%ADD30C,0.08*%
%ADD31C,0.039000000000000007*%
%ADD32C,0.067*%
%ADD33C,0.17322834645669294*%
%ADD34R,0.066929133858267723X0.066929133858267723*%
%ADD35O,0.066929133858267723X0.066929133858267723*%
%ADD36C,0.135*%
%ADD37C,0.08*%
%ADD38C,0.039000000000000007*%
%ADD39C,0.067*%
%ADD40C,0.17322834645669294*%
%ADD41R,0.066929133858267723X0.066929133858267723*%
%ADD42O,0.066929133858267723X0.066929133858267723*%
%ADD43C,0.135*%
%ADD44C,0.08*%
%ADD45C,0.039000000000000007*%
%ADD46C,0.067*%
%ADD47C,0.17322834645669294*%
%ADD48R,0.066929133858267723X0.066929133858267723*%
%ADD49O,0.066929133858267723X0.066929133858267723*%
%ADD50C,0.135*%
%ADD51C,0.08*%
%ADD52C,0.039000000000000007*%
%ADD53C,0.067*%
%ADD54C,0.17322834645669294*%
G01*
D10*
X-0005905511Y0004114173D02*
X0000492125Y0002913385D03*
D11*
X0000392125Y0002913385D03*
X0000292125Y0002913385D03*
X0000192125Y0002913385D03*
X0000092125Y0002913385D03*
D12*
X0000295275Y0002539370D03*
D13*
X0000098425Y0002389763D03*
X0000295275Y0002307086D03*
D14*
X0000500787Y0002704724D03*
D15*
X0000511811Y0002539370D03*
X0000078740Y0002539370D03*
D16*
X0000295275Y0000669291D03*
X0000295275Y0001417322D03*
X0000295275Y0002165354D03*
D12*
X0000295275Y0000295275D03*
D13*
X0000492125Y0000444881D03*
X0000295275Y0000527559D03*
D14*
X0000089763Y0000129921D03*
D15*
X0000078740Y0000295275D03*
X0000511811Y0000295275D03*
D12*
X0000295275Y0001043307D03*
D13*
X0000492125Y0001192913D03*
X0000295275Y0001275590D03*
D14*
X0000089763Y0000877952D03*
D15*
X0000078740Y0001043307D03*
X0000511811Y0001043307D03*
D12*
X0000295275Y0001791338D03*
D13*
X0000098425Y0001641732D03*
X0000295275Y0001559055D03*
D14*
X0000500787Y0001956692D03*
D15*
X0000511811Y0001791338D03*
X0000078740Y0001791338D03*
G04 next file*
G04 #@! TF.GenerationSoftware,KiCad,Pcbnew,7.0.2*
G04 #@! TF.CreationDate,2023-05-08T17:21:18+01:00*
G04 #@! TF.ProjectId,heron,6865726f-6e2e-46b6-9963-61645f706362,rev?*
G04 #@! TF.SameCoordinates,Original*
G04 #@! TF.FileFunction,Soldermask,Top*
G04 #@! TF.FilePolarity,Negative*
G04 Gerber Fmt 4.6, Leading zero omitted, Abs format (unit mm)*
G04 Created by KiCad (PCBNEW 7.0.2) date 2023-05-08 17:21:18*
G01*
G04 APERTURE LIST*
G04 APERTURE END LIST*
D27*
G04 #@! TO.C,J1*
X-0005236220Y0004114173D02*
X0001161417Y0002913385D03*
D28*
X0001061417Y0002913385D03*
X0000961417Y0002913385D03*
X0000861417Y0002913385D03*
X0000761417Y0002913385D03*
G04 #@! TD*
D29*
G04 #@! TO.C,SW1*
X0000964566Y0002539370D03*
D30*
X0000767716Y0002389763D03*
X0000964566Y0002307086D03*
D31*
X0001170078Y0002704724D03*
D32*
X0001181102Y0002539370D03*
X0000748031Y0002539370D03*
G04 #@! TD*
D33*
G04 #@! TO.C,H3*
X0000964566Y0000669291D03*
G04 #@! TD*
G04 #@! TO.C,H2*
X0000964566Y0001417322D03*
G04 #@! TD*
G04 #@! TO.C,H1*
X0000964566Y0002165354D03*
G04 #@! TD*
D29*
G04 #@! TO.C,SW4*
X0000964566Y0000295275D03*
D30*
X0001161417Y0000444881D03*
X0000964566Y0000527559D03*
D31*
X0000759055Y0000129921D03*
D32*
X0000748031Y0000295275D03*
X0001181102Y0000295275D03*
G04 #@! TD*
D29*
G04 #@! TO.C,SW3*
X0000964566Y0001043307D03*
D30*
X0001161417Y0001192913D03*
X0000964566Y0001275590D03*
D31*
X0000759055Y0000877952D03*
D32*
X0000748031Y0001043307D03*
X0001181102Y0001043307D03*
G04 #@! TD*
D29*
G04 #@! TO.C,SW2*
X0000964566Y0001791338D03*
D30*
X0000767716Y0001641732D03*
X0000964566Y0001559055D03*
D31*
X0001170078Y0001956692D03*
D32*
X0001181102Y0001791338D03*
X0000748031Y0001791338D03*
G04 #@! TD*
G04 next file*
G04 #@! TF.GenerationSoftware,KiCad,Pcbnew,7.0.2*
G04 #@! TF.CreationDate,2023-05-08T17:21:18+01:00*
G04 #@! TF.ProjectId,heron,6865726f-6e2e-46b6-9963-61645f706362,rev?*
G04 #@! TF.SameCoordinates,Original*
G04 #@! TF.FileFunction,Soldermask,Top*
G04 #@! TF.FilePolarity,Negative*
G04 Gerber Fmt 4.6, Leading zero omitted, Abs format (unit mm)*
G04 Created by KiCad (PCBNEW 7.0.2) date 2023-05-08 17:21:18*
G01*
G04 APERTURE LIST*
G04 APERTURE END LIST*
D34*
G04 #@! TO.C,J1*
X-0004566929Y0004114173D02*
X0001830708Y0002913385D03*
D35*
X0001730708Y0002913385D03*
X0001630708Y0002913385D03*
X0001530708Y0002913385D03*
X0001430708Y0002913385D03*
G04 #@! TD*
D36*
G04 #@! TO.C,SW1*
X0001633858Y0002539370D03*
D37*
X0001437007Y0002389763D03*
X0001633858Y0002307086D03*
D38*
X0001839370Y0002704724D03*
D39*
X0001850393Y0002539370D03*
X0001417322Y0002539370D03*
G04 #@! TD*
D40*
G04 #@! TO.C,H3*
X0001633858Y0000669291D03*
G04 #@! TD*
G04 #@! TO.C,H2*
X0001633858Y0001417322D03*
G04 #@! TD*
G04 #@! TO.C,H1*
X0001633858Y0002165354D03*
G04 #@! TD*
D36*
G04 #@! TO.C,SW4*
X0001633858Y0000295275D03*
D37*
X0001830708Y0000444881D03*
X0001633858Y0000527559D03*
D38*
X0001428346Y0000129921D03*
D39*
X0001417322Y0000295275D03*
X0001850393Y0000295275D03*
G04 #@! TD*
D36*
G04 #@! TO.C,SW3*
X0001633858Y0001043307D03*
D37*
X0001830708Y0001192913D03*
X0001633858Y0001275590D03*
D38*
X0001428346Y0000877952D03*
D39*
X0001417322Y0001043307D03*
X0001850393Y0001043307D03*
G04 #@! TD*
D36*
G04 #@! TO.C,SW2*
X0001633858Y0001791338D03*
D37*
X0001437007Y0001641732D03*
X0001633858Y0001559055D03*
D38*
X0001839370Y0001956692D03*
D39*
X0001850393Y0001791338D03*
X0001417322Y0001791338D03*
G04 #@! TD*
G04 next file*
G04 #@! TF.GenerationSoftware,KiCad,Pcbnew,7.0.2*
G04 #@! TF.CreationDate,2023-05-08T17:21:18+01:00*
G04 #@! TF.ProjectId,heron,6865726f-6e2e-46b6-9963-61645f706362,rev?*
G04 #@! TF.SameCoordinates,Original*
G04 #@! TF.FileFunction,Soldermask,Top*
G04 #@! TF.FilePolarity,Negative*
G04 Gerber Fmt 4.6, Leading zero omitted, Abs format (unit mm)*
G04 Created by KiCad (PCBNEW 7.0.2) date 2023-05-08 17:21:18*
G01*
G04 APERTURE LIST*
G04 APERTURE END LIST*
D41*
G04 #@! TO.C,J1*
X-0003897637Y0004114173D02*
X0002500000Y0002913385D03*
D42*
X0002400000Y0002913385D03*
X0002299999Y0002913385D03*
X0002199999Y0002913385D03*
X0002100000Y0002913385D03*
G04 #@! TD*
D43*
G04 #@! TO.C,SW1*
X0002303149Y0002539370D03*
D44*
X0002106299Y0002389763D03*
X0002303149Y0002307086D03*
D45*
X0002508661Y0002704724D03*
D46*
X0002519685Y0002539370D03*
X0002086614Y0002539370D03*
G04 #@! TD*
D47*
G04 #@! TO.C,H3*
X0002303149Y0000669291D03*
G04 #@! TD*
G04 #@! TO.C,H2*
X0002303149Y0001417322D03*
G04 #@! TD*
G04 #@! TO.C,H1*
X0002303149Y0002165354D03*
G04 #@! TD*
D43*
G04 #@! TO.C,SW4*
X0002303149Y0000295275D03*
D44*
X0002500000Y0000444881D03*
X0002303149Y0000527559D03*
D45*
X0002097637Y0000129921D03*
D46*
X0002086614Y0000295275D03*
X0002519685Y0000295275D03*
G04 #@! TD*
D43*
G04 #@! TO.C,SW3*
X0002303149Y0001043307D03*
D44*
X0002500000Y0001192913D03*
X0002303149Y0001275590D03*
D45*
X0002097637Y0000877952D03*
D46*
X0002086614Y0001043307D03*
X0002519685Y0001043307D03*
G04 #@! TD*
D43*
G04 #@! TO.C,SW2*
X0002303149Y0001791338D03*
D44*
X0002106299Y0001641732D03*
X0002303149Y0001559055D03*
D45*
X0002508661Y0001956692D03*
D46*
X0002519685Y0001791338D03*
X0002086614Y0001791338D03*
G04 #@! TD*
G04 next file*
G04 #@! TF.GenerationSoftware,KiCad,Pcbnew,7.0.2*
G04 #@! TF.CreationDate,2023-05-08T17:21:18+01:00*
G04 #@! TF.ProjectId,heron,6865726f-6e2e-46b6-9963-61645f706362,rev?*
G04 #@! TF.SameCoordinates,Original*
G04 #@! TF.FileFunction,Soldermask,Top*
G04 #@! TF.FilePolarity,Negative*
G04 Gerber Fmt 4.6, Leading zero omitted, Abs format (unit mm)*
G04 Created by KiCad (PCBNEW 7.0.2) date 2023-05-08 17:21:18*
G01*
G04 APERTURE LIST*
G04 APERTURE END LIST*
D48*
G04 #@! TO.C,J1*
X-0003228346Y0004114173D02*
X0003169291Y0002913385D03*
D49*
X0003069291Y0002913385D03*
X0002969291Y0002913385D03*
X0002869291Y0002913385D03*
X0002769291Y0002913385D03*
G04 #@! TD*
D50*
G04 #@! TO.C,SW1*
X0002972440Y0002539370D03*
D51*
X0002775590Y0002389763D03*
X0002972440Y0002307086D03*
D52*
X0003177952Y0002704724D03*
D53*
X0003188976Y0002539370D03*
X0002755905Y0002539370D03*
G04 #@! TD*
D54*
G04 #@! TO.C,H3*
X0002972440Y0000669291D03*
G04 #@! TD*
G04 #@! TO.C,H2*
X0002972440Y0001417322D03*
G04 #@! TD*
G04 #@! TO.C,H1*
X0002972440Y0002165354D03*
G04 #@! TD*
D50*
G04 #@! TO.C,SW4*
X0002972440Y0000295275D03*
D51*
X0003169291Y0000444881D03*
X0002972440Y0000527559D03*
D52*
X0002766929Y0000129921D03*
D53*
X0002755905Y0000295275D03*
X0003188976Y0000295275D03*
G04 #@! TD*
D50*
G04 #@! TO.C,SW3*
X0002972440Y0001043307D03*
D51*
X0003169291Y0001192913D03*
X0002972440Y0001275590D03*
D52*
X0002766929Y0000877952D03*
D53*
X0002755905Y0001043307D03*
X0003188976Y0001043307D03*
G04 #@! TD*
D50*
G04 #@! TO.C,SW2*
X0002972440Y0001791338D03*
D51*
X0002775590Y0001641732D03*
X0002972440Y0001559055D03*
D52*
X0003177952Y0001956692D03*
D53*
X0003188976Y0001791338D03*
X0002755905Y0001791338D03*
G04 #@! TD*
M02*