%MOIN*%
%OFA0B0*%
%FSLAX46Y46*%
%IPPOS*%
%LPD*%
%ADD10R,0.066929133858267723X0.066929133858267723*%
%ADD11O,0.066929133858267723X0.066929133858267723*%
%ADD12C,0.08*%
%ADD13C,0.17322834645669294*%
%ADD14C,0.00984251968503937*%
%ADD25R,0.066929133858267723X0.066929133858267723*%
%ADD26O,0.066929133858267723X0.066929133858267723*%
%ADD27C,0.08*%
%ADD28C,0.17322834645669294*%
%ADD29C,0.00984251968503937*%
%ADD30R,0.066929133858267723X0.066929133858267723*%
%ADD31O,0.066929133858267723X0.066929133858267723*%
%ADD32C,0.08*%
%ADD33C,0.17322834645669294*%
%ADD34C,0.00984251968503937*%
%ADD35R,0.066929133858267723X0.066929133858267723*%
%ADD36O,0.066929133858267723X0.066929133858267723*%
%ADD37C,0.08*%
%ADD38C,0.17322834645669294*%
%ADD39C,0.00984251968503937*%
%ADD40R,0.066929133858267723X0.066929133858267723*%
%ADD41O,0.066929133858267723X0.066929133858267723*%
%ADD42C,0.08*%
%ADD43C,0.17322834645669294*%
%ADD44C,0.00984251968503937*%
G01*
D10*
X-0005905511Y0004114173D02*
X0000492125Y0002913385D03*
D11*
X0000392125Y0002913385D03*
X0000292125Y0002913385D03*
X0000192125Y0002913385D03*
X0000092125Y0002913385D03*
D12*
X0000098425Y0002389763D03*
X0000295275Y0002307086D03*
D13*
X0000295275Y0000669291D03*
X0000295275Y0001417322D03*
X0000295275Y0002165354D03*
D12*
X0000492125Y0000444881D03*
X0000295275Y0000527559D03*
X0000492125Y0001192913D03*
X0000295275Y0001275590D03*
X0000098425Y0001641732D03*
X0000295275Y0001559055D03*
D14*
X0000151220Y0002872480D02*
X0000192125Y0002913385D01*
X0000295275Y0000527559D02*
X0000151220Y0000671614D01*
X0000151220Y0000671614D02*
X0000151220Y0002872480D01*
X0000295275Y0001275590D02*
X0000178149Y0001392716D01*
X0000178149Y0001392716D02*
X0000178149Y0002799409D01*
X0000178149Y0002799409D02*
X0000292125Y0002913385D01*
X0000392125Y0002478740D02*
X0000392125Y0002913385D01*
X0000195866Y0002282480D02*
X0000392125Y0002478740D01*
X0000295275Y0001653543D02*
X0000195866Y0001752952D01*
X0000195866Y0001752952D02*
X0000195866Y0002282480D01*
X0000295275Y0001559055D02*
X0000295275Y0001653543D01*
X0000463547Y0002475358D02*
X0000295275Y0002307086D01*
X0000463547Y0002884807D02*
X0000463547Y0002475358D01*
X0000492125Y0002913385D02*
X0000463547Y0002884807D01*
G04 next file*
G04 #@! TF.GenerationSoftware,KiCad,Pcbnew,7.0.2*
G04 #@! TF.CreationDate,2023-05-08T17:21:18+01:00*
G04 #@! TF.ProjectId,heron,6865726f-6e2e-46b6-9963-61645f706362,rev?*
G04 #@! TF.SameCoordinates,Original*
G04 #@! TF.FileFunction,Copper,L1,Top*
G04 #@! TF.FilePolarity,Positive*
G04 Gerber Fmt 4.6, Leading zero omitted, Abs format (unit mm)*
G04 Created by KiCad (PCBNEW 7.0.2) date 2023-05-08 17:21:18*
G01*
G04 APERTURE LIST*
G04 #@! TA.AperFunction,ComponentPad*
G04 #@! TD*
G04 #@! TA.AperFunction,ComponentPad*
G04 #@! TD*
G04 #@! TA.AperFunction,ComponentPad*
G04 #@! TD*
G04 #@! TA.AperFunction,ComponentPad*
G04 #@! TD*
G04 #@! TA.AperFunction,Conductor*
G04 #@! TD*
G04 APERTURE END LIST*
D25*
G04 #@! TO.P,J1,1,Pin_1*
G04 #@! TO.N,Row1*
X-0005236220Y0004114173D02*
X0001161417Y0002913385D03*
D26*
G04 #@! TO.P,J1,2,Pin_2*
G04 #@! TO.N,Row2*
X0001061417Y0002913385D03*
G04 #@! TO.P,J1,3,Pin_3*
G04 #@! TO.N,Row3*
X0000961417Y0002913385D03*
G04 #@! TO.P,J1,4,Pin_4*
G04 #@! TO.N,Row4*
X0000861417Y0002913385D03*
G04 #@! TO.P,J1,5,Pin_5*
G04 #@! TO.N,Column*
X0000761417Y0002913385D03*
G04 #@! TD*
D27*
G04 #@! TO.P,SW1,2,2*
G04 #@! TO.N,Net-(D1-A)*
X0000767716Y0002389763D03*
G04 #@! TO.P,SW1,1,1*
G04 #@! TO.N,Row1*
X0000964566Y0002307086D03*
G04 #@! TD*
D28*
G04 #@! TO.P,H3,1*
G04 #@! TO.N,N/C*
X0000964566Y0000669291D03*
G04 #@! TD*
G04 #@! TO.P,H2,1*
G04 #@! TO.N,N/C*
X0000964566Y0001417322D03*
G04 #@! TD*
G04 #@! TO.P,H1,1*
G04 #@! TO.N,N/C*
X0000964566Y0002165354D03*
G04 #@! TD*
D27*
G04 #@! TO.P,SW4,2,2*
G04 #@! TO.N,Net-(D4-A)*
X0001161417Y0000444881D03*
G04 #@! TO.P,SW4,1,1*
G04 #@! TO.N,Row4*
X0000964566Y0000527559D03*
G04 #@! TD*
G04 #@! TO.P,SW3,2,2*
G04 #@! TO.N,Net-(D3-A)*
X0001161417Y0001192913D03*
G04 #@! TO.P,SW3,1,1*
G04 #@! TO.N,Row3*
X0000964566Y0001275590D03*
G04 #@! TD*
G04 #@! TO.P,SW2,2,2*
G04 #@! TO.N,Net-(D2-A)*
X0000767716Y0001641732D03*
G04 #@! TO.P,SW2,1,1*
G04 #@! TO.N,Row2*
X0000964566Y0001559055D03*
G04 #@! TD*
D29*
G04 #@! TO.N,Row4*
X0000820511Y0002872480D02*
X0000861417Y0002913385D01*
X0000964566Y0000527559D02*
X0000820511Y0000671614D01*
X0000820511Y0000671614D02*
X0000820511Y0002872480D01*
G04 #@! TO.N,Row3*
X0000964566Y0001275590D02*
X0000847440Y0001392716D01*
X0000847440Y0001392716D02*
X0000847440Y0002799409D01*
X0000847440Y0002799409D02*
X0000961417Y0002913385D01*
G04 #@! TO.N,Row2*
X0001061417Y0002478740D02*
X0001061417Y0002913385D01*
X0000865157Y0002282480D02*
X0001061417Y0002478740D01*
X0000964566Y0001653543D02*
X0000865157Y0001752952D01*
X0000865157Y0001752952D02*
X0000865157Y0002282480D01*
X0000964566Y0001559055D02*
X0000964566Y0001653543D01*
G04 #@! TO.N,Row1*
X0001132838Y0002475358D02*
X0000964566Y0002307086D01*
X0001132838Y0002884807D02*
X0001132838Y0002475358D01*
X0001161417Y0002913385D02*
X0001132838Y0002884807D01*
G04 #@! TD*
G04 next file*
G04 #@! TF.GenerationSoftware,KiCad,Pcbnew,7.0.2*
G04 #@! TF.CreationDate,2023-05-08T17:21:18+01:00*
G04 #@! TF.ProjectId,heron,6865726f-6e2e-46b6-9963-61645f706362,rev?*
G04 #@! TF.SameCoordinates,Original*
G04 #@! TF.FileFunction,Copper,L1,Top*
G04 #@! TF.FilePolarity,Positive*
G04 Gerber Fmt 4.6, Leading zero omitted, Abs format (unit mm)*
G04 Created by KiCad (PCBNEW 7.0.2) date 2023-05-08 17:21:18*
G01*
G04 APERTURE LIST*
G04 #@! TA.AperFunction,ComponentPad*
G04 #@! TD*
G04 #@! TA.AperFunction,ComponentPad*
G04 #@! TD*
G04 #@! TA.AperFunction,ComponentPad*
G04 #@! TD*
G04 #@! TA.AperFunction,ComponentPad*
G04 #@! TD*
G04 #@! TA.AperFunction,Conductor*
G04 #@! TD*
G04 APERTURE END LIST*
D30*
G04 #@! TO.P,J1,1,Pin_1*
G04 #@! TO.N,Row1*
X-0004566929Y0004114173D02*
X0001830708Y0002913385D03*
D31*
G04 #@! TO.P,J1,2,Pin_2*
G04 #@! TO.N,Row2*
X0001730708Y0002913385D03*
G04 #@! TO.P,J1,3,Pin_3*
G04 #@! TO.N,Row3*
X0001630708Y0002913385D03*
G04 #@! TO.P,J1,4,Pin_4*
G04 #@! TO.N,Row4*
X0001530708Y0002913385D03*
G04 #@! TO.P,J1,5,Pin_5*
G04 #@! TO.N,Column*
X0001430708Y0002913385D03*
G04 #@! TD*
D32*
G04 #@! TO.P,SW1,2,2*
G04 #@! TO.N,Net-(D1-A)*
X0001437007Y0002389763D03*
G04 #@! TO.P,SW1,1,1*
G04 #@! TO.N,Row1*
X0001633858Y0002307086D03*
G04 #@! TD*
D33*
G04 #@! TO.P,H3,1*
G04 #@! TO.N,N/C*
X0001633858Y0000669291D03*
G04 #@! TD*
G04 #@! TO.P,H2,1*
G04 #@! TO.N,N/C*
X0001633858Y0001417322D03*
G04 #@! TD*
G04 #@! TO.P,H1,1*
G04 #@! TO.N,N/C*
X0001633858Y0002165354D03*
G04 #@! TD*
D32*
G04 #@! TO.P,SW4,2,2*
G04 #@! TO.N,Net-(D4-A)*
X0001830708Y0000444881D03*
G04 #@! TO.P,SW4,1,1*
G04 #@! TO.N,Row4*
X0001633858Y0000527559D03*
G04 #@! TD*
G04 #@! TO.P,SW3,2,2*
G04 #@! TO.N,Net-(D3-A)*
X0001830708Y0001192913D03*
G04 #@! TO.P,SW3,1,1*
G04 #@! TO.N,Row3*
X0001633858Y0001275590D03*
G04 #@! TD*
G04 #@! TO.P,SW2,2,2*
G04 #@! TO.N,Net-(D2-A)*
X0001437007Y0001641732D03*
G04 #@! TO.P,SW2,1,1*
G04 #@! TO.N,Row2*
X0001633858Y0001559055D03*
G04 #@! TD*
D34*
G04 #@! TO.N,Row4*
X0001489803Y0002872480D02*
X0001530708Y0002913385D01*
X0001633858Y0000527559D02*
X0001489803Y0000671614D01*
X0001489803Y0000671614D02*
X0001489803Y0002872480D01*
G04 #@! TO.N,Row3*
X0001633858Y0001275590D02*
X0001516732Y0001392716D01*
X0001516732Y0001392716D02*
X0001516732Y0002799409D01*
X0001516732Y0002799409D02*
X0001630708Y0002913385D01*
G04 #@! TO.N,Row2*
X0001730708Y0002478740D02*
X0001730708Y0002913385D01*
X0001534448Y0002282480D02*
X0001730708Y0002478740D01*
X0001633858Y0001653543D02*
X0001534448Y0001752952D01*
X0001534448Y0001752952D02*
X0001534448Y0002282480D01*
X0001633858Y0001559055D02*
X0001633858Y0001653543D01*
G04 #@! TO.N,Row1*
X0001802129Y0002475358D02*
X0001633858Y0002307086D01*
X0001802129Y0002884807D02*
X0001802129Y0002475358D01*
X0001830708Y0002913385D02*
X0001802129Y0002884807D01*
G04 #@! TD*
G04 next file*
G04 #@! TF.GenerationSoftware,KiCad,Pcbnew,7.0.2*
G04 #@! TF.CreationDate,2023-05-08T17:21:18+01:00*
G04 #@! TF.ProjectId,heron,6865726f-6e2e-46b6-9963-61645f706362,rev?*
G04 #@! TF.SameCoordinates,Original*
G04 #@! TF.FileFunction,Copper,L1,Top*
G04 #@! TF.FilePolarity,Positive*
G04 Gerber Fmt 4.6, Leading zero omitted, Abs format (unit mm)*
G04 Created by KiCad (PCBNEW 7.0.2) date 2023-05-08 17:21:18*
G01*
G04 APERTURE LIST*
G04 #@! TA.AperFunction,ComponentPad*
G04 #@! TD*
G04 #@! TA.AperFunction,ComponentPad*
G04 #@! TD*
G04 #@! TA.AperFunction,ComponentPad*
G04 #@! TD*
G04 #@! TA.AperFunction,ComponentPad*
G04 #@! TD*
G04 #@! TA.AperFunction,Conductor*
G04 #@! TD*
G04 APERTURE END LIST*
D35*
G04 #@! TO.P,J1,1,Pin_1*
G04 #@! TO.N,Row1*
X-0003897637Y0004114173D02*
X0002500000Y0002913385D03*
D36*
G04 #@! TO.P,J1,2,Pin_2*
G04 #@! TO.N,Row2*
X0002400000Y0002913385D03*
G04 #@! TO.P,J1,3,Pin_3*
G04 #@! TO.N,Row3*
X0002299999Y0002913385D03*
G04 #@! TO.P,J1,4,Pin_4*
G04 #@! TO.N,Row4*
X0002199999Y0002913385D03*
G04 #@! TO.P,J1,5,Pin_5*
G04 #@! TO.N,Column*
X0002100000Y0002913385D03*
G04 #@! TD*
D37*
G04 #@! TO.P,SW1,2,2*
G04 #@! TO.N,Net-(D1-A)*
X0002106299Y0002389763D03*
G04 #@! TO.P,SW1,1,1*
G04 #@! TO.N,Row1*
X0002303149Y0002307086D03*
G04 #@! TD*
D38*
G04 #@! TO.P,H3,1*
G04 #@! TO.N,N/C*
X0002303149Y0000669291D03*
G04 #@! TD*
G04 #@! TO.P,H2,1*
G04 #@! TO.N,N/C*
X0002303149Y0001417322D03*
G04 #@! TD*
G04 #@! TO.P,H1,1*
G04 #@! TO.N,N/C*
X0002303149Y0002165354D03*
G04 #@! TD*
D37*
G04 #@! TO.P,SW4,2,2*
G04 #@! TO.N,Net-(D4-A)*
X0002500000Y0000444881D03*
G04 #@! TO.P,SW4,1,1*
G04 #@! TO.N,Row4*
X0002303149Y0000527559D03*
G04 #@! TD*
G04 #@! TO.P,SW3,2,2*
G04 #@! TO.N,Net-(D3-A)*
X0002500000Y0001192913D03*
G04 #@! TO.P,SW3,1,1*
G04 #@! TO.N,Row3*
X0002303149Y0001275590D03*
G04 #@! TD*
G04 #@! TO.P,SW2,2,2*
G04 #@! TO.N,Net-(D2-A)*
X0002106299Y0001641732D03*
G04 #@! TO.P,SW2,1,1*
G04 #@! TO.N,Row2*
X0002303149Y0001559055D03*
G04 #@! TD*
D39*
G04 #@! TO.N,Row4*
X0002159094Y0002872480D02*
X0002199999Y0002913385D01*
X0002303149Y0000527559D02*
X0002159094Y0000671614D01*
X0002159094Y0000671614D02*
X0002159094Y0002872480D01*
G04 #@! TO.N,Row3*
X0002303149Y0001275590D02*
X0002186023Y0001392716D01*
X0002186023Y0001392716D02*
X0002186023Y0002799409D01*
X0002186023Y0002799409D02*
X0002299999Y0002913385D01*
G04 #@! TO.N,Row2*
X0002400000Y0002478740D02*
X0002400000Y0002913385D01*
X0002203740Y0002282480D02*
X0002400000Y0002478740D01*
X0002303149Y0001653543D02*
X0002203740Y0001752952D01*
X0002203740Y0001752952D02*
X0002203740Y0002282480D01*
X0002303149Y0001559055D02*
X0002303149Y0001653543D01*
G04 #@! TO.N,Row1*
X0002471421Y0002475358D02*
X0002303149Y0002307086D01*
X0002471421Y0002884807D02*
X0002471421Y0002475358D01*
X0002500000Y0002913385D02*
X0002471421Y0002884807D01*
G04 #@! TD*
G04 next file*
G04 #@! TF.GenerationSoftware,KiCad,Pcbnew,7.0.2*
G04 #@! TF.CreationDate,2023-05-08T17:21:18+01:00*
G04 #@! TF.ProjectId,heron,6865726f-6e2e-46b6-9963-61645f706362,rev?*
G04 #@! TF.SameCoordinates,Original*
G04 #@! TF.FileFunction,Copper,L1,Top*
G04 #@! TF.FilePolarity,Positive*
G04 Gerber Fmt 4.6, Leading zero omitted, Abs format (unit mm)*
G04 Created by KiCad (PCBNEW 7.0.2) date 2023-05-08 17:21:18*
G01*
G04 APERTURE LIST*
G04 #@! TA.AperFunction,ComponentPad*
G04 #@! TD*
G04 #@! TA.AperFunction,ComponentPad*
G04 #@! TD*
G04 #@! TA.AperFunction,ComponentPad*
G04 #@! TD*
G04 #@! TA.AperFunction,ComponentPad*
G04 #@! TD*
G04 #@! TA.AperFunction,Conductor*
G04 #@! TD*
G04 APERTURE END LIST*
D40*
G04 #@! TO.P,J1,1,Pin_1*
G04 #@! TO.N,Row1*
X-0003228346Y0004114173D02*
X0003169291Y0002913385D03*
D41*
G04 #@! TO.P,J1,2,Pin_2*
G04 #@! TO.N,Row2*
X0003069291Y0002913385D03*
G04 #@! TO.P,J1,3,Pin_3*
G04 #@! TO.N,Row3*
X0002969291Y0002913385D03*
G04 #@! TO.P,J1,4,Pin_4*
G04 #@! TO.N,Row4*
X0002869291Y0002913385D03*
G04 #@! TO.P,J1,5,Pin_5*
G04 #@! TO.N,Column*
X0002769291Y0002913385D03*
G04 #@! TD*
D42*
G04 #@! TO.P,SW1,2,2*
G04 #@! TO.N,Net-(D1-A)*
X0002775590Y0002389763D03*
G04 #@! TO.P,SW1,1,1*
G04 #@! TO.N,Row1*
X0002972440Y0002307086D03*
G04 #@! TD*
D43*
G04 #@! TO.P,H3,1*
G04 #@! TO.N,N/C*
X0002972440Y0000669291D03*
G04 #@! TD*
G04 #@! TO.P,H2,1*
G04 #@! TO.N,N/C*
X0002972440Y0001417322D03*
G04 #@! TD*
G04 #@! TO.P,H1,1*
G04 #@! TO.N,N/C*
X0002972440Y0002165354D03*
G04 #@! TD*
D42*
G04 #@! TO.P,SW4,2,2*
G04 #@! TO.N,Net-(D4-A)*
X0003169291Y0000444881D03*
G04 #@! TO.P,SW4,1,1*
G04 #@! TO.N,Row4*
X0002972440Y0000527559D03*
G04 #@! TD*
G04 #@! TO.P,SW3,2,2*
G04 #@! TO.N,Net-(D3-A)*
X0003169291Y0001192913D03*
G04 #@! TO.P,SW3,1,1*
G04 #@! TO.N,Row3*
X0002972440Y0001275590D03*
G04 #@! TD*
G04 #@! TO.P,SW2,2,2*
G04 #@! TO.N,Net-(D2-A)*
X0002775590Y0001641732D03*
G04 #@! TO.P,SW2,1,1*
G04 #@! TO.N,Row2*
X0002972440Y0001559055D03*
G04 #@! TD*
D44*
G04 #@! TO.N,Row4*
X0002828385Y0002872480D02*
X0002869291Y0002913385D01*
X0002972440Y0000527559D02*
X0002828385Y0000671614D01*
X0002828385Y0000671614D02*
X0002828385Y0002872480D01*
G04 #@! TO.N,Row3*
X0002972440Y0001275590D02*
X0002855314Y0001392716D01*
X0002855314Y0001392716D02*
X0002855314Y0002799409D01*
X0002855314Y0002799409D02*
X0002969291Y0002913385D01*
G04 #@! TO.N,Row2*
X0003069291Y0002478740D02*
X0003069291Y0002913385D01*
X0002873031Y0002282480D02*
X0003069291Y0002478740D01*
X0002972440Y0001653543D02*
X0002873031Y0001752952D01*
X0002873031Y0001752952D02*
X0002873031Y0002282480D01*
X0002972440Y0001559055D02*
X0002972440Y0001653543D01*
G04 #@! TO.N,Row1*
X0003140712Y0002475358D02*
X0002972440Y0002307086D01*
X0003140712Y0002884807D02*
X0003140712Y0002475358D01*
X0003169291Y0002913385D02*
X0003140712Y0002884807D01*
G04 #@! TD*
M02*