%MOIN*%
%OFA0B0*%
%FSLAX46Y46*%
%IPPOS*%
%LPD*%
%ADD10C,0.0047244094488188976*%
%ADD11C,0.005905511811023622*%
%ADD22C,0.0047244094488188976*%
%ADD23C,0.005905511811023622*%
%ADD24C,0.0047244094488188976*%
%ADD25C,0.005905511811023622*%
%ADD26C,0.0047244094488188976*%
%ADD27C,0.005905511811023622*%
%ADD28C,0.0047244094488188976*%
%ADD29C,0.005905511811023622*%
G01*
D10*
X0000442125Y0002861023D02*
X0000039763Y0002861023D01*
X0000544488Y0002965748D02*
X0000544488Y0002913385D01*
X0000442125Y0002965748D02*
X0000039763Y0002965748D01*
X0000039763Y0002965748D02*
X0000039763Y0002861023D01*
X0000442125Y0002965748D02*
X0000442125Y0002861023D01*
X0000492125Y0002965748D02*
X0000544488Y0002965748D01*
D11*
X0000019685Y0002775590D02*
X0000019685Y0002814960D01*
X0000019685Y0002263779D02*
X0000059055Y0002263779D01*
X0000059055Y0002814960D02*
X0000019685Y0002814960D01*
X0000019685Y0002263779D02*
X0000019685Y0002303149D01*
X0000570866Y0002303149D02*
X0000570866Y0002263779D01*
X0000570866Y0002814960D02*
X0000531496Y0002814960D01*
X0000531496Y0002263779D02*
X0000570866Y0002263779D01*
X0000570866Y0002814960D02*
X0000570866Y0002775590D01*
X0000570866Y0000059055D02*
X0000570866Y0000019685D01*
X0000570866Y0000570866D02*
X0000531496Y0000570866D01*
X0000531496Y0000019685D02*
X0000570866Y0000019685D01*
X0000570866Y0000570866D02*
X0000570866Y0000531496D01*
X0000019685Y0000531496D02*
X0000019685Y0000570866D01*
X0000019685Y0000019685D02*
X0000059055Y0000019685D01*
X0000059055Y0000570866D02*
X0000019685Y0000570866D01*
X0000019685Y0000019685D02*
X0000019685Y0000059055D01*
X0000570866Y0000807086D02*
X0000570866Y0000767716D01*
X0000570866Y0001318897D02*
X0000531496Y0001318897D01*
X0000531496Y0000767716D02*
X0000570866Y0000767716D01*
X0000570866Y0001318897D02*
X0000570866Y0001279527D01*
X0000019685Y0001279527D02*
X0000019685Y0001318897D01*
X0000019685Y0000767716D02*
X0000059055Y0000767716D01*
X0000059055Y0001318897D02*
X0000019685Y0001318897D01*
X0000019685Y0000767716D02*
X0000019685Y0000807086D01*
X0000019685Y0002027559D02*
X0000019685Y0002066929D01*
X0000019685Y0001515748D02*
X0000059055Y0001515748D01*
X0000059055Y0002066929D02*
X0000019685Y0002066929D01*
X0000019685Y0001515748D02*
X0000019685Y0001555118D01*
X0000570866Y0001555118D02*
X0000570866Y0001515748D01*
X0000570866Y0002066929D02*
X0000531496Y0002066929D01*
X0000531496Y0001515748D02*
X0000570866Y0001515748D01*
X0000570866Y0002066929D02*
X0000570866Y0002027559D01*
G04 next file*
G04 #@! TF.GenerationSoftware,KiCad,Pcbnew,7.0.2*
G04 #@! TF.CreationDate,2023-05-08T17:21:18+01:00*
G04 #@! TF.ProjectId,heron,6865726f-6e2e-46b6-9963-61645f706362,rev?*
G04 #@! TF.SameCoordinates,Original*
G04 #@! TF.FileFunction,Legend,Top*
G04 #@! TF.FilePolarity,Positive*
G04 Gerber Fmt 4.6, Leading zero omitted, Abs format (unit mm)*
G04 Created by KiCad (PCBNEW 7.0.2) date 2023-05-08 17:21:18*
G01*
G04 APERTURE LIST*
G04 APERTURE END LIST*
D22*
G04 #@! TO.C,J1*
X0001111417Y0002861023D02*
X0000709055Y0002861023D01*
X0001213779Y0002965748D02*
X0001213779Y0002913385D01*
X0001111417Y0002965748D02*
X0000709055Y0002965748D01*
X0000709055Y0002965748D02*
X0000709055Y0002861023D01*
X0001111417Y0002965748D02*
X0001111417Y0002861023D01*
X0001161417Y0002965748D02*
X0001213779Y0002965748D01*
D23*
G04 #@! TO.C,SW1*
X0000688976Y0002775590D02*
X0000688976Y0002814960D01*
X0000688976Y0002263779D02*
X0000728346Y0002263779D01*
X0000728346Y0002814960D02*
X0000688976Y0002814960D01*
X0000688976Y0002263779D02*
X0000688976Y0002303149D01*
X0001240157Y0002303149D02*
X0001240157Y0002263779D01*
X0001240157Y0002814960D02*
X0001200787Y0002814960D01*
X0001200787Y0002263779D02*
X0001240157Y0002263779D01*
X0001240157Y0002814960D02*
X0001240157Y0002775590D01*
G04 #@! TO.C,SW4*
X0001240157Y0000059055D02*
X0001240157Y0000019685D01*
X0001240157Y0000570866D02*
X0001200787Y0000570866D01*
X0001200787Y0000019685D02*
X0001240157Y0000019685D01*
X0001240157Y0000570866D02*
X0001240157Y0000531496D01*
X0000688976Y0000531496D02*
X0000688976Y0000570866D01*
X0000688976Y0000019685D02*
X0000728346Y0000019685D01*
X0000728346Y0000570866D02*
X0000688976Y0000570866D01*
X0000688976Y0000019685D02*
X0000688976Y0000059055D01*
G04 #@! TO.C,SW3*
X0001240157Y0000807086D02*
X0001240157Y0000767716D01*
X0001240157Y0001318897D02*
X0001200787Y0001318897D01*
X0001200787Y0000767716D02*
X0001240157Y0000767716D01*
X0001240157Y0001318897D02*
X0001240157Y0001279527D01*
X0000688976Y0001279527D02*
X0000688976Y0001318897D01*
X0000688976Y0000767716D02*
X0000728346Y0000767716D01*
X0000728346Y0001318897D02*
X0000688976Y0001318897D01*
X0000688976Y0000767716D02*
X0000688976Y0000807086D01*
G04 #@! TO.C,SW2*
X0000688976Y0002027559D02*
X0000688976Y0002066929D01*
X0000688976Y0001515748D02*
X0000728346Y0001515748D01*
X0000728346Y0002066929D02*
X0000688976Y0002066929D01*
X0000688976Y0001515748D02*
X0000688976Y0001555118D01*
X0001240157Y0001555118D02*
X0001240157Y0001515748D01*
X0001240157Y0002066929D02*
X0001200787Y0002066929D01*
X0001200787Y0001515748D02*
X0001240157Y0001515748D01*
X0001240157Y0002066929D02*
X0001240157Y0002027559D01*
G04 #@! TD*
G04 next file*
G04 #@! TF.GenerationSoftware,KiCad,Pcbnew,7.0.2*
G04 #@! TF.CreationDate,2023-05-08T17:21:18+01:00*
G04 #@! TF.ProjectId,heron,6865726f-6e2e-46b6-9963-61645f706362,rev?*
G04 #@! TF.SameCoordinates,Original*
G04 #@! TF.FileFunction,Legend,Top*
G04 #@! TF.FilePolarity,Positive*
G04 Gerber Fmt 4.6, Leading zero omitted, Abs format (unit mm)*
G04 Created by KiCad (PCBNEW 7.0.2) date 2023-05-08 17:21:18*
G01*
G04 APERTURE LIST*
G04 APERTURE END LIST*
D24*
G04 #@! TO.C,J1*
X0001780708Y0002861023D02*
X0001378346Y0002861023D01*
X0001883070Y0002965748D02*
X0001883070Y0002913385D01*
X0001780708Y0002965748D02*
X0001378346Y0002965748D01*
X0001378346Y0002965748D02*
X0001378346Y0002861023D01*
X0001780708Y0002965748D02*
X0001780708Y0002861023D01*
X0001830708Y0002965748D02*
X0001883070Y0002965748D01*
D25*
G04 #@! TO.C,SW1*
X0001358267Y0002775590D02*
X0001358267Y0002814960D01*
X0001358267Y0002263779D02*
X0001397637Y0002263779D01*
X0001397637Y0002814960D02*
X0001358267Y0002814960D01*
X0001358267Y0002263779D02*
X0001358267Y0002303149D01*
X0001909448Y0002303149D02*
X0001909448Y0002263779D01*
X0001909448Y0002814960D02*
X0001870078Y0002814960D01*
X0001870078Y0002263779D02*
X0001909448Y0002263779D01*
X0001909448Y0002814960D02*
X0001909448Y0002775590D01*
G04 #@! TO.C,SW4*
X0001909448Y0000059055D02*
X0001909448Y0000019685D01*
X0001909448Y0000570866D02*
X0001870078Y0000570866D01*
X0001870078Y0000019685D02*
X0001909448Y0000019685D01*
X0001909448Y0000570866D02*
X0001909448Y0000531496D01*
X0001358267Y0000531496D02*
X0001358267Y0000570866D01*
X0001358267Y0000019685D02*
X0001397637Y0000019685D01*
X0001397637Y0000570866D02*
X0001358267Y0000570866D01*
X0001358267Y0000019685D02*
X0001358267Y0000059055D01*
G04 #@! TO.C,SW3*
X0001909448Y0000807086D02*
X0001909448Y0000767716D01*
X0001909448Y0001318897D02*
X0001870078Y0001318897D01*
X0001870078Y0000767716D02*
X0001909448Y0000767716D01*
X0001909448Y0001318897D02*
X0001909448Y0001279527D01*
X0001358267Y0001279527D02*
X0001358267Y0001318897D01*
X0001358267Y0000767716D02*
X0001397637Y0000767716D01*
X0001397637Y0001318897D02*
X0001358267Y0001318897D01*
X0001358267Y0000767716D02*
X0001358267Y0000807086D01*
G04 #@! TO.C,SW2*
X0001358267Y0002027559D02*
X0001358267Y0002066929D01*
X0001358267Y0001515748D02*
X0001397637Y0001515748D01*
X0001397637Y0002066929D02*
X0001358267Y0002066929D01*
X0001358267Y0001515748D02*
X0001358267Y0001555118D01*
X0001909448Y0001555118D02*
X0001909448Y0001515748D01*
X0001909448Y0002066929D02*
X0001870078Y0002066929D01*
X0001870078Y0001515748D02*
X0001909448Y0001515748D01*
X0001909448Y0002066929D02*
X0001909448Y0002027559D01*
G04 #@! TD*
G04 next file*
G04 #@! TF.GenerationSoftware,KiCad,Pcbnew,7.0.2*
G04 #@! TF.CreationDate,2023-05-08T17:21:18+01:00*
G04 #@! TF.ProjectId,heron,6865726f-6e2e-46b6-9963-61645f706362,rev?*
G04 #@! TF.SameCoordinates,Original*
G04 #@! TF.FileFunction,Legend,Top*
G04 #@! TF.FilePolarity,Positive*
G04 Gerber Fmt 4.6, Leading zero omitted, Abs format (unit mm)*
G04 Created by KiCad (PCBNEW 7.0.2) date 2023-05-08 17:21:18*
G01*
G04 APERTURE LIST*
G04 APERTURE END LIST*
D26*
G04 #@! TO.C,J1*
X0002449999Y0002861023D02*
X0002047637Y0002861023D01*
X0002552362Y0002965748D02*
X0002552362Y0002913385D01*
X0002449999Y0002965748D02*
X0002047637Y0002965748D01*
X0002047637Y0002965748D02*
X0002047637Y0002861023D01*
X0002449999Y0002965748D02*
X0002449999Y0002861023D01*
X0002500000Y0002965748D02*
X0002552362Y0002965748D01*
D27*
G04 #@! TO.C,SW1*
X0002027559Y0002775590D02*
X0002027559Y0002814960D01*
X0002027559Y0002263779D02*
X0002066929Y0002263779D01*
X0002066929Y0002814960D02*
X0002027559Y0002814960D01*
X0002027559Y0002263779D02*
X0002027559Y0002303149D01*
X0002578740Y0002303149D02*
X0002578740Y0002263779D01*
X0002578740Y0002814960D02*
X0002539370Y0002814960D01*
X0002539370Y0002263779D02*
X0002578740Y0002263779D01*
X0002578740Y0002814960D02*
X0002578740Y0002775590D01*
G04 #@! TO.C,SW4*
X0002578740Y0000059055D02*
X0002578740Y0000019685D01*
X0002578740Y0000570866D02*
X0002539370Y0000570866D01*
X0002539370Y0000019685D02*
X0002578740Y0000019685D01*
X0002578740Y0000570866D02*
X0002578740Y0000531496D01*
X0002027559Y0000531496D02*
X0002027559Y0000570866D01*
X0002027559Y0000019685D02*
X0002066929Y0000019685D01*
X0002066929Y0000570866D02*
X0002027559Y0000570866D01*
X0002027559Y0000019685D02*
X0002027559Y0000059055D01*
G04 #@! TO.C,SW3*
X0002578740Y0000807086D02*
X0002578740Y0000767716D01*
X0002578740Y0001318897D02*
X0002539370Y0001318897D01*
X0002539370Y0000767716D02*
X0002578740Y0000767716D01*
X0002578740Y0001318897D02*
X0002578740Y0001279527D01*
X0002027559Y0001279527D02*
X0002027559Y0001318897D01*
X0002027559Y0000767716D02*
X0002066929Y0000767716D01*
X0002066929Y0001318897D02*
X0002027559Y0001318897D01*
X0002027559Y0000767716D02*
X0002027559Y0000807086D01*
G04 #@! TO.C,SW2*
X0002027559Y0002027559D02*
X0002027559Y0002066929D01*
X0002027559Y0001515748D02*
X0002066929Y0001515748D01*
X0002066929Y0002066929D02*
X0002027559Y0002066929D01*
X0002027559Y0001515748D02*
X0002027559Y0001555118D01*
X0002578740Y0001555118D02*
X0002578740Y0001515748D01*
X0002578740Y0002066929D02*
X0002539370Y0002066929D01*
X0002539370Y0001515748D02*
X0002578740Y0001515748D01*
X0002578740Y0002066929D02*
X0002578740Y0002027559D01*
G04 #@! TD*
G04 next file*
G04 #@! TF.GenerationSoftware,KiCad,Pcbnew,7.0.2*
G04 #@! TF.CreationDate,2023-05-08T17:21:18+01:00*
G04 #@! TF.ProjectId,heron,6865726f-6e2e-46b6-9963-61645f706362,rev?*
G04 #@! TF.SameCoordinates,Original*
G04 #@! TF.FileFunction,Legend,Top*
G04 #@! TF.FilePolarity,Positive*
G04 Gerber Fmt 4.6, Leading zero omitted, Abs format (unit mm)*
G04 Created by KiCad (PCBNEW 7.0.2) date 2023-05-08 17:21:18*
G01*
G04 APERTURE LIST*
G04 APERTURE END LIST*
D28*
G04 #@! TO.C,J1*
X0003119291Y0002861023D02*
X0002716929Y0002861023D01*
X0003221653Y0002965748D02*
X0003221653Y0002913385D01*
X0003119291Y0002965748D02*
X0002716929Y0002965748D01*
X0002716929Y0002965748D02*
X0002716929Y0002861023D01*
X0003119291Y0002965748D02*
X0003119291Y0002861023D01*
X0003169291Y0002965748D02*
X0003221653Y0002965748D01*
D29*
G04 #@! TO.C,SW1*
X0002696850Y0002775590D02*
X0002696850Y0002814960D01*
X0002696850Y0002263779D02*
X0002736220Y0002263779D01*
X0002736220Y0002814960D02*
X0002696850Y0002814960D01*
X0002696850Y0002263779D02*
X0002696850Y0002303149D01*
X0003248031Y0002303149D02*
X0003248031Y0002263779D01*
X0003248031Y0002814960D02*
X0003208661Y0002814960D01*
X0003208661Y0002263779D02*
X0003248031Y0002263779D01*
X0003248031Y0002814960D02*
X0003248031Y0002775590D01*
G04 #@! TO.C,SW4*
X0003248031Y0000059055D02*
X0003248031Y0000019685D01*
X0003248031Y0000570866D02*
X0003208661Y0000570866D01*
X0003208661Y0000019685D02*
X0003248031Y0000019685D01*
X0003248031Y0000570866D02*
X0003248031Y0000531496D01*
X0002696850Y0000531496D02*
X0002696850Y0000570866D01*
X0002696850Y0000019685D02*
X0002736220Y0000019685D01*
X0002736220Y0000570866D02*
X0002696850Y0000570866D01*
X0002696850Y0000019685D02*
X0002696850Y0000059055D01*
G04 #@! TO.C,SW3*
X0003248031Y0000807086D02*
X0003248031Y0000767716D01*
X0003248031Y0001318897D02*
X0003208661Y0001318897D01*
X0003208661Y0000767716D02*
X0003248031Y0000767716D01*
X0003248031Y0001318897D02*
X0003248031Y0001279527D01*
X0002696850Y0001279527D02*
X0002696850Y0001318897D01*
X0002696850Y0000767716D02*
X0002736220Y0000767716D01*
X0002736220Y0001318897D02*
X0002696850Y0001318897D01*
X0002696850Y0000767716D02*
X0002696850Y0000807086D01*
G04 #@! TO.C,SW2*
X0002696850Y0002027559D02*
X0002696850Y0002066929D01*
X0002696850Y0001515748D02*
X0002736220Y0001515748D01*
X0002736220Y0002066929D02*
X0002696850Y0002066929D01*
X0002696850Y0001515748D02*
X0002696850Y0001555118D01*
X0003248031Y0001555118D02*
X0003248031Y0001515748D01*
X0003248031Y0002066929D02*
X0003208661Y0002066929D01*
X0003208661Y0001515748D02*
X0003248031Y0001515748D01*
X0003248031Y0002066929D02*
X0003248031Y0002027559D01*
G04 #@! TD*
M02*