G04 #@! TF.GenerationSoftware,KiCad,Pcbnew,7.0.2*
G04 #@! TF.CreationDate,2023-05-08T17:21:18+01:00*
G04 #@! TF.ProjectId,heron,6865726f-6e2e-46b6-9963-61645f706362,rev?*
G04 #@! TF.SameCoordinates,Original*
G04 #@! TF.FileFunction,Soldermask,Bot*
G04 #@! TF.FilePolarity,Negative*
%FSLAX46Y46*%
G04 Gerber Fmt 4.6, Leading zero omitted, Abs format (unit mm)*
G04 Created by KiCad (PCBNEW 7.0.2) date 2023-05-08 17:21:18*
%MOMM*%
%LPD*%
G01*
G04 APERTURE LIST*
G04 Aperture macros list*
%AMRoundRect*
0 Rectangle with rounded corners*
0 $1 Rounding radius*
0 $2 $3 $4 $5 $6 $7 $8 $9 X,Y pos of 4 corners*
0 Add a 4 corners polygon primitive as box body*
4,1,4,$2,$3,$4,$5,$6,$7,$8,$9,$2,$3,0*
0 Add four circle primitives for the rounded corners*
1,1,$1+$1,$2,$3*
1,1,$1+$1,$4,$5*
1,1,$1+$1,$6,$7*
1,1,$1+$1,$8,$9*
0 Add four rect primitives between the rounded corners*
20,1,$1+$1,$2,$3,$4,$5,0*
20,1,$1+$1,$4,$5,$6,$7,0*
20,1,$1+$1,$6,$7,$8,$9,0*
20,1,$1+$1,$8,$9,$2,$3,0*%
G04 Aperture macros list end*
%ADD10R,1.700000X1.700000*%
%ADD11O,1.700000X1.700000*%
%ADD12C,3.429000*%
%ADD13C,2.032000*%
%ADD14C,0.990600*%
%ADD15C,1.701800*%
%ADD16RoundRect,0.250000X-0.325000X-0.450000X0.325000X-0.450000X0.325000X0.450000X-0.325000X0.450000X0*%
%ADD17RoundRect,0.250000X0.325000X0.450000X-0.325000X0.450000X-0.325000X-0.450000X0.325000X-0.450000X0*%
%ADD18C,4.400000*%
G04 APERTURE END LIST*
D10*
G04 #@! TO.C,J1*
X162500000Y-30500000D03*
D11*
X159960000Y-30500000D03*
X157420000Y-30500000D03*
X154880000Y-30500000D03*
X152340000Y-30500000D03*
G04 #@! TD*
D12*
G04 #@! TO.C,SW1*
X157500000Y-40000000D03*
D13*
X152500000Y-43800000D03*
X157500000Y-45900000D03*
D14*
X162720000Y-35800000D03*
D15*
X163000000Y-40000000D03*
X152000000Y-40000000D03*
G04 #@! TD*
D16*
G04 #@! TO.C,D4*
X158475000Y-93500000D03*
X160525000Y-93500000D03*
G04 #@! TD*
G04 #@! TO.C,D3*
X158450000Y-74500000D03*
X160500000Y-74500000D03*
G04 #@! TD*
D17*
G04 #@! TO.C,D2*
X156550000Y-62500000D03*
X154500000Y-62500000D03*
G04 #@! TD*
G04 #@! TO.C,D1*
X154500000Y-43500000D03*
X156550000Y-43500000D03*
G04 #@! TD*
D18*
G04 #@! TO.C,H3*
X157500000Y-87500000D03*
G04 #@! TD*
G04 #@! TO.C,H2*
X157500000Y-68500000D03*
G04 #@! TD*
G04 #@! TO.C,H1*
X157500000Y-49500000D03*
G04 #@! TD*
D12*
G04 #@! TO.C,SW4*
X157500000Y-97000000D03*
D13*
X162500000Y-93200000D03*
X157500000Y-91100000D03*
D14*
X152280000Y-101200000D03*
D15*
X152000000Y-97000000D03*
X163000000Y-97000000D03*
G04 #@! TD*
D12*
G04 #@! TO.C,SW3*
X157500000Y-78000000D03*
D13*
X162500000Y-74200000D03*
X157500000Y-72100000D03*
D14*
X152280000Y-82200000D03*
D15*
X152000000Y-78000000D03*
X163000000Y-78000000D03*
G04 #@! TD*
D12*
G04 #@! TO.C,SW2*
X157500000Y-59000000D03*
D13*
X152500000Y-62800000D03*
X157500000Y-64900000D03*
D14*
X162720000Y-54800000D03*
D15*
X163000000Y-59000000D03*
X152000000Y-59000000D03*
G04 #@! TD*
M02*
