G04 #@! TF.GenerationSoftware,KiCad,Pcbnew,7.0.2*
G04 #@! TF.CreationDate,2023-05-08T17:21:18+01:00*
G04 #@! TF.ProjectId,heron,6865726f-6e2e-46b6-9963-61645f706362,rev?*
G04 #@! TF.SameCoordinates,Original*
G04 #@! TF.FileFunction,Copper,L1,Top*
G04 #@! TF.FilePolarity,Positive*
%FSLAX46Y46*%
G04 Gerber Fmt 4.6, Leading zero omitted, Abs format (unit mm)*
G04 Created by KiCad (PCBNEW 7.0.2) date 2023-05-08 17:21:18*
%MOMM*%
%LPD*%
G01*
G04 APERTURE LIST*
G04 #@! TA.AperFunction,ComponentPad*
%ADD10R,1.700000X1.700000*%
G04 #@! TD*
G04 #@! TA.AperFunction,ComponentPad*
%ADD11O,1.700000X1.700000*%
G04 #@! TD*
G04 #@! TA.AperFunction,ComponentPad*
%ADD12C,2.032000*%
G04 #@! TD*
G04 #@! TA.AperFunction,ComponentPad*
%ADD13C,4.400000*%
G04 #@! TD*
G04 #@! TA.AperFunction,Conductor*
%ADD14C,0.250000*%
G04 #@! TD*
G04 APERTURE END LIST*
D10*
G04 #@! TO.P,J1,1,Pin_1*
G04 #@! TO.N,Row1*
X162500000Y-30500000D03*
D11*
G04 #@! TO.P,J1,2,Pin_2*
G04 #@! TO.N,Row2*
X159960000Y-30500000D03*
G04 #@! TO.P,J1,3,Pin_3*
G04 #@! TO.N,Row3*
X157420000Y-30500000D03*
G04 #@! TO.P,J1,4,Pin_4*
G04 #@! TO.N,Row4*
X154880000Y-30500000D03*
G04 #@! TO.P,J1,5,Pin_5*
G04 #@! TO.N,Column*
X152340000Y-30500000D03*
G04 #@! TD*
D12*
G04 #@! TO.P,SW1,2,2*
G04 #@! TO.N,Net-(D1-A)*
X152500000Y-43800000D03*
G04 #@! TO.P,SW1,1,1*
G04 #@! TO.N,Row1*
X157500000Y-45900000D03*
G04 #@! TD*
D13*
G04 #@! TO.P,H3,1*
G04 #@! TO.N,N/C*
X157500000Y-87500000D03*
G04 #@! TD*
G04 #@! TO.P,H2,1*
G04 #@! TO.N,N/C*
X157500000Y-68500000D03*
G04 #@! TD*
G04 #@! TO.P,H1,1*
G04 #@! TO.N,N/C*
X157500000Y-49500000D03*
G04 #@! TD*
D12*
G04 #@! TO.P,SW4,2,2*
G04 #@! TO.N,Net-(D4-A)*
X162500000Y-93200000D03*
G04 #@! TO.P,SW4,1,1*
G04 #@! TO.N,Row4*
X157500000Y-91100000D03*
G04 #@! TD*
G04 #@! TO.P,SW3,2,2*
G04 #@! TO.N,Net-(D3-A)*
X162500000Y-74200000D03*
G04 #@! TO.P,SW3,1,1*
G04 #@! TO.N,Row3*
X157500000Y-72100000D03*
G04 #@! TD*
G04 #@! TO.P,SW2,2,2*
G04 #@! TO.N,Net-(D2-A)*
X152500000Y-62800000D03*
G04 #@! TO.P,SW2,1,1*
G04 #@! TO.N,Row2*
X157500000Y-64900000D03*
G04 #@! TD*
D14*
G04 #@! TO.N,Row4*
X153841000Y-31539000D02*
X154880000Y-30500000D01*
X157500000Y-91100000D02*
X153841000Y-87441000D01*
X153841000Y-87441000D02*
X153841000Y-31539000D01*
G04 #@! TO.N,Row3*
X157500000Y-72100000D02*
X154525000Y-69125000D01*
X154525000Y-69125000D02*
X154525000Y-33395000D01*
X154525000Y-33395000D02*
X157420000Y-30500000D01*
G04 #@! TO.N,Row2*
X159960000Y-41540000D02*
X159960000Y-30500000D01*
X154975000Y-46525000D02*
X159960000Y-41540000D01*
X157500000Y-62500000D02*
X154975000Y-59975000D01*
X154975000Y-59975000D02*
X154975000Y-46525000D01*
X157500000Y-64900000D02*
X157500000Y-62500000D01*
G04 #@! TO.N,Row1*
X161774100Y-41625900D02*
X157500000Y-45900000D01*
X161774100Y-31225900D02*
X161774100Y-41625900D01*
X162500000Y-30500000D02*
X161774100Y-31225900D01*
G04 #@! TD*
M02*
