G04 #@! TF.GenerationSoftware,KiCad,Pcbnew,7.0.2*
G04 #@! TF.CreationDate,2023-05-08T17:21:18+01:00*
G04 #@! TF.ProjectId,heron,6865726f-6e2e-46b6-9963-61645f706362,rev?*
G04 #@! TF.SameCoordinates,Original*
G04 #@! TF.FileFunction,Legend,Top*
G04 #@! TF.FilePolarity,Positive*
%FSLAX46Y46*%
G04 Gerber Fmt 4.6, Leading zero omitted, Abs format (unit mm)*
G04 Created by KiCad (PCBNEW 7.0.2) date 2023-05-08 17:21:18*
%MOMM*%
%LPD*%
G01*
G04 APERTURE LIST*
%ADD10C,0.120000*%
%ADD11C,0.150000*%
G04 APERTURE END LIST*
D10*
G04 #@! TO.C,J1*
X161230000Y-31830000D02*
X151010000Y-31830000D01*
X163830000Y-29170000D02*
X163830000Y-30500000D01*
X161230000Y-29170000D02*
X151010000Y-29170000D01*
X151010000Y-29170000D02*
X151010000Y-31830000D01*
X161230000Y-29170000D02*
X161230000Y-31830000D01*
X162500000Y-29170000D02*
X163830000Y-29170000D01*
D11*
G04 #@! TO.C,SW1*
X150500000Y-34000000D02*
X150500000Y-33000000D01*
X150500000Y-47000000D02*
X151500000Y-47000000D01*
X151500000Y-33000000D02*
X150500000Y-33000000D01*
X150500000Y-47000000D02*
X150500000Y-46000000D01*
X164500000Y-46000000D02*
X164500000Y-47000000D01*
X164500000Y-33000000D02*
X163500000Y-33000000D01*
X163500000Y-47000000D02*
X164500000Y-47000000D01*
X164500000Y-33000000D02*
X164500000Y-34000000D01*
G04 #@! TO.C,SW4*
X164500000Y-103000000D02*
X164500000Y-104000000D01*
X164500000Y-90000000D02*
X163500000Y-90000000D01*
X163500000Y-104000000D02*
X164500000Y-104000000D01*
X164500000Y-90000000D02*
X164500000Y-91000000D01*
X150500000Y-91000000D02*
X150500000Y-90000000D01*
X150500000Y-104000000D02*
X151500000Y-104000000D01*
X151500000Y-90000000D02*
X150500000Y-90000000D01*
X150500000Y-104000000D02*
X150500000Y-103000000D01*
G04 #@! TO.C,SW3*
X164500000Y-84000000D02*
X164500000Y-85000000D01*
X164500000Y-71000000D02*
X163500000Y-71000000D01*
X163500000Y-85000000D02*
X164500000Y-85000000D01*
X164500000Y-71000000D02*
X164500000Y-72000000D01*
X150500000Y-72000000D02*
X150500000Y-71000000D01*
X150500000Y-85000000D02*
X151500000Y-85000000D01*
X151500000Y-71000000D02*
X150500000Y-71000000D01*
X150500000Y-85000000D02*
X150500000Y-84000000D01*
G04 #@! TO.C,SW2*
X150500000Y-53000000D02*
X150500000Y-52000000D01*
X150500000Y-66000000D02*
X151500000Y-66000000D01*
X151500000Y-52000000D02*
X150500000Y-52000000D01*
X150500000Y-66000000D02*
X150500000Y-65000000D01*
X164500000Y-65000000D02*
X164500000Y-66000000D01*
X164500000Y-52000000D02*
X163500000Y-52000000D01*
X163500000Y-66000000D02*
X164500000Y-66000000D01*
X164500000Y-52000000D02*
X164500000Y-53000000D01*
G04 #@! TD*
M02*
